<svg xmlns="http://www.w3.org/2000/svg" xmlns:v="https://vecta.io/nano" xmlns:xlink="http://www.w3.org/1999/xlink" width="485" height="451" fill="none"><style>.B{fill:#7694ff}.C{fill:#fff}.D{fill:#e0e0e0}.E{fill:#000}.F{fill:#455a64}.G{fill:#37474f}.H{fill:#fafafa}.I{fill:#263238}.J{opacity:.15}.K{opacity:.2}.L{opacity:.4}.M{fill:#f28f8f}.N{fill:#f0f0f0}.O{fill:#ffa8a7}.P{opacity:.35}</style><mask id="A" width="485" height="451" x="0" y="0" mask-type="alpha" maskUnits="userSpaceOnUse"><path fill="#c4c4c4" d="M0 0h485v451H0z"/></mask><g mask="url(#A)"><path fill-opacity=".81" d="M67.876 407.456c-19.625-31.63-6.462-68.251-10.875-111.956-8.723-86.374-77.668-168-24-221 60.62-59.867 174.483-70.886 220.823-54.623 69.089 24.247 136.131 42.046 167.322 82.183 44.321 57.032 39.422 132.489 27.253 203.685-10.258 60.01-32.968 135.941-93.082 126.31-27.015-4.328-51.647-12.371-87.58-14.031-51.741-2.392-172.552 33.444-199.86-10.568z" class="C"/><path d="M138.141 377.024c-67.114-38.744-67.114-101.572 0-140.316s175.918-38.744 243.032 0 67.114 101.572 0 140.316-175.926 38.744-243.032 0z" class="H"/><path fill="#e6e6e6" d="M261.581 382.548c41.726 0 75.552-19.532 75.552-43.625s-33.826-43.625-75.552-43.625-75.553 19.531-75.553 43.625 33.826 43.625 75.553 43.625z"/><path fill="#e6e6e6" d="M220.863 371.704a11.42 11.42 0 0 1-1.81 4.207 19.91 19.91 0 0 1-6.785 6.025c-11.753 6.778-30.784 6.778-42.528 0a19.91 19.91 0 0 1-6.785-6.025c-.876-1.268-1.489-2.698-1.802-4.207-1.042-5.093 1.825-10.405 8.618-14.314 11.752-6.785 30.783-6.785 42.528 0 6.738 3.909 9.606 9.221 8.564 14.314z"/><use class="B" xlink:href="#C"/><use class="C" opacity=".7" xlink:href="#C"/><use class="B" xlink:href="#D"/><use class="C L" xlink:href="#D"/><use class="B" xlink:href="#E"/><use class="C" opacity=".55" xlink:href="#E"/><path d="M79.865 295.892v-.549l12.904-21.389-12.747-7.051.094-.235 15.881 6.62c.337.141.784-.11 1.105-.642l15.857-24.916c.036.033.067.07.094.11l-12.716 21.758 12.912 6.487v.549c-.008.443-.121.877-.329 1.269l-13.241-7.185-1.873 3.236c-.784 1.269-1.755 1.857-2.499 1.442l-1.873-1.042-13.202 22.407c-.127-.104-.227-.238-.291-.389a1.02 1.02 0 0 1-.077-.48z" class="B L"/><path d="M119.226 242.317l-2.562-1.489c-1.12-.634-2.656-.54-4.348.439-1.813 1.173-3.323 2.759-4.405 4.627a13.67 13.67 0 0 0-1.824 6.123c0 1.974.689 3.361 1.81 4.003l2.35 1.34.549-.917c.624-.14 1.223-.372 1.778-.689a13.7 13.7 0 0 0 6.19-10.726c-.002-.529-.068-1.055-.196-1.567l.658-1.144z" class="G"/><path d="M106.322 249.909a10.1 10.1 0 0 0-.235 2.108c0 1.974.689 3.361 1.81 4.003l2.35 1.34.549-.916a6.45 6.45 0 0 0 1.778-.69c.603-.357 1.167-.774 1.685-1.246l-7.937-4.599z" class="I"/><path d="M114.705 242.669a13.68 13.68 0 0 0-4.383 4.621c-1.077 1.864-1.699 3.956-1.814 6.105 0 3.918 2.773 5.548 6.197 3.573 1.802-1.176 3.301-2.76 4.377-4.623a13.71 13.71 0 0 0 1.813-6.103c.016-3.949-2.758-5.547-6.19-3.573z" class="F"/><path d="M117.166 248.162v-1.513c0-1.731-1.05-2.53-2.351-1.778-.715.512-1.301 1.185-1.709 1.965s-.628 1.644-.641 2.524v1.356c-.026.936-.296 1.849-.784 2.648-.118.211-.183.448-.188.689 0 .439.267.643.596.455l5.484-3.173c.181-.129.328-.298.432-.494a1.43 1.43 0 0 0 .164-.634.58.58 0 0 0-.035-.251c-.03-.08-.077-.152-.138-.212-.283-.147-.514-.378-.663-.661s-.207-.604-.167-.921zm-1.222 4.583c-.007.422-.113.837-.309 1.211s-.476.697-.819.944c-.627.36-1.128 0-1.128-.854l2.256-1.301z" class="C"/><path d="M136.644 100.748a32.38 32.38 0 0 1-17.988-5.452c-5.325-3.556-9.475-8.612-11.927-14.527a32.38 32.38 0 0 1-1.845-18.705c1.248-6.28 4.331-12.05 8.858-16.578s10.296-7.613 16.576-8.862 12.79-.609 18.706 1.841 10.972 6.599 14.53 11.923a32.37 32.37 0 0 1 5.457 17.987 32.42 32.42 0 0 1-32.367 32.374zm0-63.463c-6.157-.002-12.176 1.823-17.296 5.243s-9.112 8.281-11.469 13.97-2.974 11.948-1.773 17.987a31.13 31.13 0 0 0 24.46 24.46c6.039 1.2 12.298.584 17.987-1.773a31.13 31.13 0 0 0 19.212-28.765c-.002-8.256-3.281-16.173-9.115-22.014a31.16 31.16 0 0 0-22.006-9.138v.031z" class="D"/><path d="M136.644 52.893a32.39 32.39 0 0 1-21.248-7.968l.783-.94c5.672 4.943 12.942 7.665 20.465 7.663a31.12 31.12 0 0 0 20.449-7.663l.784.94c-5.885 5.13-13.426 7.96-21.233 7.968zm-20.433 39.88l-.783-.94c5.894-5.138 13.449-7.969 21.268-7.969s15.374 2.831 21.268 7.969l-.784.94a31.13 31.13 0 0 0-40.906 0h-.063z" class="D"/><path d="M136.371 100.802a35.59 35.59 0 0 1-15.19-13.131c-3.698-5.744-5.664-12.431-5.664-19.263s1.966-13.519 5.664-19.263 8.971-10.303 15.19-13.131l.571 1.246a34.22 34.22 0 0 0-20.055 31.148 34.22 34.22 0 0 0 20.055 31.148l-.571 1.246z" class="D"/><path d="M136.958 100.802l-.564-1.246c5.977-2.721 11.046-7.105 14.6-12.628s5.444-11.952 5.444-18.52-1.89-12.997-5.444-18.52-8.623-9.907-14.6-12.628l.564-1.246a35.59 35.59 0 0 1 15.189 13.131c3.698 5.744 5.665 12.431 5.665 19.263s-1.967 13.519-5.665 19.263a35.59 35.59 0 0 1-15.189 13.131z" class="D"/><path d="M137.35 36.627h-1.371v63.494h1.371V36.627z" class="D"/><path d="M168.415 67.692h-63.494v1.371h63.494v-1.371z" class="D"/><path d="M184.364 111.752c13.456-5.574 19.846-21.001 14.273-34.457s-21.001-19.846-34.458-14.273-19.846 21.001-14.272 34.457 21.001 19.847 34.457 14.273z" class="B"/><path d="M173.468 89.833c.079-.322.079-.658 0-.979-.077-.313-.227-.603-.438-.846-.234-.26-.52-.468-.839-.611a3 3 0 0 0-1.198-.227 4.17 4.17 0 0 0-1.45.227 3.21 3.21 0 0 0-1.011.603c-.259.221-.476.486-.642.784a4.05 4.05 0 0 0-.345.909c-.008.03-.009.061-.002.091s.021.058.041.081.043.041.071.053.056.018.086.017h1.34c.093.001.186-.015.274-.047a.44.44 0 0 0 .212-.204l.109-.204a1.59 1.59 0 0 1 .212-.266 1.46 1.46 0 0 1 .345-.235c.16-.07.334-.105.509-.102a.87.87 0 0 1 .47.102c.098.053.177.135.227.235a.56.56 0 0 1 .063.266c.006.07.006.141 0 .212 0 .078 0 .149-.055.227a.95.95 0 0 1-.11.243 2.59 2.59 0 0 1-.211.259c-.111.1-.229.192-.353.274l-3.69 2.296c-.123.071-.228.171-.306.29a1.12 1.12 0 0 0-.141.353l-.219.987a.23.23 0 0 0 0 .107c.008.035.024.068.047.096s.05.054.082.07.069.025.106.024h5.633c.085-.002.166-.036.228-.094.062-.052.106-.124.125-.204l.251-1.152c.006-.035.006-.072-.002-.107s-.024-.068-.045-.097-.049-.056-.082-.072-.07-.024-.106-.022h-2.508l1.755-.987c.256-.158.495-.341.713-.549a3.27 3.27 0 0 0 .463-.564c.119-.183.214-.38.282-.588.049-.214.086-.432.109-.65zm-7.6 10.773c.068.043.147.065.228.063s.158-.02.227-.06.126-.098.164-.168l.87-1.496c.06-.104.076-.227.045-.343s-.106-.215-.209-.276a.45.45 0 0 0-.345-.049.46.46 0 0 0-.159.079c-.047.037-.086.082-.115.134l-.847 1.528c-.057.104-.072.225-.041.339s.105.212.206.272l-.024-.023zm6.449-1.692v3.047c0 .121.048.236.133.322s.201.133.321.133.236-.048.321-.133.133-.201.133-.322v-3.024a.45.45 0 0 0-.133-.321c-.085-.085-.2-.133-.321-.133s-.236.048-.321.133-.133.201-.133.321v-.023zm4.912 6.644a18.02 18.02 0 0 1-11.298-1.34 17.82 17.82 0 0 1-8.062-7.741 17.29 17.29 0 0 1-1.708-10.844c.605-3.636 2.38-6.975 5.054-9.512 2.635-2.48 6.007-4.034 9.605-4.427a16.07 16.07 0 0 1 14.816 6.456h-3.612c-.114-.001-.225.038-.314.11s-.149.172-.172.284a.49.49 0 0 0 .046.329c.053.101.139.181.244.225l8.211 3.714c.204.091.426.133.649.123s.44-.072.635-.181.361-.261.487-.446.206-.396.235-.617l1.144-8.995a.49.49 0 0 0-.324-.543c-.109-.038-.229-.037-.337.004s-.199.118-.256.218l-2.241 3.714a20.79 20.79 0 0 0-6.934-6.017 20.37 20.37 0 0 0-12.763-2.053 20.11 20.11 0 0 0-11.298 5.923 19.79 19.79 0 0 0-5.327 11.376 19.23 19.23 0 0 0 2.501 12.006c2.122 3.622 5.371 6.449 9.251 8.051a18.94 18.94 0 0 0 11.941.784 18.48 18.48 0 0 0 9.84-6.456c-2.599 2.996-6.108 5.06-9.989 5.876l-.024-.023zm3.918-9.755h1.567a.53.53 0 0 0 .344-.11.71.71 0 0 0 .196-.219l5.508-8.775c.015-.036.023-.075.023-.114s-.008-.078-.023-.114-.039-.066-.071-.086-.071-.028-.109-.024h-1.567c-.123-.007-.245.029-.345.102a.78.78 0 0 0-.211.219l-5.485 8.799c-.015.035-.023.072-.023.11s.008.075.023.11c.009.038.032.071.063.094s.071.034.11.031v-.023zm-3.675-1.003c.022.029.051.052.083.068s.069.025.105.026h1.434a.32.32 0 0 0 .219-.094c.066-.05.11-.123.126-.204l.235-1.113h.846c.04.001.081-.006.118-.02s.072-.037.101-.066c.068-.05.115-.122.133-.204l.251-1.16c.006-.034.005-.069-.003-.103s-.023-.065-.044-.093a.23.23 0 0 0-.188-.094h-.83l.901-4.176a.3.3 0 0 0-.007-.107c-.01-.035-.026-.068-.048-.096s-.052-.05-.084-.065-.068-.022-.104-.021h-1.857c-.075-.015-.152-.015-.227 0-.083.037-.158.09-.22.157l-4.16 4.16a.93.93 0 0 0-.235.462l-.243 1.16c-.018.031-.027.066-.027.102s.009.071.027.102.051.051.084.066.068.022.104.02h3.643l-.235 1.113a.23.23 0 0 0 .025.115c.018.036.044.066.077.089V94.8zm-.964-3.056l2.006-1.998-.423 1.998h-1.583zm-13.421-9.089l-1.716-.987a.45.45 0 0 0-.171-.073c-.062-.012-.126-.011-.187.002a.46.46 0 0 0-.17.077c-.051.037-.093.084-.125.139a.46.46 0 0 0-.058.177.45.45 0 0 0 .018.186c.018.06.049.116.09.163s.092.086.149.113l1.716.987c.067.043.147.065.227.063.099-.001.196-.034.275-.095a.46.46 0 0 0 .161-.242c.025-.096.019-.198-.019-.29a.45.45 0 0 0-.19-.22zm31.818 4.701c-.024-.028-.054-.051-.088-.066s-.071-.022-.108-.02h-5.195c-.081.001-.159.032-.219.086a.35.35 0 0 0-.125.212l-.251 1.152c-.008.035-.009.071-.002.106s.021.068.041.098a.22.22 0 0 0 .073.087c.032.022.069.035.107.038h3.134l-3.526 5.484c-.028.07-.028.149 0 .219.012.044.039.081.076.106s.084.034.128.027h1.63a.32.32 0 0 0 .219-.086.83.83 0 0 0 .149-.18l3.526-5.484c.078-.118.141-.227.196-.321.04-.072.072-.148.094-.227l.219-1.011c.001-.035-.006-.07-.019-.102s-.034-.062-.059-.086v-.031zm-32.006 1.379c0-.121-.048-.236-.133-.321s-.201-.133-.321-.133h-3.08c-.12 0-.236.048-.321.133s-.133.201-.133.321.048.236.133.321.201.133.321.133h3.048c.063.004.125-.004.184-.025s.112-.054.158-.096a.45.45 0 0 0 .107-.151.47.47 0 0 0 .037-.181zm10.185-10.35v-3.048a.45.45 0 0 0-.133-.321c-.085-.085-.2-.133-.321-.133s-.236.048-.321.133a.45.45 0 0 0-.133.321v3.048a.45.45 0 0 0 .133.321c.085.085.201.133.321.133s.236-.048.321-.133a.45.45 0 0 0 .133-.321zm-11.869 17.456a.47.47 0 0 0 .227-.063l1.645-.948c.057-.027.107-.065.149-.113s.072-.103.09-.163a.45.45 0 0 0 .018-.186c-.007-.062-.027-.123-.059-.177s-.074-.102-.124-.139a.46.46 0 0 0-.357-.079.45.45 0 0 0-.171.073l-1.638.948c-.105.059-.182.158-.214.274a.45.45 0 0 0 .042.345c.04.068.097.125.166.165s.146.061.226.062zm5.774-16.516c.08-.001.158-.023.227-.063.104-.06.179-.16.21-.275s.014-.239-.045-.343l-.964-1.716c-.062-.102-.161-.176-.276-.207s-.239-.016-.343.042a.44.44 0 0 0-.134.116c-.037.047-.064.101-.079.159a.46.46 0 0 0-.011.177.47.47 0 0 0 .059.167l.988 1.716a.45.45 0 0 0 .155.16c.064.04.137.063.213.067z" class="C"/><use class="B" xlink:href="#F"/><use class="E" opacity=".3" xlink:href="#F"/><use class="B" xlink:href="#G"/><use class="C" opacity=".24" xlink:href="#G"/><path d="M117.056 110.242l-34.285 19.791a1.79 1.79 0 0 0-.783 1.395v32.648c0 .51.36.713.783.463l34.285-19.792a1.76 1.76 0 0 0 .557-.6 1.77 1.77 0 0 0 .227-.786v-32.656c0-.502-.353-.713-.784-.463z" class="B"/><path d="M96.944 149.676a4.9 4.9 0 0 1-2.468-.65c-2.053-1.191-3.236-3.917-3.236-7.396a20.42 20.42 0 0 1 2.758-9.88 17.88 17.88 0 0 1 1.959-2.766c.933-1.104 2.042-2.047 3.283-2.789 2.209-1.277 4.372-1.426 6.095-.439 2.061 1.191 3.244 3.918 3.244 7.404a20.46 20.46 0 0 1-2.758 9.872 15.15 15.15 0 0 1-5.218 5.563 7.31 7.31 0 0 1-3.659 1.081zm-.086-19.885a16.97 16.97 0 0 0-1.826 2.586 19.11 19.11 0 0 0-2.593 9.276c0 3.072.956 5.391 2.64 6.362 1.332.784 3.071.611 4.897-.438a14.04 14.04 0 0 0 4.811-5.117 19.26 19.26 0 0 0 2.593-9.276c0-3.079-.963-5.398-2.64-6.362-1.34-.784-3.079-.619-4.897.431a11.96 11.96 0 0 0-2.985 2.538zm7.663 5.743l-6.754 8.36c-.611.784-1.097.627-1.097-.274v-8.618c0-.901.486-1.567 1.097-1.567l6.73.603c.603.086.603.744.024 1.496z" class="C"/><use class="B" xlink:href="#H"/><use class="E" opacity=".3" xlink:href="#H"/><use class="B" xlink:href="#I"/><use class="C" opacity=".24" xlink:href="#I"/><path d="M438.636 304.676l-34.269 19.791a1.78 1.78 0 0 0-.557.6c-.136.241-.214.511-.227.787v32.648c0 .517.36.721.784.462l34.269-19.791a1.77 1.77 0 0 0 .784-1.387v-32.648c.016-.509-.345-.721-.784-.462z" class="B"/><path d="M429.203 325.384l-5.171 9.159 3.636 4.701-12.004-10.35-10.35 22.408v4.058c0 .501.353.705.784.454l30.956-17.871c.228-.15.417-.352.554-.589s.214-.502.229-.774v-3.307l-8.634-7.889zm2.492-7.052c.455-.292.834-.688 1.106-1.155s.43-.992.461-1.532c0-.987-.698-1.387-1.567-.893a3.39 3.39 0 0 0-1.107 1.155c-.273.467-.431.992-.46 1.532.015 1.018.705 1.418 1.567.924v-.031z" class="C"/><use class="B" xlink:href="#J"/><use class="C" opacity=".25" xlink:href="#J"/><use class="B" xlink:href="#K"/><use class="E J" xlink:href="#K"/><path d="M374.033 128.9c6.631-11.486 6.633-23.899.004-27.727s-17.379 2.381-24.01 13.867-6.633 23.9-.004 27.727 17.378-2.381 24.01-13.867z" class="B"/><path d="M346.941 137.218a10.28 10.28 0 0 1-5.25 10.522c-.109.064-.195.161-.244.279s-.058.246-.026.369a.58.58 0 0 0 .203.31c.1.078.223.121.349.123 2.231.085 4.441-.458 6.378-1.567 4.513-2.867 5.077-6.268 5.077-6.268l-6.487-3.768z" class="B"/><path d="M364.014 129.79v-15.043l-5.767 3.322v3.025l2.006-.643v11.533l-1.81 1.567v3.009l7.373-4.263v-3l-1.802.493zm-2.273-16.32c.667-.478 1.211-1.105 1.591-1.832s.584-1.532.595-2.352c0-1.614-.979-2.35-2.186-1.653a5.24 5.24 0 0 0-1.595 1.83c-.381.727-.586 1.533-.598 2.354 0 1.637.979 2.374 2.193 1.677v-.024z" class="H"/><use class="B" xlink:href="#L"/><use class="C" opacity=".25" xlink:href="#L"/><path d="M178.951 235.47a10.29 10.29 0 0 1 .97-6.084c.937-1.881 2.428-3.43 4.272-4.438a.57.57 0 0 0 .279-.643c-.032-.123-.103-.232-.203-.31a.57.57 0 0 0-.35-.121 11.89 11.89 0 0 0-6.386 1.606c-4.513 2.86-5.077 6.268-5.077 6.268l6.495 3.722z" class="B"/><use class="B" xlink:href="#M"/><use class="E J" xlink:href="#M"/><path d="M145.309 258.732c0 10.827 7.599 15.215 16.978 9.801s16.978-18.584 16.978-29.412-7.6-15.216-16.978-9.802-16.978 18.585-16.978 29.413z" class="B"/><path d="M169.009 242.388c0-4.568-3.008-6.535-6.722-4.396s-6.723 7.585-6.723 12.16v1.034c0 3.518 3.988 7.6 5.822 9.293.103.096.227.167.363.206a.89.89 0 0 0 .417.021.9.9 0 0 0 .382-.17c.112-.086.202-.197.264-.324 1.567-3.236 6.197-12.998 6.197-16.782v-1.042zm-6.722 7.49c-1.975 1.136-3.573.212-3.573-2.061a7.87 7.87 0 0 1 1.046-3.519 7.86 7.86 0 0 1 2.527-2.662c1.966-1.136 3.565-.212 3.565 2.06-.069 1.238-.427 2.442-1.046 3.516s-1.482 1.987-2.519 2.666z" class="H"/><use class="B" xlink:href="#N"/><use class="C L" xlink:href="#N"/><path d="M380.209 203.707l5.367 3.079c-.259-.094-.536-.124-.809-.088s-.533.14-.758.299l-19.313 11.149c-.679.438-1.236 1.038-1.622 1.748l-5.484-3.134c.391-.708.958-1.305 1.645-1.732l19.305-11.149a1.63 1.63 0 0 1 .811-.319c.294-.03.591.021.858.147z" class="C" opacity=".7"/><path d="M385.662 206.833c.049.024.094.056.133.094-.059-.046-.122-.088-.188-.125l.055.031z" class="C" opacity=".7"/><use class="B" xlink:href="#O"/><use class="C" opacity=".55" xlink:href="#O"/><path d="M372.405 238.141l3.087-1.779v-10.31l2.154-1.246.228-3.581-2.351 1.371v-1.966c0-.784.126-1.207.713-1.567l1.669-.964v-3.58l-2.131 1.23a6.26 6.26 0 0 0-2.524 2.443c-.592 1.038-.874 2.224-.814 3.417v2.75l-1.606.925v3.494l1.606-.924-.031 10.287z" class="C"/><use class="B" xlink:href="#P"/><use class="C L" xlink:href="#P"/><path d="M426.851 176.873l5.359 3.071a1.7 1.7 0 0 0-1.567.212l-19.305 11.149c-.692.431-1.261 1.032-1.653 1.747l-5.485-3.134c.392-.708.958-1.304 1.646-1.731l19.305-11.15c.241-.179.527-.289.827-.318s.601.024.873.154z" class="C" opacity=".7"/><use class="B" xlink:href="#Q"/><use class="C" opacity=".55" xlink:href="#Q"/><path d="M425.025 201.413a21.3 21.3 0 0 0 1.857-8.783c.604-.94 1.113-1.937 1.52-2.978-.521.611-1.107 1.162-1.747 1.646a8.07 8.07 0 0 0 1.332-3.017c-.556.775-1.203 1.48-1.928 2.1-.321-.239-.712-.368-1.112-.368s-.791.129-1.113.368c-1.959 1.136-3.408 4.411-2.962 6.691-2.53 1.293-4.771.972-6.267-.619-.784 2.288-.416 4.45.94 4.873-.415.247-.9.349-1.379.29 0 1.896.979 3.072 2.436 2.625-.389.383-.856.678-1.371.862.046.306.171.596.361.84a1.8 1.8 0 0 0 1.635.675c.307-.038.6-.155.848-.34-1.033 1.849-2.604 3.341-4.505 4.278a6.06 6.06 0 0 0 2.418.053 6.03 6.03 0 0 0 2.244-.899c3.009-1.74 5.32-4.874 6.793-8.274" class="C"/><path d="M185.502 135.902a1.04 1.04 0 0 0-.509-.126l-8.516-.603v11.024l4.646 2.687 9.19-8.618a1.03 1.03 0 0 0 .277-.391c.06-.15.084-.313.069-.474a1.02 1.02 0 0 0-.153-.454c-.086-.137-.203-.252-.342-.335l-4.662-2.71z" class="N"/><path d="M103.196 228.815a3.05 3.05 0 0 0 .403 1.363c.24.417.574.771.976 1.034l1.129.65a3.12 3.12 0 0 0 1.252.326c.436.02.871-.05 1.278-.208-.65.243-1.144-.125-1.144-.917v-58.707a2.85 2.85 0 0 1 .408-1.363l-3.918-2.249c-.243.415-.38.883-.399 1.363l.015 58.708z" class="D"/><path d="M112.779 228.924l-4.497 2.601a.94.94 0 0 1-.181.086h-.047c-.07.01-.141.01-.211 0-.321 0-.368-.376-.368-.603v-58.652a2.7 2.7 0 0 1 1.183-2.061l74.432-42.959a.88.88 0 0 1 .423-.133c.07 0 .25 0 .329.306a1.28 1.28 0 0 1 .039.29v58.707a1.76 1.76 0 0 1-.181 1.167c-.192.357-.502.636-.877.791l-65.445 37.796-4.599 2.664z" class="H"/><path d="M183.505 127.604c.008.065.008.131 0 .196v58.707c0 .783 0 1.136-.862 1.622l-65.461 37.795-4.599 2.664-4.513 2.602-.102.054a.63.63 0 0 1 0-.203v-58.684a2.08 2.08 0 0 1 .306-.979 2.01 2.01 0 0 1 .682-.737l74.431-42.959c.059-.035.123-.061.189-.078h-.071zm.118-.784c-.22.009-.433.073-.619.188l-74.565 42.951a2.76 2.76 0 0 0-.972 1.035 2.82 2.82 0 0 0-.407 1.363v58.707c0 .627.305.995.783.995.115-.002.229-.023.337-.062h.047c.085-.032.166-.071.243-.118l4.505-2.586 4.599-2.663 65.484-37.788c.435-.191.795-.52 1.022-.937a2.14 2.14 0 0 0 .232-1.367V127.8c-.001-.132-.016-.264-.047-.392a.72.72 0 0 0-.248-.428c-.13-.109-.295-.168-.465-.167l.071.007z" class="D"/><path d="M181.122 137.86l8.524.596c.207.003.409.068.578.188s.298.287.37.481a1.03 1.03 0 0 1 .033.606 1.02 1.02 0 0 1-.315.519l-9.19 8.618V137.86z" class="H"/><path d="M189.646 138.456l-6.119-.596v.784l6.119.603c.049.001.096.017.136.045a.25.25 0 0 1 .086.114c.017.045.02.095.008.142s-.037.09-.073.122l-6.268 6.111v1.035l6.785-6.558c.163-.135.28-.318.334-.522s.044-.421-.03-.619-.208-.368-.383-.486-.383-.18-.595-.175z" class="D"/><path d="M184.264 127.439c-.164-.587-.697-.783-1.339-.407l-74.487 42.935c-.41.252-.746.609-.972 1.034l-3.917-2.248c.23-.422.565-.778.971-1.034l74.432-42.967c.429-.216.903-.329 1.383-.329s.954.113 1.383.329l1.128.658a3.02 3.02 0 0 1 1.418 2.029z" class="N"/><path d="M119.187 182.927c.023.295.023.591 0 .886.023.31.023.622 0 .932l-4.223 2.445c-.043-.293-.059-.59-.047-.886a6.05 6.05 0 0 1 .047-.932l1.308-.737v-9.213l-1.096.626a5.35 5.35 0 0 1 0-.877c-.02-.311-.02-.622 0-.932l3.658-2.116 3.471 6.605v-6.793l-1.089.635c-.023-.295-.023-.591 0-.886-.02-.31-.02-.622 0-.932l4.145-2.398c.036.294.049.59.039.886a6.31 6.31 0 0 1-.039.932l-1.23.713v11.008l-2.029 1.175-4.004-7.529v8.031l1.089-.643zm14.48-19.368v3.134c-.214.159-.436.305-.666.438a5.2 5.2 0 0 1-.698.345v-1.34l-3.283 1.896v3.338l1.567-.901v-1.332a5.8 5.8 0 0 1 .682-.447 2.93 2.93 0 0 1 .658-.321v4.513c-.202.168-.423.313-.658.431a4.08 4.08 0 0 1-.682.337v-1.379l-1.567.901v4.074l3.424-1.974v-1.708a6.18 6.18 0 0 1 .69-.455c.218-.125.443-.238.674-.337v3.526l-7.835 4.521c-.036-.291-.052-.584-.047-.878a6.91 6.91 0 0 1 .047-.932l1.222-.713v-9.182l-1.089.626c-.02-.294-.02-.59 0-.885v-.932l7.561-4.364zm6.432-1.348l1.896-1.097 1.7 7.483.094-.055 1.027-9.598-1.097.627v-.925-.893l3.706-2.139a5.42 5.42 0 0 1 .047.854 6.75 6.75 0 0 1-.047.964l-.948.548c-.345 3.918-1.309 11.753-1.309 11.753l-2.781 1.606-1.403-6.19-1.402 7.835-2.782 1.567s-1.034-6.542-1.292-10.256l-.956.549v-.933-.885l3.855-2.225c.019.282.019.564 0 .846.019.324.019.648 0 .972l-1.09.626c.189 3.268.996 8.439.996 8.439l.094-.055 1.692-9.418zm14.017-7.074c-.228.175-.469.332-.721.47a5.31 5.31 0 0 1-.784.392v-1.285s-.478-.22-1.394.305c-.449.288-.824.677-1.096 1.135a3.43 3.43 0 0 0-.471 1.506c0 .634.149 1.222.783 1.12l1.787-.266c.955-.134 2.397 0 2.397 2.35a6.54 6.54 0 0 1-.971 3.368 6.55 6.55 0 0 1-2.57 2.383c-2.194 1.269-3.189.298-3.189.298V164.5c.23-.171.471-.328.721-.471a6.35 6.35 0 0 1 .783-.391v1.363s.509.36 1.692-.321c.508-.257.935-.648 1.238-1.13a3.13 3.13 0 0 0 .478-1.605c0-.932-.587-1.23-1.214-1.136l-1.943.29c-1.348.196-1.787-.822-1.787-2.405a7.17 7.17 0 0 1 1.029-3.235 7.16 7.16 0 0 1 2.403-2.398 3.21 3.21 0 0 1 1.421-.451 3.2 3.2 0 0 1 1.47.239l-.062 2.288z" class="F"/><path d="M177.206 138.127l-19.329 11.165v13.115l19.329-11.157v-13.123z" class="D"/><path d="M177.205 158.89l-62.201 35.915v-3.393l62.201-35.915v3.393z" class="B"/><path d="M115.003 223.159c-.033.007-.068.007-.101 0-.029-.019-.052-.044-.069-.074a.21.21 0 0 1-.025-.098v-25.816a.21.21 0 0 1 .025-.098c.017-.03.04-.056.069-.075l26.443-15.246c.03-.016.063-.023.097-.023s.068.007.098.023.054.043.071.073.024.064.023.099v25.761c.001.035-.007.069-.023.099s-.041.056-.071.074l-26.442 15.278c-.029.016-.062.024-.095.023zm.196-25.855v25.315l26.044-15.051v-25.284l-26.044 15.02zm1.803 2.1c-.039-.001-.078-.011-.112-.03s-.063-.047-.084-.08c-.028-.052-.035-.113-.019-.17s.054-.106.105-.135l22.439-12.967a.22.22 0 0 1 .081-.029c.029-.005.058-.003.086.004s.054.019.077.036.043.039.058.063.025.052.029.081.003.058-.004.086-.019.054-.036.077-.039.043-.063.058l-22.447 12.975c-.033.021-.071.032-.11.031z" class="D"/><path d="M117.001 202.162c-.039-.002-.078-.014-.112-.034s-.063-.049-.084-.083a.22.22 0 0 1-.018-.167c.016-.056.054-.103.105-.131l22.439-12.975c.051-.027.111-.034.168-.02s.105.05.137.099.038.111.023.168a.23.23 0 0 1-.101.137l-22.447 12.975c-.034.017-.071.028-.11.031z" class="D"/><path d="M117.001 204.912c-.039-.001-.077-.011-.112-.03s-.063-.047-.084-.08a.22.22 0 0 1-.018-.167c.016-.056.054-.103.105-.131l22.439-12.974a.23.23 0 0 1 .168-.023c.057.015.107.051.137.101s.037.109.022.165-.05.103-.1.133l-22.447 12.974c-.033.021-.071.032-.11.032z" class="D"/><path d="M117.002 207.67a.23.23 0 0 1-.112-.029c-.034-.02-.063-.047-.084-.08a.23.23 0 0 1-.019-.171c.016-.057.054-.105.105-.135l22.439-12.974c.053-.029.114-.036.171-.02a.23.23 0 0 1 .135.106.22.22 0 0 1 .022.165c-.015.055-.051.103-.1.133l-22.447 12.974c-.035.018-.072.028-.11.031z" class="D"/><path d="M117.001 210.42c-.039 0-.077-.011-.112-.03s-.063-.047-.084-.08c-.028-.051-.034-.111-.018-.166s.054-.103.105-.131l22.439-12.975c.051-.03.112-.039.169-.024s.106.051.136.102.039.112.025.169-.052.107-.103.137l-22.447 12.967c-.033.021-.071.032-.11.031z" class="D"/><path d="M117.002 213.178c-.039 0-.078-.01-.112-.03s-.063-.046-.084-.079c-.028-.052-.035-.114-.019-.171s.054-.105.105-.135l22.439-12.975c.053-.028.114-.035.171-.019s.105.054.135.106a.22.22 0 0 1 .022.165c-.015.055-.051.103-.1.132l-22.447 12.975c-.033.021-.071.032-.11.031zm-.001 2.75c-.039-.001-.077-.011-.112-.03a.23.23 0 0 1-.084-.08.22.22 0 0 1 .087-.298l22.439-12.974c.025-.015.053-.025.082-.029s.059-.003.087.005.055.02.078.037a.21.21 0 0 1 .058.065c.015.025.025.053.029.082s.003.059-.004.087a.24.24 0 0 1-.103.137l-22.447 12.974c-.035.016-.072.024-.11.024z" class="D"/><path d="M117.001 218.686c-.039 0-.077-.011-.112-.03a.23.23 0 0 1-.084-.08c-.028-.051-.034-.11-.018-.166s.054-.103.105-.131l22.439-12.975a.22.22 0 0 1 .082-.03c.029-.004.059-.003.087.004s.056.021.079.039a.21.21 0 0 1 .057.065c.029.05.037.11.022.165a.22.22 0 0 1-.1.133l-22.447 12.975c-.033.021-.071.032-.11.031zm60.204-31.426l-32.249 18.616v-25.973l32.249-18.616v25.973z" class="D"/><path d="M147.228 180.647l28.033-16.179c.392-.227.713-.047.713.415v20.449a1.56 1.56 0 0 1-.207.705c-.124.216-.298.398-.506.533l-28.033 16.18c-.392.227-.713 0-.713-.416v-20.449c.012-.248.083-.49.207-.705s.297-.398.506-.533z" class="C"/><use class="B" xlink:href="#R"/><g class="C" opacity=".5"><use opacity=".5" xlink:href="#R"/></g><use class="D" xlink:href="#S"/><use class="E" opacity=".1" xlink:href="#S"/><path d="M354.768 333.499l-4.333 2.609-.173.086h-.047a.63.63 0 0 1-.203 0c-.306 0-.353-.376-.353-.596v-58.769c.017-.411.133-.811.337-1.168.18-.36.45-.667.784-.893l71.744-42.99c.12-.084.261-.133.407-.141.071 0 .243 0 .322.305a1.28 1.28 0 0 1 0 .29v58.817a1.78 1.78 0 0 1-.166 1.161c-.185.357-.486.641-.853.806l-63.024 37.819-4.442 2.664z" class="H"/><path d="M422.923 232.036v.196 58.817c0 .784 0 1.136-.831 1.63l-63.087 37.811-4.442 2.672-4.348 2.609-.102.055h-.039c-.011-.068-.011-.136 0-.204v-58.793a2.19 2.19 0 0 1 .297-.987 2.01 2.01 0 0 1 .651-.737l71.752-42.99c.055-.036.116-.062.18-.079h-.031zm.07-.783c-.211.011-.416.075-.595.188l-71.784 42.99c-.397.257-.718.613-.932 1.034-.244.415-.382.883-.4 1.364v58.817c0 .626.306.995.737.995a.98.98 0 0 0 .321-.063h.047a1.29 1.29 0 0 0 .235-.118l4.333-2.601 4.442-2.671 63.095-37.812a2.17 2.17 0 0 0 1.206-2.311v-58.833a1.66 1.66 0 0 0-.047-.391.69.69 0 0 0-.689-.596l.031.008z" class="D"/><path d="M423.659 231.841c-.157-.588-.674-.784-1.293-.408l-71.744 42.998c-.399.256-.724.613-.94 1.035l-3.753-2.249a2.75 2.75 0 0 1 .94-1.034l71.737-42.998c.412-.217.87-.33 1.335-.33s.924.113 1.336.33l1.089.658a3.06 3.06 0 0 1 .848.868c.222.343.373.727.445 1.13z" class="N"/><path d="M345.538 282.815l-6.072 6.535a.9.9 0 0 0-.199.339c-.041.127-.053.261-.036.393a.91.91 0 0 0 .135.37c.072.112.168.206.281.277l4.497 2.695a.78.78 0 0 0 .54.125l5.36-.666v-7.357l-4.506-2.711z" class="D"/><path d="M350.035 285.519l-6.072 6.534c-.122.13-.202.294-.229.47a.89.89 0 0 0 .076.518c.078.161.202.295.356.384s.332.13.51.117l5.359-.666v-7.357z" class="H"/><path d="M344.395 292.483c-.033.037-.054.082-.063.131a.26.26 0 0 0 .016.143c.017.045.046.084.086.112s.085.044.133.045l5.484-.658v.619l-5.374.658c-.178.014-.355-.025-.509-.114a.88.88 0 0 1-.354-.383.87.87 0 0 1-.074-.517c.028-.175.109-.338.231-.467l5.32-5.727v-1.637h.784v1.708l-5.68 6.087zm72.128-50.276l-18.639 11.18v13.14l18.639-11.181v-13.139z" class="D"/><path d="M416.523 263.001l-59.976 35.962v-3.4l59.976-35.962v3.4z" class="B"/><path d="M356.546 328.14c-.03.008-.063.008-.094 0-.03-.015-.056-.038-.074-.067s-.028-.063-.027-.097V302.16c-.001-.034.008-.066.024-.095s.041-.053.07-.07l25.494-15.301c.028-.02.061-.03.095-.03a.16.16 0 0 1 .094.03c.03.014.056.038.074.067s.028.063.027.097v25.801c-.001.032-.011.064-.027.093s-.039.053-.067.071l-25.495 15.302c-.029.013-.061.018-.094.015zm.189-25.855v25.346l25.071-15.066v-25.378l-25.071 15.098zm1.731 2.069a.2.2 0 0 1-.104-.031c-.032-.019-.058-.046-.076-.079-.027-.05-.033-.109-.019-.164a.22.22 0 0 1 .098-.133l21.64-12.998a.2.2 0 0 1 .079-.026c.028-.003.057 0 .084.008a.21.21 0 0 1 .074.039.24.24 0 0 1 .053.065.22.22 0 0 1 .021.165c-.014.055-.05.103-.1.132l-21.64 12.991c-.032.022-.071.033-.11.031z" class="D"/><path d="M358.466 307.112a.21.21 0 0 1-.104-.031c-.032-.019-.058-.046-.076-.079-.027-.05-.033-.109-.019-.164s.049-.103.098-.133l21.64-12.991c.023-.015.05-.025.078-.029s.057-.003.084.005.052.02.074.038a.2.2 0 0 1 .054.065.22.22 0 0 1 .021.165c-.014.055-.05.103-.1.132l-21.64 12.991c-.032.022-.071.033-.11.031z" class="D"/><path d="M358.466 309.87a.21.21 0 0 1-.104-.031c-.032-.019-.058-.046-.076-.079-.027-.05-.033-.109-.019-.164s.049-.103.098-.134l21.64-12.99c.023-.015.05-.025.078-.029s.057-.003.084.004a.21.21 0 0 1 .074.039c.022.017.041.039.054.064.028.05.036.11.021.165s-.05.104-.1.133l-21.64 12.99c-.032.022-.071.033-.11.032z" class="D"/><path d="M358.466 312.627a.21.21 0 0 1-.104-.031c-.032-.019-.058-.047-.076-.079-.027-.05-.033-.109-.019-.164s.049-.103.098-.134l21.64-12.99c.023-.015.05-.025.078-.029s.057-.003.084.004.052.021.074.038.041.04.054.065a.22.22 0 0 1 .021.165c-.014.056-.05.104-.1.133l-21.64 12.998a.26.26 0 0 1-.11.024z" class="D"/><path d="M358.466 315.385a.2.2 0 0 1-.104-.031.21.21 0 0 1-.076-.078.23.23 0 0 1-.019-.165c.015-.055.049-.102.098-.133l21.64-12.991c.024-.014.05-.023.078-.026a.21.21 0 0 1 .083.005c.027.008.052.02.074.037s.041.039.055.063a.22.22 0 0 1 .021.165c-.014.055-.05.103-.1.133l-21.64 12.998c-.034.016-.072.024-.11.023z" class="D"/><path d="M358.466 318.143a.2.2 0 0 1-.104-.031c-.032-.019-.058-.046-.076-.079-.027-.05-.033-.109-.019-.164s.049-.103.098-.133l21.64-12.991c.024-.014.05-.023.078-.026a.21.21 0 0 1 .083.005c.027.007.052.02.074.037s.041.038.055.063c.029.051.037.111.022.168a.23.23 0 0 1-.101.137l-21.64 12.991c-.034.016-.072.024-.11.023z" class="D"/><path d="M358.466 320.909a.23.23 0 0 1-.105-.035c-.032-.021-.057-.049-.075-.083-.027-.05-.033-.109-.019-.164s.049-.103.098-.134l21.64-12.99c.024-.014.05-.023.078-.027s.056-.001.083.006.052.02.074.037.041.038.055.062c.029.052.037.112.022.169a.23.23 0 0 1-.101.137l-21.64 12.99a.25.25 0 0 1-.11.032zm0 2.758c-.037 0-.073-.011-.105-.03a.21.21 0 0 1-.075-.079.24.24 0 0 1-.02-.168c.015-.057.05-.106.098-.138l21.64-12.99c.024-.014.051-.023.079-.027s.056-.002.083.006.052.02.074.037.04.038.054.062c.029.051.037.112.023.169a.23.23 0 0 1-.101.137l-21.64 12.99c-.034.019-.072.029-.11.031zm58.058-31.473l-31.097 18.647v-26.012l31.097-18.64v26.005z" class="D"/><use class="B" xlink:href="#T"/><g class="C" opacity=".5"><use opacity=".5" xlink:href="#T"/></g><path d="M356.805 281.539l1.261-.784.071-1.512 1.512-.901v9.277l-.886.783v1.567l3.416-2.045v-1.567l-.877.259v-9.245l1.512-.909.071 1.434 1.261-.784v-3.51l-7.341 4.427v3.51zm19.587-15.27l-2.828 1.692-.878.525v1.567l.878-.259v9.488l-.878.784v1.567l3.706-2.194a6.57 6.57 0 0 0 2.492-3.032 10.71 10.71 0 0 0 .979-4.536v-2.186c0-1.607-.329-2.727-.979-3.369s-1.473-.651-2.492-.047zm1.81 6.589a7.51 7.51 0 0 1-.502 2.813 3.53 3.53 0 0 1-1.394 1.794l-1.089.65v-9.104l1.089-.658c.595-.353 1.058-.314 1.394.125a3.65 3.65 0 0 1 .502 2.186v2.194zm13.257-15.623v1.567l.666-.243-1.278 5.085-1.277-3.557.674-.556v-1.567l-3.134 1.864v1.567l.698-.235 2.201 5.312v2.915l-.885.783v1.567l3.416-2.045v-1.567l-.886.259v-2.781l2.241-8.11.698-.595v-1.567l-3.134 1.904zm-6.425 3.855l-1.692 1.01-2.508 12.959-.587.486v1.567l2.805-1.684v-1.567l-.572.18.36-2.022 2.672-1.567.36 1.567-.572.51v1.567l2.844-1.708v-1.567l-.587.219-2.523-9.95zm-1.802 8.744l.924-5.195h.04l.924 4.082-1.888 1.113zm-14.957 1.112a6.93 6.93 0 0 0-2.687 3.51c-.694 1.712-1.043 3.544-1.027 5.391v.203c0 1.928.337 3.314 1.027 4.168s1.567.941 2.695.275a7.05 7.05 0 0 0 2.711-3.518 14.11 14.11 0 0 0 1.034-5.406v-.196c0-1.922-.347-3.307-1.042-4.153s-1.596-.937-2.703-.274h-.008zm2.108 5.61c.018 1.242-.159 2.48-.525 3.667a3.92 3.92 0 0 1-1.567 2.217c-.69.415-1.207.298-1.567-.345a6.71 6.71 0 0 1-.517-3.04v-.211a11.68 11.68 0 0 1 .509-3.644c.239-.897.796-1.676 1.567-2.193.697-.416 1.222-.306 1.567.337.414.94.597 1.967.533 2.993v.219z" class="F"/><path d="M404.339 286.123l-4.701-.439c-.423-.039-.783.462-.783 1.121v6.267c0 .659.344.745.783.196l4.701-6.087c.431-.541.431-1.019 0-1.058zm.596-6.049c-1.207-.72-2.727-.611-4.271.322-.874.544-1.653 1.23-2.303 2.029a13.04 13.04 0 0 0-1.371 2.013 15.25 15.25 0 0 0-1.928 7.177c.001 2.562.823 4.521 2.265 5.383a3.32 3.32 0 0 0 1.724.47c.904-.026 1.784-.297 2.546-.784 1.546-1.016 2.81-2.406 3.674-4.042 1.222-2.201 1.884-4.668 1.928-7.185 0-2.554-.823-4.513-2.264-5.383zm-.392 12.129a10.03 10.03 0 0 1-3.361 3.729c-1.277.784-2.5.878-3.44.314-1.167-.705-1.849-2.39-1.849-4.631.043-2.365.67-4.682 1.826-6.746.365-.665.792-1.295 1.277-1.88a8.48 8.48 0 0 1 2.084-1.841c1.277-.784 2.499-.878 3.431-.314 1.176.698 1.849 2.39 1.849 4.623-.039 2.364-.663 4.682-1.817 6.746z" class="C"/><path d="M238.224 83.332l-2.86-1.653c-.057-.021-.105-.063-.133-.118l-.525-.917 1.7-.995-.055.149 1.873 3.534zm-20.167.838a3.04 3.04 0 0 0 .405 1.365c.241.416.577.77.981 1.032l1.121.65a3.13 3.13 0 0 0 1.253.326 3.15 3.15 0 0 0 1.278-.208c-.651.243-1.144-.125-1.144-.917v-13.82a2.84 2.84 0 0 1 .407-1.363l-3.917-2.249a2.85 2.85 0 0 0-.408 1.371l.024 13.813z" class="D"/><path d="M236.485 79.649c-.052-.089-.136-.153-.235-.18h-.102c-.07-.002-.138.017-.196.055l-12.81 7.349c-.057.037-.117.069-.18.094s-.14.04-.212.039c-.321 0-.368-.376-.368-.596V72.598c.029-.41.151-.809.356-1.166a2.73 2.73 0 0 1 .827-.895l30.478-17.589c.127-.08.273-.126.423-.133.07 0 .251 0 .329.298.025.097.038.197.039.298v13.813a1.77 1.77 0 0 1-.18 1.171c-.192.358-.502.639-.878.796l-13.178 7.616a.37.37 0 0 0-.18.212l-2.022 5.837-1.911-3.204z" class="H"/><path d="M254.379 53.183c.008.065.008.131 0 .196v13.844c0 .784 0 1.136-.862 1.63l-13.186 7.616a.78.78 0 0 0-.345.415l-1.739 5.03-1.45-2.499a.78.78 0 0 0-.47-.36.64.64 0 0 0-.203 0 .78.78 0 0 0-.392.11l-12.795 7.38-.109.055h-.071c-.007-.065-.007-.131 0-.196V72.598a2.01 2.01 0 0 1 .314-.979 1.93 1.93 0 0 1 .673-.736l30.423-17.629c.059-.033.122-.057.188-.071h.024zm.023-.783a1.19 1.19 0 0 0-.618.188l-30.455 17.582a2.76 2.76 0 0 0-.971 1.034c-.25.412-.39.882-.408 1.363v13.852c0 .627.314.987.784.987.114 0 .228-.018.337-.055h.047c.084-.031.166-.071.242-.118l12.787-7.428 1.974 3.424c.027.045.064.083.11.109s.097.04.149.04a.29.29 0 0 0 .173-.052c.051-.035.089-.086.109-.144l2.092-6.041 13.178-7.616a2.14 2.14 0 0 0 1.254-2.303V53.379c-.001-.132-.016-.263-.047-.392a.72.72 0 0 0-.713-.596l-.024.008z" class="D"/><path d="M255.139 53.011c-.164-.588-.697-.784-1.332-.407l-30.47 17.574c-.412.251-.75.608-.979 1.034l-3.918-2.249a2.78 2.78 0 0 1 1.003-1.066L249.906 50.3c.428-.216.902-.329 1.382-.329a3.07 3.07 0 0 1 1.383.329l1.136.65c.353.233.654.536.883.89a3.05 3.05 0 0 1 .449 1.17z" class="N"/><path d="M232.34 71.47a3.92 3.92 0 0 0-1.245 1.318 3.93 3.93 0 0 0-.518 1.737c0 1.12.784 1.567 1.763 1.011a3.92 3.92 0 0 0 1.243-1.315c.306-.529.484-1.123.52-1.733 0-1.12-.791-1.575-1.763-1.018zm5.884-3.368a3.92 3.92 0 0 0-1.243 1.315c-.306.529-.484 1.123-.52 1.733 0 1.128.783 1.567 1.763 1.019a3.92 3.92 0 0 0 1.243-1.315c.306-.529.484-1.123.52-1.733 0-1.128-.792-1.583-1.763-1.018zm5.892-3.339a3.88 3.88 0 0 0-1.248 1.312c-.307.53-.483 1.125-.514 1.736 0 1.12.783 1.567 1.762 1.019a3.92 3.92 0 0 0 1.239-1.316 3.9 3.9 0 0 0 .516-1.732c0-1.16-.783-1.614-1.755-1.019z" class="F"/><path d="M283.321 117.783a3.05 3.05 0 0 0 .403 1.364c.24.417.574.771.976 1.034l1.129.65a3.12 3.12 0 0 0 1.252.326 3.15 3.15 0 0 0 1.278-.208c-.65.25-1.144-.126-1.144-.917V94.373a2.84 2.84 0 0 1 .4-1.363l-3.918-2.249a2.84 2.84 0 0 0-.399 1.363l.023 25.659z" class="D"/><path d="M292.904 117.893l-4.497 2.601a.94.94 0 0 1-.181.086h-.047c-.07.01-.141.01-.211 0-.321 0-.368-.376-.368-.603V94.373a2.7 2.7 0 0 1 .353-1.167c.205-.357.489-.663.83-.893l26.638-15.356c.126-.084.272-.133.424-.141.07 0 .25 0 .329.306a1.29 1.29 0 0 1 .039.29v25.659a1.76 1.76 0 0 1-1.058 1.967l-17.629 10.185-4.622 2.672z" class="H"/><path d="M315.773 77.213c.008.065.008.131 0 .196v25.659c0 .784 0 1.137-.862 1.63l-17.628 10.186-4.607 2.663-4.505 2.609a.41.41 0 0 1-.11.047h-.039a.63.63 0 0 1 0-.203V94.372c.018-.347.123-.684.305-.979a1.96 1.96 0 0 1 .682-.736l26.576-15.356a.74.74 0 0 1 .188-.078v-.008zm.047-.776a1.27 1.27 0 0 0-.619.188L288.563 91.99c-.409.254-.744.611-.972 1.034a2.82 2.82 0 0 0-.407 1.363v25.66c0 .634.305.995.783.995.115-.003.229-.025.337-.063h.047a1.36 1.36 0 0 0 .243-.117l4.497-2.602 4.599-2.663 17.629-10.186c.435-.19.794-.52 1.021-.937s.309-.898.232-1.366V77.409a1.67 1.67 0 0 0-.047-.392.72.72 0 0 0-.247-.428c-.131-.109-.296-.168-.466-.168l.008.016z" class="D"/><path d="M316.534 77.018c-.157-.588-.698-.783-1.332-.407l-26.639 15.372a2.74 2.74 0 0 0-.972 1.026l-3.917-2.241c.252-.432.614-.789 1.05-1.034l26.599-15.364c.429-.216.903-.329 1.383-.329a3.07 3.07 0 0 1 1.383.329l1.136.65c.341.228.633.522.858.865s.378.728.451 1.132z" class="N"/><path d="M295.583 108.412c-.2.002-.398-.05-.572-.149-.245-.176-.44-.413-.564-.688s-.172-.579-.141-.879V96.103c.007-.636.165-1.262.462-1.825s.724-1.047 1.246-1.411l13.406-7.733a1.33 1.33 0 0 1 .667-.225c.238-.014.476.037.688.146a1.7 1.7 0 0 1 .713 1.567v10.585c-.008.636-.166 1.261-.463 1.824a4.02 4.02 0 0 1-1.245 1.412l-.838.478v2.805a1.57 1.57 0 0 1-.643 1.238.68.68 0 0 1-.673.062l-3.134-1.567-8.11 4.701a1.63 1.63 0 0 1-.799.251zm14.62-22.808a.87.87 0 0 0-.423.133l-13.405 7.741a3.32 3.32 0 0 0-.982 1.154 3.33 3.33 0 0 0-.366 1.47v10.624a1.07 1.07 0 0 0 .059.505c.06.161.158.305.286.42a.67.67 0 0 0 .331.043.69.69 0 0 0 .311-.121l8.274-4.78c.052-.027.11-.041.168-.041s.117.014.169.041l3.314 1.614a1.09 1.09 0 0 0 .282-.65v-3.009a.36.36 0 0 1 .048-.181c.032-.055.077-.1.132-.132l1.019-.588a3.32 3.32 0 0 0 .977-1.147 3.31 3.31 0 0 0 .37-1.462V86.576a1.05 1.05 0 0 0-.061-.502c-.062-.16-.162-.302-.291-.414a.41.41 0 0 0-.212-.055z" class="F"/><path d="M294.056 115.134h-.149c-.126-.041-.235-.124-.308-.235a.58.58 0 0 1-.091-.376v-1.238l-.086.047a.97.97 0 0 1-.483.161c-.172.01-.343-.027-.497-.107-.172-.119-.31-.282-.4-.472s-.127-.4-.109-.609v-6.573a2.6 2.6 0 0 1 .307-1.195c.196-.368.478-.684.821-.921l1.426-.783a.36.36 0 0 1 .276-.04c.046.013.089.035.126.064a.36.36 0 0 1 .092.109.38.38 0 0 1 .045.134c.006.047.003.095-.009.14a.36.36 0 0 1-.063.127c-.029.038-.065.069-.106.093l-1.426.822a1.93 1.93 0 0 0-.563.655c-.136.257-.211.543-.221.834v6.573c0 .259.079.416.149.455s.204 0 .259-.047l.626-.368a.36.36 0 0 1 .181-.049c.063 0 .126.017.18.049s.101.077.132.132a.36.36 0 0 1 .048.181v1.418l1.88-3.071c.027-.055.071-.099.126-.126l4.489-2.593c.236-.174.429-.398.565-.658s.21-.546.219-.838v-2.147a.38.38 0 0 1 .01-.157c.015-.05.041-.097.075-.137a.37.37 0 0 1 .126-.095c.048-.022.1-.033.153-.033s.105.011.153.033.091.055.126.095.06.087.075.137a.38.38 0 0 1 .01.157v2.147a2.64 2.64 0 0 1-.307 1.198c-.196.369-.478.686-.821.925l-4.411 2.546-1.998 3.283a.79.79 0 0 1-.27.253.8.8 0 0 1-.357.1zm14.353-23.206l-11.024 6.362c-.321.188-.579 0-.579-.431a1.38 1.38 0 0 1 .159-.617c.1-.19.245-.355.42-.48l11.024-6.362c.314-.188.572 0 .572.431a1.38 1.38 0 0 1-.572 1.097zm0 4.755l-11.024 6.37c-.321.18-.579 0-.579-.439a1.35 1.35 0 0 1 .158-.615 1.34 1.34 0 0 1 .421-.474l11.024-6.37c.314-.18.572 0 .572.431a1.38 1.38 0 0 1-.156.616c-.099.191-.242.355-.416.481z" class="F"/><path d="M313.713 82.853c-.017.974-.261 1.931-.712 2.795a6.28 6.28 0 0 1-1.889 2.18c-1.442.784-2.601-.055-2.601-1.967.013-.975.255-1.933.707-2.798s1.101-1.61 1.894-2.178c1.449-.823 2.601.055 2.601 1.967z" class="B"/><path d="M283.33 100.35l-6.307 6.526a.88.88 0 0 0-.202.339c-.041.126-.053.26-.034.392a.88.88 0 0 0 .138.368c.074.111.171.204.286.272l4.653 2.688c.165.106.362.15.557.125l5.563-.666v-7.349l-4.654-2.695z" class="N"/><path d="M287.991 103.045l-6.268 6.526a.89.89 0 0 0-.232.477c-.027.179.002.362.082.524a.88.88 0 0 0 .887.488l5.563-.666-.032-7.349z" class="H"/><path d="M282.139 110.011c-.036.034-.06.079-.071.127a.25.25 0 0 0 .013.146c.018.046.05.086.091.114s.09.043.14.044l5.68-.659v.619l-5.571.658a.87.87 0 0 1-.521-.098.88.88 0 0 1-.451-.907.87.87 0 0 1 .236-.475l5.531-5.72v-1.637H288v1.716l-5.861 6.072z" class="D"/><use class="B" xlink:href="#U"/><use class="E K" xlink:href="#U"/><path d="M394.028 157.999a4.77 4.77 0 0 0-.632-2.122 4.76 4.76 0 0 0-1.523-1.607l-1.755-.972a4.78 4.78 0 0 0-4.301 0l-46.712 27c-.626.409-1.147.96-1.52 1.608s-.588 1.374-.627 2.121v20.982c.04.745.255 1.471.628 2.117a4.75 4.75 0 0 0 1.519 1.605l1.755 1.018a4.78 4.78 0 0 0 4.301 0l20.371-11.752 3.079 5.335a.45.45 0 0 0 .441.234c.088-.008.172-.042.242-.098a.46.46 0 0 0 .148-.214l3.259-9.402 19.196-11.086c.63-.405 1.154-.955 1.529-1.604a4.7 4.7 0 0 0 .625-2.126l-.023-21.037z" class="B"/><path d="M336.959 205.009c.04.745.255 1.47.628 2.117a4.75 4.75 0 0 0 1.519 1.604l1.755 1.019c.604.302 1.265.474 1.94.504a4.79 4.79 0 0 0 1.977-.332c-1.01.384-1.778-.188-1.778-1.418v-20.99c.023-.75.239-1.481.627-2.123l-6.057-3.494c-.388.642-.604 1.373-.627 2.123l.016 20.99z" class="E K"/><path d="M393.958 157.419c-.25-.908-1.089-1.206-2.084-.634l-46.712 26.999c-.635.394-1.157.948-1.512 1.606l-6.056-3.494c.359-.655.88-1.208 1.512-1.606l46.688-26.992a4.75 4.75 0 0 1 2.155-.517 4.74 4.74 0 0 1 2.154.517l1.755 1.011a4.68 4.68 0 0 1 1.374 1.337c.361.535.609 1.139.726 1.773z" class="C" opacity=".24"/><path d="M354.863 195.152c.039-.032.087-.05.137-.05s.099.018.138.05a.49.49 0 0 1 .095.168c.02.062.028.128.022.193v2.35c-.001.169-.041.335-.117.486-.05.141-.147.26-.275.337l-6.675 3.894c-.038.034-.086.053-.137.053s-.1-.019-.137-.053c-.044-.048-.076-.103-.097-.164s-.027-.125-.021-.189v-14.408c.002-.172.042-.34.118-.494.054-.138.15-.256.274-.337l1.896-1.089c.038-.032.087-.05.137-.05s.099.018.137.05c.042.05.073.107.091.169s.026.127.019.191v11.424l4.395-2.531zm2.726 1.975c-.038.032-.087.05-.137.05s-.099-.018-.137-.05a.49.49 0 0 1-.096-.169.5.5 0 0 1-.022-.192v-14.4c.002-.172.042-.34.118-.494a.78.78 0 0 1 .274-.368l1.896-1.089a.21.21 0 0 1 .274 0c.043.049.075.106.095.168a.48.48 0 0 1 .023.192v14.385a1.08 1.08 0 0 1-.118.486.68.68 0 0 1-.274.337l-1.896 1.144zm8.125-4.655c-.376.22-.634.071-.783-.446l-2.946-12.215c0-.094 0-.157-.039-.18-.005-.029-.005-.058 0-.086.001-.139.033-.275.094-.4a.62.62 0 0 1 .227-.274l1.818-1.05c.195-.11.329-.125.415-.047a.51.51 0 0 1 .149.274l2.013 8.619 2.006-10.969c.031-.158.084-.311.157-.455a1.02 1.02 0 0 1 .407-.431l1.826-1.05c.031-.027.071-.042.113-.042s.082.015.114.042c.034.04.06.086.076.136s.022.102.018.154v.094c0 .032 0 .11-.039.22l-2.946 15.623a1.86 1.86 0 0 1-.248.751c-.135.229-.318.427-.536.581l-1.896 1.151zm14.973-12.23c.037-.034.086-.053.137-.053s.099.019.137.053a.45.45 0 0 1 .096.164.43.43 0 0 1 .021.189v2.35a1.13 1.13 0 0 1-.117.494.79.79 0 0 1-.274.337l-6.856 3.995a.21.21 0 0 1-.274 0c-.043-.049-.075-.106-.096-.168a.5.5 0 0 1-.022-.192v-14.409a1.08 1.08 0 0 1 .118-.485.64.64 0 0 1 .274-.337l6.738-3.918c.038-.032.087-.05.137-.05s.099.018.137.05a.5.5 0 0 1 .118.361v2.35c-.002.172-.042.34-.118.494-.058.136-.153.253-.274.337l-4.458 2.648v2.35l4.137-2.389c.037-.034.086-.053.137-.053s.1.019.137.053a.45.45 0 0 1 .096.164c.021.06.028.125.022.188v2.351a1.14 1.14 0 0 1-.118.493c-.052.14-.148.258-.274.337l-4.137 2.39v2.492l4.576-2.586zm6.126-11.431c1.778-1.026 3.228-.188 3.228 1.865-.061 1.119-.385 2.209-.946 3.179a7.13 7.13 0 0 1-2.282 2.407c-1.779 1.027-3.228.196-3.228-1.864.063-1.119.388-2.208.948-3.178a7.17 7.17 0 0 1 2.28-2.409z" class="C"/><path d="M162.069 389.488l-40.31-11.94-13.594 9.143 53.904 2.797z" class="B"/><g class="J C"><path d="M162.069 389.488l-40.31-11.94-13.594 9.143 53.904 2.797z" class="J"/></g><path d="M162.068 389.489l-36.487-16.015 4.348-9.425 32.139 25.44z" class="B"/><g class="J C"><path d="M162.069 389.489l-36.487-16.015 4.348-9.425 32.139 25.44z" class="J"/></g><path d="M125.581 373.474l1.645 5.696 34.842 10.318-36.487-16.014z" class="B"/><g class="K E"><path d="M125.582 373.475l1.645 5.696 34.842 10.318-36.487-16.014z" class="K"/></g><path d="M120.559 372.981c.087-.03.159-.092.203-.173.05-.094.065-.203.04-.307a.44.44 0 0 0-.173-.257l-.971-.681a.36.36 0 0 0-.135-.065c-.049-.011-.1-.012-.15-.001s-.095.031-.136.062a.35.35 0 0 0-.097.113.44.44 0 0 0-.039.308c.024.103.086.195.173.256l.971.69a.36.36 0 0 0 .15.065c.055.009.111.006.164-.01zm-4.418-3.103l-1.826-1.504a.44.44 0 0 1-.151-.274c-.016-.107.007-.215.065-.306.029-.041.066-.075.109-.1s.091-.04.141-.046.1.001.147.016.091.041.128.075l1.802 1.489c.084.066.14.161.159.266s-.002.214-.057.306c-.021.034-.048.065-.08.089a.31.31 0 0 1-.108.052.35.35 0 0 1-.173.011c-.058-.011-.111-.036-.156-.074zm-4.764-4.16l-1.692-1.693c-.071-.08-.11-.183-.11-.29s.039-.209.11-.289c.033-.039.074-.069.12-.09a.35.35 0 0 1 .292 0c.046.021.087.051.12.09l1.669 1.661c.076.075.123.174.133.28s-.018.212-.078.299c-.047.053-.106.094-.172.118a.36.36 0 0 1-.21.018c-.07-.015-.133-.052-.182-.104zm-4.372-4.662l-1.512-1.873a.42.42 0 0 1-.111-.286c0-.105.039-.208.111-.286a.35.35 0 0 1 .129-.073c.048-.015.098-.02.148-.014a.35.35 0 0 1 .14.049.36.36 0 0 1 .108.101l1.496 1.849c.071.08.11.183.11.29s-.039.21-.11.29c-.039.04-.087.07-.141.086a.37.37 0 0 1-.203-.015c-.064-.023-.122-.064-.165-.118zm-3.87-5.155l-1.293-2.053c-.057-.09-.078-.198-.059-.302a.42.42 0 0 1 .161-.262.37.37 0 0 1 .14-.051c.05-.007.1-.004.149.01a.38.38 0 0 1 .133.067c.039.031.071.07.095.115l1.277 2.029a.42.42 0 0 1-.071.564c-.033.024-.07.043-.109.055a.37.37 0 0 1-.241-.015c-.076-.031-.141-.086-.182-.157zm-3.252-5.618l-1.034-2.217c-.046-.093-.054-.2-.023-.299a.41.41 0 0 1 .188-.234c.048-.02.099-.031.151-.03s.103.01.151.031a.37.37 0 0 1 .126.088c.036.037.063.082.082.13l1.018 2.171c.05.092.064.2.038.301a.42.42 0 0 1-.179.247h-.062a.4.4 0 0 1-.455-.188zm-2.538-6.009l-.603-1.826-.149-.509c-.035-.098-.03-.206.014-.3s.124-.166.221-.202c.102-.023.209-.006.298.048a.4.4 0 0 1 .18.242l.149.494.595 1.802a.39.39 0 0 1-.091.426.39.39 0 0 1-.129.083.39.39 0 0 1-.486-.258zm-1.324-5.955a.41.41 0 0 1-.293-.074c-.085-.061-.142-.152-.162-.255l-.47-2.405c-.011-.05-.013-.101-.004-.151a.37.37 0 0 1 .056-.14c.028-.042.064-.079.106-.107s.09-.048.14-.057c.106-.011.212.02.295.086a.41.41 0 0 1 .152.267l.462 2.35a.4.4 0 0 1-.242.47l-.039.016zm-1.058-6.385a.42.42 0 0 1-.286-.114.41.41 0 0 1-.13-.278l-.165-2.429a.37.37 0 0 1 .015-.149.36.36 0 0 1 .073-.131c.033-.039.074-.07.119-.092a.35.35 0 0 1 .146-.035.42.42 0 0 1 .281.129c.074.077.116.179.118.286 0 .783.086 1.567.165 2.35a.39.39 0 0 1-.251.415l-.086.048zm-.219-6.417c-.106-.018-.201-.074-.268-.158a.43.43 0 0 1-.092-.297c0-.783.102-1.606.18-2.405a.36.36 0 0 1 .039-.144.38.38 0 0 1 .094-.117.37.37 0 0 1 .133-.068.36.36 0 0 1 .149-.008.43.43 0 0 1 .337.47l-.18 2.351a.36.36 0 0 1-.069.213c-.045.062-.109.108-.182.131a.29.29 0 0 1-.141.04v-.008zm.705-6.323a.43.43 0 0 1-.29-.502l.525-2.35a.36.36 0 0 1 .061-.136c.03-.04.068-.073.112-.098a.34.34 0 0 1 .142-.043.35.35 0 0 1 .147.018.45.45 0 0 1 .232.213c.049.096.061.207.034.312l-.517 2.28c-.012.066-.042.126-.087.176a.37.37 0 0 1-.164.106c-.059.034-.129.045-.196.032v-.008zm1.567-6.064a.45.45 0 0 1-.21-.23c-.04-.099-.044-.21-.009-.311l.854-2.194a.37.37 0 0 1 .211-.2c.047-.016.098-.022.148-.017s.098.02.142.045c.093.054.164.141.198.243a.45.45 0 0 1-.01.313l-.838 2.147a.35.35 0 0 1-.085.142c-.04.039-.088.069-.142.085-.074.015-.15.007-.219-.023h-.039zm2.452-5.673c-.087-.062-.149-.152-.175-.256s-.014-.213.034-.308l1.152-2.014a.35.35 0 0 1 .103-.107c.042-.028.09-.047.139-.055a.36.36 0 0 1 .15.007c.048.014.094.037.132.069.084.067.141.161.161.266a.44.44 0 0 1-.051.306l-1.128 1.967a.35.35 0 0 1-.088.107c-.036.029-.078.052-.123.065a.36.36 0 0 1-.266-.039l-.039-.008zm3.236-5.155a.44.44 0 0 1-.139-.278c-.012-.107.015-.214.076-.302l1.457-1.763c.033-.038.073-.068.118-.089s.095-.032.145-.032a.34.34 0 0 1 .144.032c.046.021.086.051.118.089.071.08.11.183.11.29s-.039.21-.11.29l-1.418 1.724c-.047.053-.106.093-.172.117a.37.37 0 0 1-.152-.005c-.05-.012-.097-.034-.138-.065l-.039-.008zm4.536-4.224c.037-.012.072-.03.102-.055.282-.214.581-.405.893-.571.09-.052.157-.135.188-.234s.022-.206-.023-.299c-.019-.048-.047-.092-.083-.128s-.08-.066-.127-.086a.37.37 0 0 0-.15-.029.39.39 0 0 0-.15.031 6.37 6.37 0 0 0-1.002.635.42.42 0 0 0-.071.564.38.38 0 0 0 .182.158c.077.031.162.036.241.014z" class="F"/><path d="M374.115 67.182l-39.77-6.652 32.123 16.32 7.647-9.668z" class="B"/><path d="M374.115 67.182l-39.77-6.652 32.123 16.32 7.647-9.668z" class="C J"/><path d="M334.345 60.53l42.011 1.167 7.647-9.676-49.658 8.509z" class="B"/><path d="M334.345 60.53l42.011 1.167 7.647-9.676-49.658 8.509z" class="C J"/><path d="M376.356 61.698l1.386 10.162-3.627-4.677-39.77-6.652 42.011 1.167z" class="B"/><path d="M376.356 61.698l1.386 10.162-3.627-4.677-39.77-6.652 42.011 1.167z" class="E K"/><path d="M377.742 71.859l-6.174-1.457 2.547-3.22 3.627 4.677z" class="B"/><path d="M374.115 67.182l-2.547 3.22.988.235 1.559-3.455z" class="E K"/><path d="M381.879 66.25a.35.35 0 0 0-.109.235c-.002.107.034.211.101.294s.162.14.267.16l1.175.188a.35.35 0 0 0 .282-.064.35.35 0 0 0 .095-.114.34.34 0 0 0 .038-.143.44.44 0 0 0-.099-.296c-.068-.084-.163-.14-.269-.159l-1.175-.196a.35.35 0 0 0-.306.094zm5.32.861l2.303.556c.103.029.192.094.251.183s.084.196.07.303a.35.35 0 0 1-.054.138.36.36 0 0 1-.105.104.35.35 0 0 1-.139.051c-.049.007-.1.003-.148-.011l-2.272-.556a.44.44 0 0 1-.257-.172c-.062-.086-.091-.193-.08-.298a.33.33 0 0 1 .102-.212.35.35 0 0 1 .153-.085.36.36 0 0 1 .176-.001zm6.103 1.669l2.257.783c.101.034.186.106.237.201s.064.205.037.309a.35.35 0 0 1-.068.133.34.34 0 0 1-.118.092c-.046.022-.095.033-.146.033s-.1-.01-.146-.032l-2.225-.784a.44.44 0 0 1-.245-.194c-.054-.092-.073-.202-.053-.307a.32.32 0 0 1 .102-.172.38.38 0 0 1 .176-.079c.064-.011.13-.005.192.016zm5.962 2.288l2.179 1.034a.43.43 0 0 1 .227.533c-.021.046-.051.087-.088.121a.36.36 0 0 1-.279.091c-.05-.005-.099-.021-.143-.046l-2.146-1.011c-.1-.04-.181-.117-.228-.214a.43.43 0 0 1-.023-.311c.02-.051.052-.097.094-.133a.37.37 0 0 1 .407-.063zm5.728 2.962l2.06 1.285a.42.42 0 0 1 .185.244c.029.102.019.21-.028.305a.37.37 0 0 1-.244.168.35.35 0 0 1-.151-.003.37.37 0 0 1-.138-.063l-2.029-1.269c-.092-.051-.161-.135-.195-.235s-.028-.209.015-.305a.21.21 0 0 1 .07-.094c.062-.054.14-.087.222-.092s.164.016.233.061zm5.375 3.643l1.896 1.567c.083.065.139.16.155.265s-.009.212-.069.299a.4.4 0 0 1-.274.109c-.102 0-.2-.039-.275-.109l-1.872-1.52a.4.4 0 0 1-.102-.548.14.14 0 0 1 .039-.055c.07-.06.158-.093.249-.095a.39.39 0 0 1 .253.087zm4.904 4.325l1.34 1.387.353.384c.036.036.065.08.085.127a.39.39 0 0 1 0 .301.41.41 0 0 1-.085.128.4.4 0 0 1-.136.074.39.39 0 0 1-.154.016c-.052-.005-.102-.02-.148-.045a.39.39 0 0 1-.119-.099l-.352-.376-1.317-1.363a.41.41 0 0 1 0-.556c.076-.064.173-.097.271-.093a.39.39 0 0 1 .262.116zm3.785 4.787c.085-.059.19-.082.293-.064a.4.4 0 0 1 .255.158l1.473 1.959a.39.39 0 0 1 .07.136c.014.05.018.102.011.153s-.023.1-.049.145-.061.083-.103.114a.41.41 0 0 1-.298.044.42.42 0 0 1-.25-.17l-1.45-1.927a.4.4 0 0 1 0-.525l.048-.023zm3.729 5.273c.095-.045.204-.052.304-.02a.42.42 0 0 1 .237.193l1.214 2.115a.37.37 0 0 1 .049.143c.006.05.003.102-.011.151a.37.37 0 0 1-.07.135c-.033.04-.072.072-.117.096a.42.42 0 0 1-.306.001c-.099-.038-.179-.111-.227-.205l-1.191-2.076c-.049-.073-.071-.16-.062-.247s.047-.169.109-.231l.071-.055zm2.969 5.665c.102-.031.212-.022.308.024a.42.42 0 0 1 .209.227l.894 2.241a.39.39 0 0 1 .026.147c-.002.05-.014.099-.035.145a.37.37 0 0 1-.219.194.44.44 0 0 1-.509-.282l-.87-2.202a.38.38 0 0 1-.03-.223.37.37 0 0 1 .101-.2.41.41 0 0 1 .125-.071zm2.124 5.994a.43.43 0 0 1 .478.321l.54 2.351a.35.35 0 0 1 .003.148.36.36 0 0 1-.059.136c-.028.041-.066.075-.109.1a.37.37 0 0 1-.14.047c-.108.009-.214-.022-.3-.087s-.144-.16-.163-.266l-.532-2.28c-.017-.063-.017-.131.001-.194s.053-.121.1-.166a.28.28 0 0 1 .204-.11h-.023zm1.191 6.158c.106.003.209.044.288.116s.129.17.142.276l.188 2.351c.004.05-.003.1-.021.148s-.045.09-.081.125a.35.35 0 0 1-.126.081c-.047.018-.097.025-.148.022a.44.44 0 0 1-.282-.131c-.075-.076-.12-.178-.125-.285l-.18-2.295c-.009-.056-.005-.112.013-.166a.34.34 0 0 1 .089-.14.38.38 0 0 1 .266-.102h-.023zm.258 6.174c.107.017.205.073.274.157a.45.45 0 0 1 .102.298c0 .783-.086 1.567-.164 2.303a.36.36 0 0 1-.042.143c-.024.044-.057.082-.097.112s-.087.051-.136.061a.35.35 0 0 1-.148-.002.45.45 0 0 1-.265-.169c-.065-.087-.096-.194-.088-.301l.157-2.265a.35.35 0 0 1 .109-.243.36.36 0 0 1 .322-.094h-.024zm-.666 6.057a.43.43 0 0 1 .248.187c.057.092.077.201.058.306l-.533 2.218c-.015.048-.039.093-.073.131s-.073.069-.119.091a.34.34 0 0 1-.147.033.37.37 0 0 1-.147-.028c-.1-.039-.183-.113-.233-.208a.45.45 0 0 1-.041-.309l.525-2.163c.009-.049.029-.096.059-.137s.067-.076.111-.1a.34.34 0 0 1 .144-.043.34.34 0 0 1 .148.022zm-2.177 5.758a.36.36 0 0 0-.07.094c-.158.316-.344.617-.556.901-.059.086-.083.193-.065.297s.074.196.159.259c.034.037.076.067.122.087a.36.36 0 0 0 .148.031c.051 0 .101-.01.147-.031s.089-.05.123-.087c.241-.313.451-.649.627-1.003a.43.43 0 0 0-.18-.548.38.38 0 0 0-.227-.075c-.082 0-.162.026-.228.075z" class="F"/><path d="M318.743 324.099c-.212 0-.422-.043-.618-.126a1.58 1.58 0 0 1-.518-.36l-57.265-60.626-57.195 60.329a1.59 1.59 0 0 1-.496.416 1.58 1.58 0 0 1-.622.179c-.218.016-.436-.013-.642-.086a1.58 1.58 0 0 1-.551-.339 1.56 1.56 0 0 1-.368-.533c-.084-.201-.125-.418-.121-.636a1.55 1.55 0 0 1 .147-.631c.092-.197.224-.374.388-.517l58.3-61.544a1.56 1.56 0 0 1 .517-.363 1.57 1.57 0 0 1 .619-.13 1.57 1.57 0 0 1 .619.13 1.56 1.56 0 0 1 .517.363l58.402 61.802a1.57 1.57 0 0 1 .425 1.118c-.012.414-.187.807-.488 1.092a1.57 1.57 0 0 1-1.05.462z" class="I"/><path d="M260.342 369.997a1.57 1.57 0 0 1-1.567-1.567V268.056a1.57 1.57 0 0 1 1.567-1.567c.416 0 .815.165 1.108.459a1.57 1.57 0 0 1 .459 1.108V368.43a1.57 1.57 0 0 1-1.567 1.567zm62.1-36.497c-.314-.002-.619-.098-.878-.275a1.57 1.57 0 0 1-.572-.72l-30.783-77.942a1.57 1.57 0 0 1 .089-1.137c.172-.354.47-.631.837-.775a1.57 1.57 0 0 1 1.981.768l30.783 77.903c.152.386.145.816-.02 1.196a1.57 1.57 0 0 1-.857.833c-.183.085-.379.135-.58.149zm-124.199.001c-.198-.001-.395-.038-.58-.11-.385-.153-.693-.453-.858-.833a1.57 1.57 0 0 1-.019-1.196l30.783-77.903c.059-.211.161-.408.301-.578a1.56 1.56 0 0 1 .51-.406 1.58 1.58 0 0 1 .631-.163c.22-.009.439.027.643.108s.39.203.544.36a1.58 1.58 0 0 1 .35.55c.076.206.109.426.095.645a1.56 1.56 0 0 1-.175.628l-30.776 77.903a1.56 1.56 0 0 1-.572.72 1.57 1.57 0 0 1-.877.275z" class="G"/><path d="M320.319 321.693l4.074 10.742c.012.091.012.183 0 .274.008.065.008.131 0 .196a1.23 1.23 0 0 1-.611.674c-.383.197-.807.3-1.238.3s-.855-.103-1.238-.3c-.213-.112-.384-.291-.486-.509v-.149l-3.776-10.06 3.275-1.168zm-119.96 0l-4.067 10.742c-.012.091-.012.183 0 .274v.196c.114.295.335.535.619.674.383.197.807.3 1.238.3s.855-.103 1.238-.3a1.05 1.05 0 0 0 .478-.509v-.149l3.769-10.06-3.275-1.168zm61.786 38.964v8.885a.89.89 0 0 1-.533.736 2.8 2.8 0 0 1-1.273.306c-.442 0-.879-.105-1.273-.306a.91.91 0 0 1-.525-.736v-8.885a3.86 3.86 0 0 1 3.604 0zm-63.447-185.861c-1.566 3.866-2.497 7.959-2.758 12.121-.783 9.3 2.218 43.656 4.106 57.117 2.734 22.494 6.087 22.533 10.969 26.294 8.383 6.479 32.491 19.172 40.451 22.306 14.425 5.672 26.224-3.079 35.015-7.428s25.322-14.142 28.989-16.829c2.194-1.567 3.33-3.213 3.306-4.921v-4.144c0-2.171-1.911-4.505-5.946-7.114-7.428-4.882-34.372-20.551-44.793-26.334-.003-.021-.013-.041-.028-.057s-.036-.026-.058-.029c-8.031-4.881-12.732-42.308-18.294-59.906-.118-.376-.236-.783-.361-1.097s-.188-.548-.282-.783c-.353-.964-.713-1.841-1.097-2.64" class="B"/><use class="B" xlink:href="#V"/><use class="C J" xlink:href="#V"/><path d="M286.465 281.007c8.79-4.341 25.322-14.15 28.989-16.837 5.006-3.636 4.544-7.35-2.625-11.996-9.958-6.463-50.551-29.498-50.551-29.498s-57.054 33.322-54.844 38.916 33.972 22.894 43.977 26.835c14.51 5.688 26.263-3.064 35.054-7.42z" class="B"/><g class="L C"><path d="M286.465 281.008c8.79-4.341 25.322-14.15 28.989-16.837 5.006-3.636 4.544-7.35-2.625-11.996-9.958-6.464-50.551-29.498-50.551-29.498s-57.054 33.322-54.844 38.916 33.972 22.894 43.977 26.835c14.51 5.688 26.263-3.064 35.054-7.42z" class="L"/></g><use class="B" xlink:href="#W"/><use class="C L" xlink:href="#W"/><use class="B" xlink:href="#X"/><g class="K C"><use class="K" xlink:href="#X"/></g><path d="M270.623 219.81c.125 3.196 19.657 8.563 33.557 12.935 15.959 5.03 23.575 8.658 29.482 14.542 3.33 3.322 5.266 7.529 4.302 12.943-.697 3.917-4.059 10.326-11.51 16.281-14.103 11.29-20.989 13.938-30.955 20.449 0 0-10.264-6.714-11.91-14.541l14.182-15.67-40.977-11.909 13.829-35.03z" class="F"/><path d="M302.699 283.045l.713 9.049-7.913 4.866s-10.264-6.715-11.909-14.542l12.418-13.742c4.239 4.16 5.955 6.001 6.691 14.369zm-45.905-28.229l1.269-2.664 31.951 7.295c6.981 1.567 8.368 1.794 11.893-1.34 4.905-4.356 8.329-5.038 11.753-4.262-5.218.673-10.734 6.565-15.905 12.88l-40.961-11.909z" class="G"/><path d="M267.113 243.401l25.126 21.687-35.445-10.303 10.287-28.167 2.821-.384a52.25 52.25 0 0 1-2.789 17.167z" class="G"/><path d="M286.158 281.243l-4.873 4.968c-.505.18-1.032.288-1.567.321 0 0-10.005 8.485-16.414 14.964s-10.186 9.645-8.509 15.412 9.762 15.811 11.071 16.594 3.463-7.921 3.463-7.921c.948-3.134 3.314-9.182 5.806-12.497s5.884-5.821 10.326-9.261c1.778-1.378 6.268-4.583 11.22-8.015l-10.523-14.565z" class="O"/><path d="M285.461 303.823c1.778-1.378 6.268-4.583 11.22-8.015l-10.523-14.565c-2.515 2.821-4.419 4.834-4.873 4.968-.505.18-1.032.288-1.567.321 0 0-4.004 3.4-8.572 7.537a13.79 13.79 0 0 1 1.332 6.182 59.69 59.69 0 0 0 1.818 14.103c.282-.447.572-.878.862-1.262 2.468-3.322 5.86-5.829 10.303-9.269z" class="M"/><use class="B" xlink:href="#Y"/><use class="E L" xlink:href="#Y"/><use class="B" xlink:href="#Z"/><use class="E P" xlink:href="#Z"/><path d="M280.807 286.078c-2.569.549-5.915-.117-9.684.925-1.521.448-2.872 1.343-3.878 2.569a11.75 11.75 0 0 1 4.811 7.224c9.3-5.892 8.751-10.718 8.751-10.718z" class="E P"/><path d="M317.632 378.075c-2.958-2.895-5.419-6.257-7.287-9.95-1.77-3.808-3.196-9.3-4.434-14.887-.698-3.134-1.371-8.986-2.131-17.393l-17.809 3.243c1.418 4.137 2.538 7.961 2.225 9.457-.084.542-.242 1.069-.47 1.567 0 0 2.789 12.983 5.484 21.805s3.753 13.695 9.7 14.964 18.804-1.167 20.112-1.966-5.39-6.84-5.39-6.84z" class="O"/><use class="B" xlink:href="#a"/><use class="E" opacity=".25" xlink:href="#a"/><use class="B" xlink:href="#b"/><use class="E K" xlink:href="#b"/><path d="M270.622 219.81l-56.333 4.293c-2.35 11.941-2.217 19.337-.094 25.981 1.943 6.08 7.373 13.249 19.094 20.034 13.915 8.062 31.034 15.348 34.333 17.44 4.755 3.017 7.27 2.053 7.545 13.657.172 7.419 4.121 18.224 6.268 24.852l5.053 15.732c2.351 3.471 14.04 3.346 18.107-1.3 0 0-2.351-46.124-3.722-55.534-.784-5.257-1.567-9.982-7.435-16.148-5.054-5.281-30.228-24.688-30.228-24.688s6.472-8.399 7.412-24.319z" class="F"/><path d="M281.63 316.32c1.708 7.781 6.268 20.567 8.196 27.423a13.26 13.26 0 0 0 1.567.305c-1.967-6.894-6.589-19.987-8.36-28.049-2.351-10.546-1.896-12.739-2.084-20.136-.079-3.134-.149-5.821-.368-8.093-.572-5.955-12.693-12.387-28.034-20.528l-15.67-8.555c-17.025-9.802-16.296-17.637-15.074-30.627l.368-4.223-1.465.219-.337 3.863c-1.23 13.092-2.045 21.742 15.819 32.045 5.155 2.977 10.514 5.821 15.67 8.579 13.766 7.302 26.764 14.205 27.265 19.368.212 2.225.282 4.897.361 7.992.219 7.459-.204 9.731 2.146 20.417z" class="G"/><path d="M231.448 256.664c.22-.149 5.532-3.847 3.558-13.405-2.163-10.444-1.693-15.263-.737-22.275l-1.426-.204c-.979 7.193-1.418 12.317.784 22.776 1.778 8.619-2.899 11.855-2.946 11.886l.767 1.222zm34.528-119.609a10.66 10.66 0 0 1-2.03-2.084c-1.324-2.037-.948-4.756-2.107-6.887-.329-.604-.784-1.058-1.191-1.63a7.12 7.12 0 0 1-.643-2.813c7.647-2.052 7.788-12.379 5.924-16.923-3.604-9.864-14.33-13.484-20.943-13.797-12.536-.588-18.655 2.703-19.901 9.206-1.709.291-3.289 1.096-4.53 2.306s-2.085 2.77-2.419 4.471c-1.129 4.646-.447 7.921-3.087 10.969-1.356 1.833-3.134 3.667-3.416 6.048-.439 3.988 3.8 7.569 2.844 11.463-.784 3.055-4.49 4.944-4.576 8.085-.078 2.711 2.617 4.654 3.526 7.216.533 1.481.446 3.134 1.12 4.576 1.058 2.217 3.706 3.252 6.158 3.283 4.365.07 8.47-2.351 12.826-2.351 4.027-.054 7.898 1.865 11.917 1.701s7.663-2.351 11.643-2.586c4.834-.298 10.068 2.351 14.667 0 2.202-1.152 3.753-3.847 2.883-6.174-1.708.619-3.635-.54-4.528-2.123-1.998-3.753-.134-9.214-4.137-11.956z" class="G"/><path d="M255.071 150.303c5.61.956 9.872 1.026 14.73 8.054l18.185 27.085 18.913-9.268 7.898 13.162s-20.277 13.57-27.814 16.274c-5.633 2.029-7.051-.447-11.298-4.748-4.756-4.788-18.765-20.442-18.765-20.442l-1.849-30.117z" class="O"/><use class="B" xlink:href="#c"/><use class="E J" xlink:href="#c"/><path d="M288.315 185.02c-3.204 1.151-6.91 4.701-7.466 6.557.893-5.139 5.006-7.176 6.534-7.944l.932 1.387z" class="E P"/><path d="M327.348 152.96l-1.692-1.112a1.75 1.75 0 0 0-.784-.185c-.272 0-.54.063-.783.185l-15.858 6.652c-.796.378-1.499.924-2.063 1.6a6.09 6.09 0 0 0-1.204 2.317l-7.498 35.837a1.56 1.56 0 0 0-.046.931c.08.308.252.585.492.793l1.747 1.151a1.72 1.72 0 0 0 .803.2c.28 0 .556-.069.803-.2l15.882-6.604c.793-.382 1.495-.929 2.059-1.604s.975-1.465 1.208-2.314l7.49-35.829c.157-.925-.086-1.544-.556-1.818z" class="F"/><path d="M308.231 160.803c-.76.765-1.301 1.72-1.567 2.765l-7.498 35.822c-.101.291-.118.604-.05.904s.218.576.434.796l-1.638-1.081a1.57 1.57 0 0 1-.496-.791c-.081-.308-.067-.634.042-.933l7.498-35.837a5.91 5.91 0 0 1 1.457-2.609l1.818.964z" class="I"/><path d="M299.151 199.398l7.513-35.837c.234-.849.647-1.639 1.212-2.314a6.15 6.15 0 0 1 2.063-1.603l15.874-6.613c1.481-.611 2.413.165 2.084 1.732l-7.49 35.829c-.233.848-.645 1.637-1.209 2.313s-1.265 1.223-2.058 1.604l-15.905 6.582c-1.481.642-2.406-.126-2.084-1.693z" class="G"/><path d="M307.589 170.761l1.402-6.706c.044-.161.12-.31.226-.438s.237-.233.386-.307l2.985-1.238c.274-.109.446 0 .391.329l-1.402 6.707a1.16 1.16 0 0 1-.227.434 1.17 1.17 0 0 1-.384.303l-2.985 1.238c-.282.109-.455-.032-.392-.322z" class="F"/><path d="M309.336 165.566c.113-.399.312-.769.583-1.085a2.87 2.87 0 0 1 .983-.741c.713-.297 1.176 0 1.027.784a2.9 2.9 0 0 1-.585 1.083c-.271.315-.605.568-.982.742-.713.267-1.175-.07-1.026-.783zm-.667 3.402a2.89 2.89 0 0 1 .585-1.084c.27-.315.605-.568.982-.742.713-.298 1.175.039 1.019.784-.114.4-.313.771-.583 1.087a2.89 2.89 0 0 1-.984.746c-.674.243-1.168-.102-1.019-.791z" class="I"/><path d="M326.502 175.854c1.394-2.202 1.238-2.476.352-3.51a6.69 6.69 0 0 0-2.499-1.91 6.7 6.7 0 0 0-3.095-.558c-1.857.164-3.745.243-4.701.783s0 2.523 2.468 2.93c3.879.635 3.918 1.677 3.918 1.677-1.653-.279-3.319-.472-4.991-.58-1.418 0-3.957.831-5.555 1.176s-1.802 2.452.979 3.008l-2.93.643c-2.053.454-2.687 1.567-.987 2.781.551.41 1.225.62 1.911.596 0 0-2.201.125-2.209.861 0 2.108 1.395 2.586 5.923 3.612 4.317.987 5.328 3.22 4.576 4.85l3.134-2.241c1.073-.83 1.966-1.755 1.363-3.471 0 0 2.429-.094 2.492-1.567-.03-1.106-.297-2.194-.784-3.188.422-.276.756-.667.963-1.126s.278-.969.205-1.468a4.32 4.32 0 0 0-1.035-2.585l.502-.713z" class="O"/><path d="M313.395 178.878c.87-.238 1.763-.387 2.663-.446.913.082 1.807.309 2.649.673 1.671.604 3.288 1.348 4.834 2.226a31.3 31.3 0 0 1-5.101-1.489 13.71 13.71 0 0 0-2.421-.784c-.815-.101-1.747-.062-2.624-.18zm-2.031 4.02c.93-.324 1.926-.413 2.899-.259.961.148 1.905.387 2.821.713 1.818.618 3.567 1.424 5.218 2.406-1.881-.431-3.683-1.058-5.485-1.661s-3.486-1.277-5.453-1.199z" class="M"/><use class="B" xlink:href="#d"/><use class="E P" xlink:href="#d"/><path d="M235.601 147.068l-16.234 3.918c-2.782.877-11.494 9.872-8.258 25.612.877 4.255 3.565 12.591 6.127 20.755 1.218 3.836 1.4 7.926.524 11.854-1.645 7.13-3.51 12.246-5.797 22.886 0 0 7.466 6.417 34.857 4.027 20.896-1.857 26.937-13.875 26.937-13.875-.47-3.299-2.022-8.235-3.518-14.605.321-7.694.149-12.442.274-16.367 0 0 6.009-3.048 6.229-11.886.172-6.918-2.468-10.608-9.363-17.848-3.96-4.243-8.266-8.15-12.873-11.681l-18.905-2.79z" class="G"/><path d="M226.378 134.626c-2.272.352-4.027-.784-5.351-2.351-2.938-3.439-3.134-6.855-1.622-9.081 1.222-1.825 4.129-2.922 6.104-1.567 2.107 1.419 2.139 2.515 2.906 4.067s3.918 1.512 4.85-4.607c.886-5.712 1.92-10.93 4.803-13.429 4.309-3.737 8.948-2.962 10.554-.627 1.786-2.617 4.426-3.62 7.239-1.99s4.858 5.962 5.485 16.861c.65 11.117-2.171 17.95-4.764 19.736-1.974 1.347-4.153 1.919-8.321 1.974l.196 5.9s6.911 15.027 6.597 24.531c0 0-3.502-6.001-13.907-14.957l-11.266-9.778-.713-16.343c-.3.478-.71.878-1.195 1.167s-1.031.458-1.595.494z" class="O"/><path d="M259.191 116.535l-4.239-1.183a2.09 2.09 0 0 1 .345-.775 2.1 2.1 0 0 1 .624-.575c.246-.147.518-.242.802-.279a2.1 2.1 0 0 1 .846.062c.574.158 1.065.534 1.367 1.047a2.3 2.3 0 0 1 .255 1.703zm-14.972-.439l-4.435 1.52a2.24 2.24 0 0 1-.158-.893 2.25 2.25 0 0 1 .746-1.612c.227-.204.494-.359.783-.457.598-.197 1.249-.158 1.819.11a2.46 2.46 0 0 1 1.245 1.332z" class="I"/><path fill="#b16668" d="M242.713 131.414l6.049 1.912a3.19 3.19 0 0 1-.649 1.14c-.293.33-.652.596-1.054.781a3.18 3.18 0 0 1-1.28.289c-.442.007-.88-.079-1.287-.251-1.645-.588-2.249-2.163-1.779-3.871z"/><path d="M246.232 135.456a3.33 3.33 0 0 0-1.115-2.116c-.621-.542-1.422-.835-2.246-.822a1.97 1.97 0 0 0-.306.039c-.014.601.165 1.191.512 1.683s.844.857 1.416 1.044c.556.202 1.154.261 1.739.172zm1.967-16.994l.901 10.922 5.978-2.084-6.879-8.838z" class="M"/><path d="M244.704 121.353c.011.333-.078.662-.254.945s-.432.506-.735.644a1.69 1.69 0 0 1-.969.127 1.68 1.68 0 0 1-.877-.433c-.243-.227-.413-.522-.489-.846s-.053-.664.064-.976a1.68 1.68 0 0 1 .595-.776c.271-.194.593-.303.926-.314.221-.008.441.029.649.107s.397.196.558.347.292.333.383.535.142.419.149.64zm13.226-.454a1.69 1.69 0 0 1-1.959 1.716 1.68 1.68 0 0 1-.877-.433c-.243-.227-.413-.522-.488-.846s-.054-.664.063-.976a1.69 1.69 0 0 1 .596-.776 1.68 1.68 0 0 1 .925-.315c.222-.007.442.03.649.107a1.67 1.67 0 0 1 .559.348 1.7 1.7 0 0 1 .383.535c.091.201.142.419.149.64z" class="I"/><path d="M248.284 143.557c-3.847-.368-7.905-.901-11.752-2.554-1.371-.588-3.204-3.079-4.701-5.86 0 0 1.042 5.484 3.996 7.349 4.481 2.867 12.536 3.494 12.536 3.494l-.079-2.429z" class="M"/><use class="B" xlink:href="#e"/><use class="E P" xlink:href="#e"/><path d="M248.481 149.458s19.642 11.752 23.066 16.712c-6.668-9.786-14.589-19.392-23.238-22.064l.172 5.352zm-11.847 37.333c-.313-4.646-3.306-17.08-6.33-24.195-3.597-8.469-5.743-12.888-5.743-12.888a17.35 17.35 0 0 0 3.134-4.45c.877-2.139 1.88-2.688 1.88-2.688l.117 2.743s2.022 4.246 4.137 9.401 4.615 19.298 2.805 32.077z" class="E"/><path d="M246.092 177.02c3.29-2.789 4.967-3.917 6.55-4.458s7.051-3.259 9.206-3.917c1.347-.431 2.045 1.723.392 3.337-1.27 1.238-4.701 2.978-6.159 3.918s-4.262 4.795-4.262 4.795l-5.727-3.675z" class="M"/><path d="M202.608 163.811c3.134-8.477 7.937-11.454 16.179-12.261 5.015 11.854.745 30.47.745 30.47l-4.936 13.499s16.664-5.288 18.905-6.926 7.835-7.2 9.81-9.347c2.687-2.93 4.129-2.648 5.594-2.523 4.803.408 5.876.745 6.926 1.325.31.188.567.451.749.764a2.17 2.17 0 0 1 .293 1.03c1.269.078 3.134-.086 3.541 1.974.136.543.197 1.102.18 1.661a1.37 1.37 0 0 1 .847.415c1.136 1.152-.4 5.485-1.481 6.59-.784.783-1.904.94-3.424.83-1.293-.094-.784-1.434-.784-1.434l-1.786.22c-3.698 2.993-3.549 8.454-8.618 9.981-1.066.322-3.291.431-6.174 1.614-10.789 4.396-25.072 17.801-37.224 18.514-9.629.564-10.804-3.917-10.789-9.825.063-6.111 8.666-39.018 11.447-46.571z" class="O"/><use class="B" xlink:href="#f"/><use class="E J" xlink:href="#f"/><path d="M215.896 192.793l-1.042 2.57c-5.696 1.316-11.471 2.766-13.03 4.865 1.646-3.51 6.064-5.915 14.072-7.435z" class="E P"/><path d="M256.873 179.841l-5.727-.783h5.554c.107.248.166.513.173.783zm3.721 3.636l-6.566-.431 6.527-.321c.037.248.05.5.039.752zm-.681 2.922a2.06 2.06 0 0 1-.823.784 4.16 4.16 0 0 1-1.089.447l.086-.063-.485 1.042-.149-.165a1.33 1.33 0 0 1 .544-.02c.18.031.353.099.506.201a1.75 1.75 0 0 1 .626.783c-.183-.274-.427-.502-.713-.666-.276-.138-.592-.174-.893-.102l-.243.063.102-.227.478-1.042v-.055h.055a6.28 6.28 0 0 0 1.058-.368 2.46 2.46 0 0 0 .94-.612z" class="M"/><path d="M258.244 187.348c-.777.149-1.562.253-2.351.313-.105.498-.359.951-.728 1.301a13.31 13.31 0 0 1-1.191 1.136l1.786-.22c.224-.333.515-.616.855-.829s.722-.352 1.119-.409l.51-1.292z" class="M"/><use class="B" xlink:href="#g"/><use class="C" opacity=".6" xlink:href="#g"/><use class="C" opacity=".6" xlink:href="#g"/><path d="M208.443 362.931c.997-.571 1.941-1.229 2.821-1.966l2.64-10.805c-1.371 1.502-2.974 2.774-4.748 3.769-9.911 5.719-25.784 5.86-36.04.47l1.19-4.818-.368-.51H167.2l4.858 20.214c.376 2.437 2.17 4.819 5.398 6.684 5.203 3.008 12.701 3.854 19.227 2.585-11.698.87-19.72-4.246-20.927-8.963-.478-1.88-1.316-6.041-1.316-6.041 9.786 4.96 24.672 4.764 34.003-.619z" class="B K"/><use class="B" xlink:href="#h"/><use class="C" opacity=".8" xlink:href="#h"/><use class="B" xlink:href="#i"/><use class="C" opacity=".6" xlink:href="#i"/><use class="B" xlink:href="#j"/><use class="C" opacity=".6" xlink:href="#j"/><path d="M170.491 345.937c1.272 1.758 2.921 3.209 4.827 4.247 8.493 4.912 22.266 4.912 30.759 0 1.906-1.038 3.555-2.489 4.827-4.247-.063-2.938-2.029-5.86-5.916-8.101-7.889-4.56-20.692-4.56-28.581 0-3.879 2.241-5.845 5.171-5.916 8.101z" class="H"/><path d="M184.132 314.291c-.415-11.995-4.928-30.65-9.269-38.172 6.566 7.835 13.147 21.021 13.672 35.492l-4.403 2.68z" class="I"/><path d="M197.161 340.185c.4-8.344 6.534-11.063 13.445-8.344 4.905 1.927 12.003 9.229 14.244 20.856-2.202-6.001-18.13-26.247-27.689-12.512z" class="F"/><path d="M197.521 344.197c.4-3.134 3.197-7.184 8.07-6.181s16.368 9.974 21.249 24.688c-.893-9.88-4.098-18.389-10.695-23.905s-11.392-6.377-16.218-3.51c-4.145 2.46-2.406 8.908-2.406 8.908z" class="G"/><path d="M188.77 348.232c-3.965-13.272-4.56-37.929-.737-51.264 5.399-18.843 16.603-27.101 24.97-29.099-7.921 3.306-16.281 15.38-18.631 27.195s-1.003 53.168-1.003 53.168h-4.599z" class="F"/><path d="M192.029 335.288c.51-7.419 4.842-23.873 13.422-30.509s18.137-2.194 21.029 1.293c-5.203-3.636-11.432-3.471-15.945.251s-9.096 14.886-11.392 25.518l-7.114 3.447z" class="I"/><path d="M203.695 306.323c5.399-5.289 9.614-8.862 16.305-8.517s15.67 9.692 20.817 29.514c-5.359-12.59-12.293-23.661-23.387-24.836-8.705-.933-13.735 3.839-13.735 3.839z" class="G"/><path d="M143.413 294.555c9.849-.627 20.152 2.154 29.647 10.185s13.265 17.033 14.699 26.208l-5.947-.964s-4.936-15.599-13.499-23.692c-7.616-7.162-13.257-10.029-24.9-11.737z" class="F"/><path d="M189.216 327.234c.463-6.691-2.687-20.77-12.919-30.305s-13.923-11.62-24.461-14.307c5.618 2.617 15.153 9.402 21.938 18.224s7.051 19.329 7.051 23.278c1.168 3.11 5.32 9.582 8.391 3.11z" class="G"/><path d="M188.77 330.54c-1.332-8.524 3.251-23.794 8.618-31.261 6.488-9.034 16.046-15.795 26.639-17.636-11.368 4.348-22.8 17.033-26.153 28.989s-1.394 24.335-1.394 24.335l-7.71-4.427z" class="G"/><path d="M192.39 348.232c-1.442-7.976 1.096-24.57 14.22-33.69s22.181-6.738 25.628-5.696c-10.185-.69-20.371 4.967-26.584 11.964-4.325 4.857-8.391 12.818-8.618 25.996l-4.646 1.426z" class="F"/><path d="M192.578 348.89s3.432-.086 4.811-1.7c0-5.147 1.386-15.458 8.618-21.546s12.857-4.92 13.993-2.531c0-3.51-4.403-6.628-9.292-5.586-8.172 1.732-19.673 12.293-18.13 31.363z" class="I"/><path d="M206.445 319.095c4.451-2.421 8.266-4.505 13.234-2.194.219-.133 3.039-.839 4.113.423 4.145 4.897 2.805 17.072-4.787 28.738 3.494-8.751 3.659-24.899-2.797-27.422a12.93 12.93 0 0 0-9.763.455z" class="G"/><path d="M219.695 316.9c1.998.925 6.096 7.929 3.448 17.699 2.46-7.38 1.567-14.479-2.562-17.918a4.03 4.03 0 0 0-.886.219zm-35.86 29.608c-.392-3.134-3.189-7.185-8.07-6.182s-16.359 9.974-21.241 24.688c.886-9.88 4.482-18.161 10.405-24.398 5.312-5.602 12.27-8.289 17.793-5.328s1.113 11.22 1.113 11.22z" class="I"/><path d="M181.812 327.916c-4.286-4.285-7.279-8.399-15.16-6.769s-13.273 10.185-15.412 21.75c1.34-4.466 5.391-14.683 13.445-16.454s11.987-1.097 17.127 1.473z" class="F"/><path d="M183.834 346.509c-1.121-7.561-3.996-18.342-12.043-18.804s-16.868 4.622-20.551 15.152c1.881-9.589 10.052-18.733 18.585-18.749s16.915 1.834 18.945 24.085l-4.936-1.684zm-6.777-32.076c-3.432-3.424-8.36-5.046-11.102-5.485s-8.062-2.57-13.774 2.75-11.752 17.723-9.59 26.404c.909-9.23 13.288-35.069 34.466-23.669z" class="G"/><path d="M189.922 348.977c0-7.013-5.124-29.24-13.21-34.897-10.122-7.052-16.892-1.05-16.892-1.05a13.54 13.54 0 0 1 6.269-.487 13.53 13.53 0 0 1 5.813 2.399c5.226 3.823 10.099 15.004 11.964 31.567-.032 0 1.731 2.515 6.056 2.468z" class="I"/><path d="M185.323 328.104c-.493 2.053 1.638 17.339 3.275 20.787 1.623.252 3.276.225 4.889-.079 1.567-2.672.047-19.971 3.009-20.3-2.303-1.066-10.107-3.941-11.173-.408z" class="G"/><path d="M185.323 328.104c2.351-2.46 12.074 2.351 13.892 16.822 2.421-6.856 1.339-15.325-1.074-17.472-.659-.611-1.491-1.002-2.382-1.122s-1.796.04-2.593.456c0 0-7.514-3.306-7.843 1.316z" class="F"/><path d="M193.165 326.788c2.969 1.246 6.362 5.367 6.323 12.395.227-3.604-.462-9.911-5.555-12.708a4.83 4.83 0 0 0-.768.313z" class="G"/></g><defs><path id="C" d="M78.063 264.114l31.222-18.021c.114-.083.251-.127.392-.127a.66.66 0 0 1 .391.127c.181.157 2.649 1.473 2.844 1.606.118.106.209.237.266.384s.079.306.064.463v28.096a2.6 2.6 0 0 1-.295 1.159c-.188.358-.458.667-.787.901l-5.484 3.134-29.35-16.908a2.15 2.15 0 0 1 .737-.814z"/><path id="D" d="M80.233 296.762l-2.883-1.637a.99.99 0 0 1-.278-.385c-.06-.149-.083-.31-.067-.469v-28.097a2.66 2.66 0 0 1 .345-1.245l29.357 16.931-25.737 14.886c-.108.073-.235.113-.366.116a.68.68 0 0 1-.371-.1z"/><path id="E" d="M80.946 296.724l31.223-18.021c.329-.234.598-.543.786-.901s.289-.755.295-1.159v-28.104c0-.784-.486-1.16-1.081-.784l-31.223 18.021a2.57 2.57 0 0 0-.786.901c-.188.358-.289.755-.295 1.159v28.057c0 .784.486 1.175 1.081.831z"/><path id="F" d="M114.127 108.558l-34.27 19.791a1.77 1.77 0 0 0-.556.601c-.136.24-.214.51-.227.786v32.656c.013.276.091.546.227.786a1.77 1.77 0 0 0 .556.601l1.316.783a1.79 1.79 0 0 0 1.567 0l34.317-19.814a1.77 1.77 0 0 0 .556-.601 1.75 1.75 0 0 0 .227-.786v-32.656a1.76 1.76 0 0 0-.226-.787 1.77 1.77 0 0 0-.557-.6l-1.316-.783a1.79 1.79 0 0 0-.81-.18c-.28.004-.556.073-.804.203z"/><path id="G" d="M117.841 110.47c-.094-.329-.4-.439-.784-.219L82.78 130.042a1.56 1.56 0 0 0-.572.595l-2.915-1.684a1.57 1.57 0 0 1 .564-.604l34.27-19.791c.245-.117.512-.178.784-.178a1.81 1.81 0 0 1 .783.178l1.309.784a1.75 1.75 0 0 1 .838 1.128z"/><path id="H" d="M435.714 302.992l-34.247 19.791c-.23.154-.42.359-.556.6a1.77 1.77 0 0 0-.227.787v32.648a1.77 1.77 0 0 0 .783 1.387l1.316.783a1.77 1.77 0 0 0 1.607 0l34.27-19.791c.229-.154.42-.359.556-.6a1.77 1.77 0 0 0 .227-.787v-32.671a1.77 1.77 0 0 0-.227-.787c-.136-.241-.327-.446-.556-.6l-1.317-.784a1.77 1.77 0 0 0-1.629.024z"/><path id="I" d="M439.403 304.903c-.102-.337-.407-.438-.783-.227l-34.255 19.791c-.237.145-.432.351-.564.596l-2.922-1.685c.132-.245.326-.45.564-.595l34.27-19.791c.25-.124.525-.188.803-.188a1.8 1.8 0 0 1 .803.188l1.316.783c.197.128.366.293.498.487s.224.412.27.641z"/><path id="J" d="M368.197 97.824c-3.063-1.739-7.286-1.473-11.948 1.214-9.402 5.413-16.978 18.585-16.978 29.412 0 5.406 1.896 9.206 4.967 10.969l5.798 3.337c3.071 1.763 7.31 1.505 11.995-1.198 9.402-5.414 16.978-18.577 16.978-29.405 0-5.398-1.888-9.198-4.944-10.969l-5.868-3.361z"/><path id="K" d="M352.597 143.001c-1.059 1.721-2.515 3.164-4.246 4.207-1.928 1.131-4.137 1.691-6.37 1.614a.57.57 0 0 1-.298-.078l-5.782-3.283a.57.57 0 0 1-.211-.212c-.051-.088-.078-.188-.078-.289s.027-.201.078-.289.123-.162.211-.213a10.24 10.24 0 0 0 5.304-7.983l11.392 6.526z"/><path id="L" d="M167.505 226.35a12.65 12.65 0 0 1 4.246-4.215 11.81 11.81 0 0 1 6.37-1.606.62.62 0 0 1 .298.078l5.774 3.322a.58.58 0 0 1 .212.212c.05.088.077.188.077.289a.59.59 0 0 1-.077.29.58.58 0 0 1-.212.212 10.3 10.3 0 0 0-3.638 3.337 10.29 10.29 0 0 0-1.666 4.647l-11.384-6.566z"/><path id="M" d="M168.453 224.776c-3.064-1.74-7.287-1.473-11.948 1.222-9.402 5.414-16.979 18.577-16.979 29.404 0 5.414 1.896 9.214 4.968 10.969l5.798 3.338c3.071 1.771 7.31 1.512 11.995-1.191 9.402-5.414 16.978-18.584 16.978-29.412 0-5.398-1.888-9.191-4.952-10.969l-5.86-3.361z"/><path id="N" d="M380.209 203.714c-.268-.129-.566-.183-.862-.157a1.65 1.65 0 0 0-.822.306l-19.305 11.149c-.684.448-1.253 1.049-1.662 1.757a5.22 5.22 0 0 0-.689 2.318v22.102a1.67 1.67 0 0 0 .139.857c.121.268.311.5.551.671l5.484 3.134a1.65 1.65 0 0 0 .856.15c.293-.028.574-.134.813-.307l19.258-11.118c.683-.448 1.251-1.05 1.659-1.758s.645-1.5.692-2.316l.039-22.141c.028-.292-.02-.586-.141-.853s-.31-.497-.549-.667l-5.461-3.127z"/><path id="O" d="M362.338 244.324v-22.079a5.18 5.18 0 0 1 2.35-4.074l19.306-11.149c1.3-.745 2.35-.141 2.35 1.355l-.039 22.142c-.047.815-.284 1.608-.692 2.316s-.976 1.309-1.659 1.758l-19.258 11.118c-1.308.72-2.358.117-2.358-1.387z"/><path id="P" d="M426.85 176.873a1.64 1.64 0 0 0-.858-.158c-.296.027-.578.133-.818.307l-19.305 11.149c-.686.446-1.256 1.047-1.664 1.755a5.18 5.18 0 0 0-.687 2.319v22.11a1.65 1.65 0 0 0 .138.854 1.64 1.64 0 0 0 .552.666l5.484 3.134c.265.126.56.178.852.15a1.62 1.62 0 0 0 .809-.307l19.258-11.117a5.21 5.21 0 0 0 1.661-1.757c.409-.708.645-1.502.69-2.317l.039-22.134a1.67 1.67 0 0 0-.125-.878c-.12-.275-.312-.514-.557-.689-.446-.212-5.053-2.836-5.469-3.087z"/><path id="Q" d="M408.979 217.49v-22.11c.044-.816.281-1.61.689-2.318a5.21 5.21 0 0 1 1.661-1.757l19.313-11.149c1.293-.744 2.351-.141 2.351 1.364l-.04 22.133c-.044.816-.281 1.61-.689 2.318s-.977 1.309-1.661 1.756l-19.258 11.118c-1.309.745-2.366.141-2.366-1.355z"/><path id="R" d="M168.156 175.233l-4.701 8.282 3.291 4.27-10.875-9.402-9.402 20.292v3.667c0 .455.321.643.713.415l28.033-16.179c.209-.135.382-.317.506-.533s.195-.457.207-.705v-2.993l-7.772-7.114zm3.236-3.619a3.15 3.15 0 0 0 .988-1.049 3.14 3.14 0 0 0 .414-1.38c0-.901-.627-1.262-1.402-.784-.409.268-.75.628-.994 1.051a3.14 3.14 0 0 0-.417 1.386c0 .823.635 1.183 1.411.736v.04z"/><path id="S" d="M345.529 333.397a3.08 3.08 0 0 0 1.34 2.397l1.081.651a2.89 2.89 0 0 0 1.21.33c.422.02.844-.052 1.235-.213-.635.243-1.113-.125-1.113-.916v-58.817a2.9 2.9 0 0 1 .392-1.364l-3.753-2.248a2.86 2.86 0 0 0-.392 1.363v58.817z"/><path id="T" d="M387.619 285.573l27.023-16.203c.376-.227.689-.047.689.416v20.48c-.013.245-.083.484-.202.698s-.286.399-.487.54l-27.023 16.203c-.384.227-.689.039-.689-.416v-20.48c.009-.246.077-.486.196-.701s.289-.399.493-.537z"/><path id="U" d="M368.754 203.441l-2.915-5.484 2.35-6.769v-4.145l-7.176 4.145v4.144l3.087 5.344c.045.083.117.149.203.188l4.451 2.577z"/><path id="V" d="M318.808 259.304c0-2.17-1.912-4.505-5.947-7.114-7.459-4.873-34.403-20.543-44.824-26.325-.003-.022-.013-.042-.029-.058a.1.1 0 0 0-.057-.028c-8.031-4.881-12.732-42.309-18.294-59.906a31.29 31.29 0 0 0-1.16-3.244l-.102-.235-.321-.721c-.055-.109-.102-.243-.157-.352-.879-2.01-2.14-3.83-3.714-5.359a7.89 7.89 0 0 0-1.817-1.277l-3.275-1.85c-5.485-3.259-18.334 3.691-27.25 8.572-5.547 3.04-10.28 6.66-13.155 13.39a38.73 38.73 0 0 0-2.758 12.12c-.783 9.3 2.217 43.657 4.106 57.117 2.734 22.494 6.087 22.533 10.968 26.294 8.384 6.48 32.492 19.172 40.452 22.306 14.424 5.673 26.224-3.079 35.015-7.427s25.322-14.142 28.989-16.83c2.194-1.567 3.33-3.212 3.306-4.92l.024-4.153z"/><path id="W" d="M242.418 154.685c-5.398-2.837-18.146 4.05-26.835 8.806-5.562 3.048-10.303 6.667-13.178 13.429l-3.667-2.123c2.876-6.73 7.608-10.35 13.155-13.39 8.916-4.881 21.797-11.831 27.25-8.572.439.283 2.335 1.332 3.275 1.85z"/><path id="X" d="M249.657 165.873c-.118-.376-1.975-6.84-5.485-9.911-1.618-1.457-3.722-2.259-5.899-2.249-4.701 0-16.109 6.15-22.722 9.778a56.63 56.63 0 0 0-1.637.94c-.212.118-.415.243-.619.368l-.737.463c-.243.156-.36.227-.54.352a29.92 29.92 0 0 0-3.338 2.539l-.501.454a21.3 21.3 0 0 0-1.896 1.975l-.322.376c-.125.149-.258.305-.376.462l-.368.486-.353.493c-.478.684-.92 1.393-1.324 2.124-.054.094-.109.188-.156.282s-.212.399-.314.603l-.431.893a38.38 38.38 0 0 0-3.008 12.708c-1.285 15.271 3.808 69.99 9.057 74.346 0 0 1.12-4.56 9.754-11.588 8.352-6.62 17.244-12.528 26.584-17.66 17.535-9.887 22.933-8.328 22.933-8.328-8.038-4.881-12.739-42.278-18.302-59.906z"/><path id="Y" d="M267.833 289.007c-1.637 1.332-2.836 4.035-5.288 6.268a57.64 57.64 0 0 1-9.058 6.895l-4.497 2.812.784 1.223 8.195-5.117c2.499-1.567 4.701-2.193 5.735-1.167-.023.023 7.82-4.999 4.129-10.914z"/><path id="Z" d="M280.807 286.078c-2.57.549-5.915-.117-9.684.925a7.93 7.93 0 0 0-3.98 2.695c-.407 1.567-.36 2.452-.595 3.612-.219 1.938-.907 3.794-2.006 5.406a87.29 87.29 0 0 1-7.882 9.198c-2.766 2.883-4.544 4.45-4.356 8.305.156 3.001 3.079 10.648 5.727 15.38 3.62 6.448 8.477 6.981 9.402 3.134s1.865-8.101 1.912-9.143c-1.026-2.111-2.588-3.916-4.529-5.234-3.737-2.499-6.472-2.304-7.012-7.122-.486-4.364 4.481-10.499 13.437-15.897 10.154-6.143 9.566-11.259 9.566-11.259z"/><path id="a" d="M284.24 361.927c.408 2.1 2.241 4.458 3.087 7.725a58.64 58.64 0 0 1 1.826 11.385l.36 5.359 1.45-.094-.643-9.763c-.204-2.985.29-5.265 1.692-5.68 0 0-.728-9.402-7.772-8.932z"/><path id="b" d="M287.859 348.922c-.736 2.554-2.93 5.226-3.8 9.081-.342 1.629-.167 3.324.502 4.849 1.23 1.121 2.021 1.489 2.938 2.257 1.629 1.121 2.958 2.625 3.87 4.38 1.743 3.703 3.228 7.522 4.443 11.431 1.245 3.839 1.802 6.182 5.327 7.835 2.758 1.3 10.969 2.35 16.454 2.24 7.482-.141 10.287-4.23 7.263-6.855s-6.339-5.539-7.24-6.08a13.57 13.57 0 0 0-6.847 1.567c-4.012 2.139-5.148 4.701-9.708 2.852-4.129-1.645-7.232-9.01-7.764-19.587-.627-12.027-5.438-13.97-5.438-13.97z"/><path id="c" d="M254.483 149.856c6.809.862 10.452 2.453 12.615 4.545s21.217 30.619 21.217 30.619l3.572-1.489s-2.844 3.134-.642 10.601 5.602 6.463 5.602 6.463-6.456 4.129-10.186 5.626-5.688.439-9.621-3.306-20.864-22.393-20.864-22.393l-1.693-30.666z"/><path id="d" d="M278.613 224.524c-4.701-1.786-7.937-3.432-7.992-4.701l-7.247 4.701 1.183-46.602 10.287.251c2.327 11.094 3.463 37.748 3.769 46.351z"/><path id="e" d="M229.881 148.439c3.854 6.989 7.286 17.543 7.012 32.374s-5.445 61.802-5.445 61.802-12.192 2.077-19.987-9.66c.203-4.262 3.416-14.354 5.359-21.444s-1.285-12.458-3.988-21.288c-1.771-5.79-4.388-15.278-3.299-23.238s4.255-14.667 9.872-16.015l10.476-2.531z"/><path id="f" d="M218.991 150.946c-4.662.745-8.94 1.356-12.481 5.148s-4.521 7.271-7.052 16.5-5.069 18.679-7.09 27.932-2.304 14.972.611 18.02 8.532 2.601 11.408 2.116 8.179-3.017 8.179-3.017-2.703-3.816-1.457-11.674 5.406-11.055 5.406-11.055l-1.622.447 6.159-15.122c2.522-6.174 1.911-23.81-2.061-29.295z"/><path id="g" d="M214.21 349.071h-46.955l4.858 20.23c.376 2.437 2.17 4.819 5.398 6.683 7.302 4.215 19.148 4.215 26.451 0 3.478-2.005 5.28-4.607 5.445-7.239l4.803-19.674z"/><path id="h" d="M216.616 343.085c-.272 1.31-.805 2.552-1.567 3.651a17.51 17.51 0 0 1-5.892 5.234c-10.186 5.884-26.725 5.884-36.919 0-2.335-1.274-4.35-3.064-5.891-5.234-.76-1.101-1.293-2.342-1.567-3.651-.909-4.426 1.567-9.033 7.458-12.426 10.186-5.892 26.725-5.892 36.919 0 5.876 3.393 8.367 8 7.459 12.426z"/><path id="i" d="M215.048 346.736a17.53 17.53 0 0 1-5.892 5.234c-10.185 5.884-26.725 5.884-36.918 0a17.53 17.53 0 0 1-5.892-5.234c-.759-1.101-1.292-2.342-1.567-3.651l1.16 7.96c.533 3.197 2.914 6.323 7.169 8.775 9.715 5.602 25.463 5.602 35.179 0 4.191-2.421 6.581-5.484 7.145-8.665l.063-.407 1.12-7.663c-.272 1.31-.805 2.552-1.567 3.651z"/><path id="j" d="M206.078 332.429c-8.494-4.904-22.267-4.904-30.76 0-4.803 2.782-6.887 6.527-6.268 10.147.485 2.781 2.577 5.484 6.268 7.607 8.493 4.913 22.266 4.913 30.76 0 3.682-2.123 5.774-4.826 6.267-7.599.627-3.597-1.457-7.373-6.267-10.155z"/></defs></svg>