<svg width="1304" height="415" viewBox="0 0 1304 415" fill="none" xmlns="http://www.w3.org/2000/svg">
<mask id="mask0_1005_1681" style="mask-type:alpha" maskUnits="userSpaceOnUse" x="18" y="18" width="1268" height="393">
<rect x="18" y="18" width="1268" height="393" rx="20" fill="#FAFAFA"/>
</mask>
<g mask="url(#mask0_1005_1681)">
<rect x="18" y="18" width="1268" height="393" rx="20" fill="white"/>
<circle cx="1279.5" cy="72.5" r="340.5" fill="url(#paint0_radial_1005_1681)"/>
<circle cx="63.9913" cy="73.9919" r="340.5" transform="rotate(-96.9099 63.9913 73.9919)" fill="url(#paint1_radial_1005_1681)"/>
<path d="M349.25 184.092C348.693 185.207 348.034 185.992 347.274 186.448C346.565 186.904 345.703 187.132 344.69 187.132C343.677 187.132 342.537 186.752 341.27 185.992C340.003 185.181 338.509 184.295 336.786 183.332C335.063 182.369 333.037 181.508 330.706 180.748C328.426 179.937 325.715 179.532 322.574 179.532C319.737 179.532 317.254 179.887 315.126 180.596C313.049 181.255 311.275 182.192 309.806 183.408C308.387 184.624 307.323 186.093 306.614 187.816C305.905 189.488 305.55 191.337 305.55 193.364C305.55 195.948 306.259 198.101 307.678 199.824C309.147 201.547 311.073 203.016 313.454 204.232C315.835 205.448 318.546 206.537 321.586 207.5C324.626 208.463 327.717 209.501 330.858 210.616C334.05 211.68 337.166 212.947 340.206 214.416C343.246 215.835 345.957 217.659 348.338 219.888C350.719 222.067 352.619 224.752 354.038 227.944C355.507 231.136 356.242 235.012 356.242 239.572C356.242 244.537 355.381 249.199 353.658 253.556C351.986 257.863 349.503 261.637 346.21 264.88C342.967 268.072 338.99 270.605 334.278 272.48C329.566 274.304 324.17 275.216 318.09 275.216C314.594 275.216 311.149 274.861 307.754 274.152C304.359 273.493 301.091 272.531 297.95 271.264C294.859 269.997 291.946 268.477 289.21 266.704C286.525 264.931 284.118 262.955 281.99 260.776L287.918 250.972C288.475 250.263 289.134 249.68 289.894 249.224C290.705 248.717 291.591 248.464 292.554 248.464C293.821 248.464 295.189 248.996 296.658 250.06C298.127 251.073 299.85 252.213 301.826 253.48C303.853 254.747 306.209 255.912 308.894 256.976C311.63 257.989 314.898 258.496 318.698 258.496C324.525 258.496 329.034 257.128 332.226 254.392C335.418 251.605 337.014 247.628 337.014 242.46C337.014 239.572 336.279 237.216 334.81 235.392C333.391 233.568 331.491 232.048 329.11 230.832C326.729 229.565 324.018 228.501 320.978 227.64C317.938 226.779 314.847 225.841 311.706 224.828C308.565 223.815 305.474 222.599 302.434 221.18C299.394 219.761 296.683 217.912 294.302 215.632C291.921 213.352 289.995 210.515 288.526 207.12C287.107 203.675 286.398 199.444 286.398 194.428C286.398 190.425 287.183 186.524 288.754 182.724C290.375 178.924 292.706 175.555 295.746 172.616C298.837 169.677 302.611 167.321 307.07 165.548C311.529 163.775 316.621 162.888 322.346 162.888C328.831 162.888 334.81 163.901 340.282 165.928C345.754 167.955 350.415 170.792 354.266 174.44L349.25 184.092ZM477.254 219.052C477.254 227.108 475.911 234.581 473.226 241.472C470.541 248.312 466.766 254.24 461.902 259.256C457.038 264.272 451.186 268.199 444.346 271.036C437.506 273.823 429.931 275.216 421.622 275.216C413.313 275.216 405.713 273.823 398.822 271.036C391.982 268.199 386.105 264.272 381.19 259.256C376.326 254.24 372.551 248.312 369.866 241.472C367.181 234.581 365.838 227.108 365.838 219.052C365.838 210.996 367.181 203.548 369.866 196.708C372.551 189.817 376.326 183.864 381.19 178.848C386.105 173.832 391.982 169.931 398.822 167.144C405.713 164.307 413.313 162.888 421.622 162.888C429.931 162.888 437.506 164.307 444.346 167.144C451.186 169.981 457.038 173.908 461.902 178.924C466.766 183.889 470.541 189.817 473.226 196.708C475.911 203.548 477.254 210.996 477.254 219.052ZM456.278 219.052C456.278 213.023 455.467 207.627 453.846 202.864C452.275 198.051 449.995 193.972 447.006 190.628C444.017 187.284 440.369 184.725 436.062 182.952C431.806 181.179 426.993 180.292 421.622 180.292C416.251 180.292 411.413 181.179 407.106 182.952C402.799 184.725 399.126 187.284 396.086 190.628C393.097 193.972 390.791 198.051 389.17 202.864C387.549 207.627 386.738 213.023 386.738 219.052C386.738 225.081 387.549 230.503 389.17 235.316C390.791 240.079 393.097 244.132 396.086 247.476C399.126 250.769 402.799 253.303 407.106 255.076C411.413 256.849 416.251 257.736 421.622 257.736C426.993 257.736 431.806 256.849 436.062 255.076C440.369 253.303 444.017 250.769 447.006 247.476C449.995 244.132 452.275 240.079 453.846 235.316C455.467 230.503 456.278 225.081 456.278 219.052ZM568.956 248.084C570.071 248.084 571.034 248.515 571.844 249.376L579.9 258.116C575.442 263.639 569.944 267.869 563.408 270.808C556.923 273.747 549.12 275.216 540 275.216C531.843 275.216 524.496 273.823 517.96 271.036C511.475 268.249 505.927 264.373 501.316 259.408C496.706 254.443 493.159 248.515 490.676 241.624C488.244 234.733 487.028 227.209 487.028 219.052C487.028 210.793 488.396 203.244 491.132 196.404C493.868 189.513 497.719 183.585 502.684 178.62C507.65 173.655 513.578 169.804 520.468 167.068C527.41 164.281 535.06 162.888 543.42 162.888C551.578 162.888 558.696 164.205 564.776 166.84C570.907 169.424 576.151 172.869 580.508 177.176L573.668 186.676C573.263 187.284 572.731 187.816 572.072 188.272C571.464 188.728 570.603 188.956 569.488 188.956C568.323 188.956 567.132 188.5 565.916 187.588C564.7 186.676 563.155 185.688 561.28 184.624C559.406 183.56 557.024 182.572 554.136 181.66C551.299 180.748 547.676 180.292 543.268 180.292C538.1 180.292 533.338 181.204 528.98 183.028C524.674 184.801 520.95 187.36 517.808 190.704C514.718 194.048 512.286 198.127 510.512 202.94C508.79 207.703 507.928 213.073 507.928 219.052C507.928 225.233 508.79 230.731 510.512 235.544C512.286 240.357 514.667 244.411 517.656 247.704C520.646 250.997 524.167 253.531 528.22 255.304C532.274 257.027 536.631 257.888 541.292 257.888C544.079 257.888 546.587 257.736 548.816 257.432C551.096 257.128 553.174 256.647 555.048 255.988C556.974 255.329 558.772 254.493 560.444 253.48C562.167 252.416 563.864 251.124 565.536 249.604C566.043 249.148 566.575 248.793 567.132 248.54C567.69 248.236 568.298 248.084 568.956 248.084ZM618.417 274H597.897V164.104H618.417V274ZM712.498 164.104V180.368H663.782V210.844H702.162V226.576H663.782V257.66H712.498V274H643.186V164.104H712.498ZM807.614 164.104V180.9H774.554V274H754.11V180.9H720.898V164.104H807.614ZM843.597 274H823.077V164.104H843.597V274ZM937.678 164.104V180.368H888.962V210.844H927.342V226.576H888.962V257.66H937.678V274H868.366V164.104H937.678ZM1014.25 184.092C1013.69 185.207 1013.03 185.992 1012.27 186.448C1011.56 186.904 1010.7 187.132 1009.69 187.132C1008.68 187.132 1007.54 186.752 1006.27 185.992C1005 185.181 1003.51 184.295 1001.79 183.332C1000.06 182.369 998.037 181.508 995.706 180.748C993.426 179.937 990.715 179.532 987.574 179.532C984.737 179.532 982.254 179.887 980.126 180.596C978.049 181.255 976.275 182.192 974.806 183.408C973.387 184.624 972.323 186.093 971.614 187.816C970.905 189.488 970.55 191.337 970.55 193.364C970.55 195.948 971.259 198.101 972.678 199.824C974.147 201.547 976.073 203.016 978.454 204.232C980.835 205.448 983.546 206.537 986.586 207.5C989.626 208.463 992.717 209.501 995.858 210.616C999.05 211.68 1002.17 212.947 1005.21 214.416C1008.25 215.835 1010.96 217.659 1013.34 219.888C1015.72 222.067 1017.62 224.752 1019.04 227.944C1020.51 231.136 1021.24 235.012 1021.24 239.572C1021.24 244.537 1020.38 249.199 1018.66 253.556C1016.99 257.863 1014.5 261.637 1011.21 264.88C1007.97 268.072 1003.99 270.605 999.278 272.48C994.566 274.304 989.17 275.216 983.09 275.216C979.594 275.216 976.149 274.861 972.754 274.152C969.359 273.493 966.091 272.531 962.95 271.264C959.859 269.997 956.946 268.477 954.21 266.704C951.525 264.931 949.118 262.955 946.99 260.776L952.918 250.972C953.475 250.263 954.134 249.68 954.894 249.224C955.705 248.717 956.591 248.464 957.554 248.464C958.821 248.464 960.189 248.996 961.658 250.06C963.127 251.073 964.85 252.213 966.826 253.48C968.853 254.747 971.209 255.912 973.894 256.976C976.63 257.989 979.898 258.496 983.698 258.496C989.525 258.496 994.034 257.128 997.226 254.392C1000.42 251.605 1002.01 247.628 1002.01 242.46C1002.01 239.572 1001.28 237.216 999.81 235.392C998.391 233.568 996.491 232.048 994.11 230.832C991.729 229.565 989.018 228.501 985.978 227.64C982.938 226.779 979.847 225.841 976.706 224.828C973.565 223.815 970.474 222.599 967.434 221.18C964.394 219.761 961.683 217.912 959.302 215.632C956.921 213.352 954.995 210.515 953.526 207.12C952.107 203.675 951.398 199.444 951.398 194.428C951.398 190.425 952.183 186.524 953.754 182.724C955.375 178.924 957.706 175.555 960.746 172.616C963.837 169.677 967.611 167.321 972.07 165.548C976.529 163.775 981.621 162.888 987.346 162.888C993.831 162.888 999.81 163.901 1005.28 165.928C1010.75 167.955 1015.42 170.792 1019.27 174.44L1014.25 184.092Z" fill="#7694FF"/>
</g>
<defs>
<radialGradient id="paint0_radial_1005_1681" cx="0" cy="0" r="1" gradientUnits="userSpaceOnUse" gradientTransform="translate(2164.5 -401.5) rotate(149.221) scale(1275.1)">
<stop stop-color="#7694FF"/>
<stop offset="1" stop-color="white"/>
</radialGradient>
<radialGradient id="paint1_radial_1005_1681" cx="0" cy="0" r="1" gradientUnits="userSpaceOnUse" gradientTransform="translate(639.656 -894.275) rotate(124.433) scale(1390.37)">
<stop stop-color="#7694FF"/>
<stop offset="1" stop-color="white"/>
</radialGradient>
</defs>
</svg>
