<svg xmlns="http://www.w3.org/2000/svg" width="1341" height="999" fill="none" viewBox="0 0 1341 999"><path fill="#7694FF" d="M644.663 193.289C773.612 207.712 830.204 95.9204 958 110.558C1072.04 123.614 1150.7 204.87 1124.08 314.302C1100.43 411.456 987.865 441.937 947.84 532.952C905.402 629.462 872.508 733.452 744.364 767.043C492.766 832.992 370.547 523.408 353.416 345.588C346.848 277.333 335.374 114.15 424.485 93.0251C514.159 71.7392 565.658 184.442 644.663 193.289Z"/><path fill="#fff" d="M644.663 193.289C773.612 207.712 830.204 95.9204 958 110.558C1072.04 123.614 1150.7 204.87 1124.08 314.302C1100.43 411.456 987.865 441.937 947.84 532.952C905.402 629.462 872.508 733.452 744.364 767.043C492.766 832.992 370.547 523.408 353.416 345.588C346.848 277.333 335.374 114.15 424.485 93.0251C514.159 71.7392 565.658 184.442 644.663 193.289Z" opacity=".9"/><path fill="#F5F5F5" d="M670.211 998.776C957.283 998.776 1190 985.189 1190 968.429C1190 951.668 957.283 938.082 670.211 938.082C383.14 938.082 150.422 951.668 150.422 968.429C150.422 985.189 383.14 998.776 670.211 998.776Z"/><path fill="#7694FF" d="M279.126 395.047L276.452 395.239L280.013 444.68L282.687 444.487L279.126 395.047Z"/><path fill="#7694FF" d="M284.504 470.011L281.83 470.203L283.171 488.814L285.845 488.621L284.504 470.011Z"/><path fill="#7694FF" d="M905.348 697.449H331.218C324.827 697.334 318.705 694.857 314.032 690.496C309.359 686.135 306.466 680.198 305.911 673.83L277.709 282.078C277.446 279.057 277.82 276.014 278.805 273.146C279.79 270.278 281.365 267.648 283.428 265.426C285.492 263.203 287.998 261.438 290.785 260.243C293.572 259.047 296.579 258.449 299.611 258.487H873.741C880.128 258.601 886.246 261.074 890.918 265.43C895.591 269.785 898.486 275.716 899.048 282.078L927.251 673.83C927.513 676.853 927.139 679.897 926.154 682.766C925.169 685.636 923.595 688.267 921.532 690.492C919.469 692.717 916.963 694.485 914.176 695.683C911.389 696.881 908.382 697.482 905.348 697.449V697.449Z"/><path fill="#7694FF" d="M907.547 697.449H333.417C327.026 697.334 320.904 694.857 316.231 690.496C311.558 686.135 308.665 680.198 308.11 673.83L279.907 282.078C279.645 279.057 280.018 276.014 281.003 273.146C281.988 270.278 283.563 267.648 285.627 265.426C287.69 263.203 290.196 261.438 292.983 260.243C295.771 259.047 298.777 258.449 301.81 258.487H875.939C882.326 258.601 888.445 261.074 893.117 265.43C897.789 269.785 900.685 275.716 901.247 282.078L929.449 673.83C929.715 676.854 929.345 679.899 928.362 682.771C927.378 685.642 925.804 688.276 923.74 690.501C921.676 692.726 919.169 694.495 916.38 695.691C913.591 696.888 910.581 697.487 907.547 697.449V697.449Z"/><path fill="#fff" d="M907.547 697.449H333.417C327.026 697.334 320.904 694.857 316.231 690.496C311.558 686.135 308.665 680.198 308.11 673.83L279.907 282.078C279.645 279.057 280.018 276.014 281.003 273.146C281.988 270.278 283.563 267.648 285.627 265.426C287.69 263.203 290.196 261.438 292.983 260.243C295.771 259.047 298.777 258.449 301.81 258.487H875.939C882.326 258.601 888.445 261.074 893.117 265.43C897.789 269.785 900.685 275.716 901.247 282.078L929.449 673.83C929.715 676.854 929.345 679.899 928.362 682.771C927.378 685.642 925.804 688.276 923.74 690.501C921.676 692.726 919.169 694.495 916.38 695.691C913.591 696.888 910.581 697.487 907.547 697.449V697.449Z" opacity=".5"/><path fill="#7694FF" d="M876.797 270.283H302.667H300.737C286.073 271.489 289.076 293.821 303.874 293.821H878.969C893.794 293.821 893.579 271.489 878.727 270.283H876.797Z"/><path fill="#FAFAFA" d="M317.627 282.078C317.683 282.77 317.594 283.465 317.365 284.119C317.136 284.774 316.772 285.373 316.297 285.878C315.822 286.384 315.246 286.784 314.607 287.053C313.968 287.322 313.28 287.454 312.587 287.44C311.129 287.42 309.732 286.861 308.662 285.871C307.593 284.88 306.928 283.53 306.796 282.078C306.74 281.39 306.828 280.697 307.056 280.044C307.283 279.391 307.644 278.793 308.116 278.289C308.588 277.784 309.161 277.383 309.797 277.113C310.433 276.842 311.118 276.707 311.809 276.717C313.271 276.731 314.675 277.287 315.75 278.278C316.825 279.268 317.494 280.623 317.627 282.078Z"/><path fill="#FAFAFA" d="M336.044 282.078C336.1 282.77 336.011 283.465 335.782 284.119C335.553 284.774 335.189 285.373 334.715 285.878C334.24 286.384 333.664 286.784 333.025 287.053C332.386 287.322 331.697 287.454 331.004 287.44C329.547 287.42 328.149 286.861 327.08 285.871C326.011 284.88 325.346 283.53 325.213 282.078C325.157 281.39 325.246 280.697 325.473 280.044C325.701 279.391 326.062 278.793 326.534 278.289C327.006 277.784 327.578 277.383 328.214 277.113C328.85 276.842 329.536 276.707 330.227 276.717C331.688 276.731 333.093 277.287 334.168 278.278C335.243 279.268 335.911 280.623 336.044 282.078Z"/><path fill="#FAFAFA" d="M354.434 282.079C354.491 282.767 354.402 283.46 354.175 284.113C353.947 284.766 353.586 285.364 353.114 285.868C352.642 286.373 352.07 286.774 351.434 287.044C350.798 287.315 350.112 287.45 349.421 287.44C347.962 287.426 346.561 286.869 345.491 285.877C344.42 284.886 343.757 283.532 343.631 282.079C343.57 281.389 343.656 280.694 343.882 280.04C344.107 279.385 344.469 278.785 344.941 278.28C345.414 277.774 345.988 277.373 346.626 277.104C347.264 276.835 347.952 276.703 348.644 276.717C350.101 276.737 351.499 277.296 352.568 278.286C353.637 279.277 354.302 280.627 354.434 282.079V282.079Z"/><path fill="#fff" d="M892.319 658.362H343.148C340.828 658.323 338.605 657.424 336.911 655.839C335.217 654.254 334.172 652.096 333.98 649.783L310.79 327.626C310.687 326.521 310.82 325.406 311.181 324.356C311.541 323.306 312.121 322.344 312.882 321.536C313.643 320.727 314.567 320.089 315.593 319.665C316.619 319.24 317.723 319.039 318.833 319.074H868.138C870.455 319.106 872.678 320 874.373 321.58C876.068 323.161 877.113 325.316 877.306 327.626L900.523 649.783C900.623 650.903 900.483 652.031 900.111 653.092C899.74 654.154 899.146 655.123 898.369 655.935C897.592 656.748 896.65 657.385 895.607 657.803C894.563 658.222 893.442 658.412 892.319 658.362V658.362Z"/><path fill="#fff" d="M660.909 535.633L651.955 411.456L624.878 395.157H550.324L560.457 535.633H660.909Z"/><path fill="#7694FF" d="M660.909 536.919H560.457C560.125 536.927 559.803 536.806 559.558 536.581C559.313 536.356 559.165 536.045 559.144 535.713L549.037 395.237C549.024 395.06 549.049 394.883 549.109 394.717C549.169 394.551 549.263 394.399 549.386 394.272C549.504 394.139 549.648 394.033 549.81 393.959C549.971 393.885 550.146 393.846 550.324 393.843H624.878C625.113 393.851 625.343 393.915 625.548 394.03L652.625 410.33C652.807 410.434 652.961 410.582 653.073 410.759C653.185 410.937 653.252 411.139 653.268 411.349L662.169 535.525C662.187 535.706 662.166 535.889 662.105 536.06C662.045 536.232 661.948 536.388 661.82 536.517C661.704 536.643 661.563 536.743 661.406 536.812C661.249 536.881 661.08 536.918 660.909 536.919V536.919ZM561.717 534.239H659.488L650.695 412.126L624.637 396.443H551.718L561.717 534.239Z"/><path fill="#EBEBEB" d="M651.955 411.456L624.878 395.157L634.824 416.764L651.955 411.456Z"/><path fill="#7694FF" d="M634.824 418.051C634.577 418.049 634.335 417.978 634.126 417.845C633.917 417.713 633.75 417.524 633.644 417.3L623.698 395.692C623.582 395.439 623.549 395.155 623.601 394.881C623.654 394.607 623.791 394.357 623.993 394.164C624.206 393.983 624.47 393.872 624.749 393.848C625.028 393.824 625.308 393.888 625.548 394.03L652.625 410.33C652.843 410.461 653.02 410.652 653.134 410.88C653.248 411.108 653.294 411.363 653.268 411.617C653.234 411.863 653.13 412.095 652.968 412.285C652.807 412.475 652.595 412.615 652.357 412.689L635.199 418.051H634.824ZM627.827 398.427L635.521 415.182L648.925 411.081L627.827 398.427Z"/><path fill="#7694FF" d="M592.467 458.424C592.507 459.153 592.398 459.882 592.147 460.567C591.895 461.252 591.507 461.878 591.005 462.408C590.503 462.937 589.898 463.359 589.227 463.647C588.557 463.934 587.835 464.082 587.105 464.081C585.575 464.054 584.109 463.46 582.99 462.416C581.871 461.371 581.179 459.949 581.046 458.424C580.977 457.688 581.066 456.946 581.307 456.247C581.547 455.547 581.934 454.908 582.441 454.37C582.949 453.832 583.565 453.408 584.249 453.128C584.933 452.847 585.669 452.715 586.408 452.741C587.941 452.775 589.407 453.374 590.525 454.423C591.644 455.472 592.335 456.897 592.467 458.424Z"/><path fill="#7694FF" d="M629.194 458.425C629.259 459.159 629.167 459.898 628.925 460.594C628.683 461.29 628.295 461.926 627.788 462.461C627.281 462.996 626.666 463.417 625.984 463.696C625.303 463.976 624.569 464.107 623.832 464.081C622.299 464.054 620.83 463.462 619.707 462.418C618.583 461.374 617.886 459.952 617.747 458.425C617.703 457.694 617.809 456.962 618.059 456.274C618.309 455.586 618.697 454.956 619.199 454.424C619.701 453.891 620.307 453.467 620.98 453.178C621.652 452.888 622.377 452.74 623.109 452.741C624.648 452.763 626.124 453.357 627.249 454.407C628.374 455.458 629.068 456.89 629.194 458.425V458.425Z"/><path fill="#7694FF" d="M639.596 495.259C639.27 495.254 638.958 495.127 638.72 494.904C638.482 494.681 638.336 494.378 638.309 494.053C637.639 484.911 623.323 477.485 606.407 477.485C595.174 477.485 585.094 480.836 580.108 486.198C579.084 487.186 578.281 488.38 577.754 489.702C577.227 491.024 576.988 492.443 577.052 493.865C577.064 494.041 577.042 494.218 576.986 494.385C576.93 494.553 576.841 494.707 576.726 494.84C576.492 495.109 576.161 495.275 575.805 495.299C575.45 495.324 575.099 495.207 574.83 494.973C574.561 494.739 574.396 494.408 574.371 494.053C574.291 492.276 574.584 490.501 575.23 488.844C575.877 487.187 576.862 485.683 578.124 484.429C583.486 478.558 594.397 474.885 606.327 474.885C624.905 474.885 640.052 483.222 640.802 493.865C640.813 494.034 640.791 494.204 640.736 494.364C640.681 494.524 640.595 494.672 640.483 494.799C640.371 494.926 640.235 495.03 640.083 495.104C639.93 495.179 639.765 495.222 639.596 495.232V495.259Z"/><path fill="#7694FF" d="M571.476 446.95C571.149 446.944 570.835 446.82 570.591 446.602C570.347 446.356 570.21 446.023 570.21 445.677C570.21 445.33 570.347 444.998 570.591 444.752L576.301 438.613C576.546 438.377 576.873 438.245 577.213 438.245C577.553 438.245 577.879 438.377 578.124 438.613C578.244 438.732 578.339 438.874 578.404 439.031C578.469 439.187 578.503 439.355 578.503 439.524C578.503 439.694 578.469 439.861 578.404 440.018C578.339 440.174 578.244 440.316 578.124 440.436L572.414 446.575C572.291 446.698 572.144 446.794 571.983 446.859C571.822 446.923 571.649 446.954 571.476 446.95V446.95Z"/><path fill="#7694FF" d="M636.915 446.95C636.59 446.935 636.279 446.812 636.031 446.602L629.462 440.463C629.338 440.343 629.24 440.199 629.172 440.04C629.105 439.881 629.07 439.71 629.07 439.538C629.07 439.365 629.105 439.194 629.172 439.035C629.24 438.877 629.338 438.733 629.462 438.613C629.707 438.377 630.034 438.245 630.374 438.245C630.714 438.245 631.041 438.377 631.285 438.613L637.853 444.752C637.973 444.871 638.069 445.014 638.134 445.17C638.199 445.326 638.232 445.494 638.232 445.663C638.232 445.833 638.199 446.001 638.134 446.157C638.069 446.313 637.973 446.455 637.853 446.575C637.599 446.813 637.264 446.947 636.915 446.95V446.95Z"/><path fill="#7694FF" d="M542.228 563.379H548.287L557.026 575.014L556.195 563.379H562.307L563.809 584.397H557.616L548.93 572.843L549.761 584.397H543.649L542.228 563.379Z"/><path fill="#7694FF" d="M566.543 573.888C566.336 572.461 566.434 571.006 566.832 569.62C567.229 568.233 567.917 566.947 568.848 565.846C569.867 564.844 571.087 564.07 572.427 563.576C573.768 563.081 575.198 562.877 576.623 562.977C579.644 562.814 582.611 563.822 584.907 565.792C587.009 567.886 588.228 570.708 588.311 573.674C588.533 575.72 588.257 577.789 587.507 579.706C586.813 581.249 585.65 582.535 584.183 583.379C582.423 584.322 580.441 584.776 578.446 584.692C576.395 584.757 574.354 584.373 572.468 583.566C570.815 582.773 569.42 581.527 568.446 579.974C567.296 578.144 566.64 576.047 566.543 573.888V573.888ZM573.057 573.888C573.031 575.533 573.56 577.139 574.559 578.446C574.977 578.907 575.492 579.271 576.066 579.512C576.64 579.752 577.261 579.865 577.883 579.84C578.477 579.881 579.073 579.779 579.619 579.541C580.165 579.303 580.645 578.936 581.019 578.473C581.789 577.008 582.044 575.328 581.743 573.701C581.755 572.124 581.225 570.591 580.242 569.358C579.812 568.905 579.291 568.549 578.714 568.313C578.136 568.078 577.515 567.968 576.891 567.991C576.308 567.965 575.727 568.078 575.196 568.321C574.664 568.563 574.198 568.928 573.835 569.385C573.05 570.766 572.775 572.379 573.057 573.942V573.888Z"/><path fill="#7694FF" d="M600.911 563.38H610.562C612.153 563.329 613.739 563.593 615.227 564.157C616.405 564.651 617.452 565.413 618.283 566.382C619.127 567.366 619.774 568.504 620.187 569.733C620.621 571.053 620.892 572.422 620.991 573.808C621.197 575.56 621.06 577.336 620.589 579.036C620.22 580.213 619.566 581.281 618.685 582.146C617.951 582.923 617.027 583.495 616.005 583.808C614.758 584.169 613.469 584.367 612.171 584.397H602.547L600.911 563.38ZM607.748 568.152L608.579 579.626H610.16C611.139 579.69 612.119 579.534 613.029 579.17C613.629 578.822 614.071 578.255 614.262 577.588C614.569 576.398 614.642 575.16 614.476 573.942C614.528 572.307 614.027 570.701 613.056 569.385C612.558 568.934 611.972 568.592 611.335 568.38C610.698 568.168 610.024 568.09 609.356 568.152H607.748Z"/><path fill="#7694FF" d="M636.567 580.912H629.194L628.417 584.397H621.795L628.176 563.379H635.36L644.77 584.397H637.961L636.567 580.912ZM634.878 576.382L632.036 568.822L630.267 576.382H634.878Z"/><path fill="#7694FF" d="M641.714 563.379H661.445L661.82 568.58H655.199L656.325 584.397H649.837L648.711 568.58H642.089L641.714 563.379Z"/><path fill="#7694FF" d="M676.565 580.912H669.193L668.415 584.397H661.793L668.174 563.379H675.251L684.634 584.397H677.852L676.565 580.912ZM674.876 576.382L672.007 568.822L670.211 576.382H674.876Z"/><path fill="#FFB573" d="M948.188 316.554C950.574 315.348 953.55 313.873 956.07 312.345C958.59 310.817 961.432 309.343 964.112 307.734C969.34 304.49 974.648 301.3 979.661 297.761C989.73 290.872 999.168 283.103 1007.86 274.545C1008.96 273.526 1009.93 272.4 1010.97 271.301L1012.5 269.666L1013.25 268.862L1013.63 268.433C1013.25 269.157 1013.63 268.942 1013.63 268.245C1013.86 267.288 1014 266.308 1014.03 265.323C1013.97 259.623 1013.31 253.944 1012.07 248.38C1009.69 236.37 1006.07 223.984 1002.5 211.867L1012.9 207.31C1019.47 218.935 1024.95 231.14 1029.28 243.769C1031.72 250.594 1033.27 257.702 1033.89 264.921C1034.06 267.165 1033.99 269.421 1033.68 271.65C1033.28 274.802 1032.16 277.82 1030.41 280.47L1029.95 281.086L1029.61 281.515L1029.2 282.025L1028.37 283.043L1026.71 285.054C1025.61 286.368 1024.54 287.735 1023.36 288.995C1014.19 299.168 1003.96 308.335 992.851 316.34C987.489 320.307 981.806 324.114 975.989 327.572C973.12 329.315 970.198 330.977 967.222 332.612C964.247 334.248 961.351 335.749 957.92 337.357L948.188 316.554Z"/><path fill="#7694FF" d="M924.329 946.821C926.336 946.771 928.332 946.501 930.28 946.017C930.379 945.987 930.468 945.931 930.539 945.856C930.609 945.781 930.659 945.688 930.682 945.588C930.695 945.485 930.68 945.38 930.637 945.286C930.595 945.191 930.527 945.11 930.441 945.052C929.664 944.542 922.854 940.146 920.227 941.325C919.936 941.461 919.686 941.672 919.502 941.935C919.319 942.199 919.208 942.506 919.182 942.826C919.077 943.332 919.103 943.856 919.258 944.349C919.413 944.842 919.691 945.286 920.066 945.641C921.298 946.537 922.812 946.956 924.329 946.821V946.821ZM928.752 945.266C924.865 946.043 921.916 945.909 920.71 944.864C920.468 944.617 920.292 944.313 920.199 943.981C920.105 943.648 920.096 943.297 920.173 942.96C920.183 942.818 920.231 942.682 920.311 942.564C920.391 942.446 920.501 942.352 920.629 942.29C922.05 941.674 925.991 943.658 928.752 945.266Z"/><path fill="#7694FF" d="M930.253 946.017H930.521C930.6 945.968 930.666 945.902 930.712 945.822C930.759 945.743 930.786 945.653 930.79 945.561C930.79 945.266 930.79 938.805 928.323 936.661C928.028 936.376 927.672 936.162 927.281 936.037C926.891 935.911 926.477 935.877 926.071 935.937C925.648 935.94 925.24 936.088 924.913 936.357C924.586 936.625 924.361 936.997 924.275 937.411C923.766 940.092 927.841 944.783 929.985 946.017C930.073 946.042 930.166 946.042 930.253 946.017V946.017ZM926.42 936.929C926.856 936.93 927.276 937.092 927.599 937.384C929.014 939.469 929.744 941.943 929.69 944.462C927.546 942.746 924.999 939.1 925.321 937.572C925.321 937.331 925.508 937.009 926.179 936.929H926.42Z"/><path fill="#FFB573" d="M928.162 249.506C925.481 262.911 920.12 289.719 929.369 298.7C929.369 298.7 925.723 312.104 900.978 312.104C873.741 312.104 887.976 298.7 887.976 298.7C902.828 295.161 902.426 284.143 899.853 273.768L928.162 249.506Z"/><path fill="#263238" d="M882.749 304.061C878.486 304.651 882.132 293.579 883.848 292.426C887.869 289.745 939.77 286.019 939.422 292.426C939.207 295.107 937.921 300.469 935.669 302.238C933.417 304.008 920.066 298.485 882.749 304.061Z"/><path fill="#263238" d="M891.22 300.255C887.816 301.407 888.137 290.255 889.29 288.915C891.971 285.805 933.98 275.028 935.213 281.113C935.695 283.794 935.937 289.156 934.489 291.059C933.041 292.963 920.71 289.826 891.22 300.255Z"/><path fill="#263238" d="M875.591 225.486C875.422 225.493 875.254 225.461 875.1 225.391C874.947 225.321 874.812 225.216 874.706 225.084C873.888 224.029 872.833 223.181 871.627 222.608C870.421 222.035 869.098 221.754 867.763 221.786C867.623 221.805 867.481 221.795 867.346 221.758C867.21 221.72 867.083 221.656 866.973 221.568C866.863 221.481 866.772 221.372 866.705 221.248C866.638 221.124 866.596 220.988 866.583 220.848C866.56 220.572 866.645 220.298 866.82 220.083C866.995 219.868 867.247 219.729 867.522 219.695C869.209 219.609 870.892 219.932 872.428 220.637C873.964 221.342 875.307 222.408 876.342 223.743C876.521 223.961 876.608 224.24 876.583 224.521C876.558 224.803 876.423 225.062 876.207 225.245C876.025 225.375 875.813 225.458 875.591 225.486V225.486Z"/><path fill="#FF5652" d="M870.39 238.595C869.174 242.872 867.369 246.959 865.028 250.739C866.012 251.305 867.107 251.648 868.237 251.745C869.367 251.843 870.504 251.691 871.57 251.302L870.39 238.595Z"/><path fill="#263238" d="M871.704 235.351C871.891 237.147 871.06 238.702 869.881 238.81C868.701 238.917 867.602 237.576 867.441 235.753C867.28 233.93 868.084 232.402 869.237 232.295C870.39 232.188 871.516 233.528 871.704 235.351Z"/><path fill="#263238" d="M869.773 232.349L865.323 231.518C865.323 231.518 867.87 234.681 869.773 232.349Z"/><path fill="#FFB573" d="M956.257 945.507H933.792L935.561 893.499H958.027L956.257 945.507Z"/><path fill="#263238" d="M932.023 942.907H957.25C957.684 942.896 958.108 943.046 958.439 943.328C958.771 943.61 958.986 944.004 959.046 944.435L961.914 964.38C961.971 964.885 961.92 965.395 961.765 965.879C961.61 966.362 961.355 966.807 961.015 967.185C960.676 967.562 960.26 967.863 959.796 968.068C959.332 968.274 958.829 968.378 958.322 968.375C949.529 968.241 945.293 967.705 934.194 967.705C927.358 967.705 917.385 968.428 907.976 968.428C898.566 968.428 898.03 959.099 901.97 958.268C919.557 954.461 922.345 949.26 928.27 944.274C929.325 943.398 930.651 942.914 932.023 942.907V942.907Z"/><g opacity=".2"><path fill="#000" d="M958.027 893.499H935.561L934.65 920.307H957.115L958.027 893.499Z" opacity=".2"/></g><path fill="#FFB573" d="M866.905 329.744C853.158 324.399 839.692 318.359 826.558 311.648C812.992 305.019 800.069 297.149 787.954 288.137C784.717 285.602 781.654 282.852 778.786 279.907C778.035 279.103 777.284 278.352 776.561 277.414C775.711 276.455 774.923 275.443 774.201 274.384C772.224 271.504 770.99 268.179 770.609 264.707C770.313 261.414 770.762 258.097 771.923 255.002C772.852 252.514 774.124 250.168 775.703 248.032C778.292 244.49 781.349 241.316 784.791 238.595C790.865 233.758 797.423 229.563 804.361 226.076C807.685 224.306 811.063 222.725 814.494 221.25C817.926 219.776 821.304 218.382 824.977 217.122L829.722 227.443C818.033 234.815 805.916 242.938 797.015 251.999C795.024 254.018 793.27 256.257 791.788 258.675C790.501 260.793 790.528 262.374 790.742 262.24C790.957 262.106 790.742 262.24 791.117 262.508L792.19 263.661C792.592 264.144 793.155 264.626 793.664 265.135C795.935 267.226 798.345 269.16 800.876 270.926C806.41 274.844 812.175 278.425 818.14 281.65C824.172 285.027 830.392 288.218 836.719 291.274C849.372 297.332 862.455 303.15 875.296 308.458L866.905 329.744Z"/><path fill="#FFB573" d="M836.424 220.231L840.123 212.189L823.18 206.425C823.18 206.425 817.819 222.269 824.172 229.561C826.828 229.142 829.337 228.071 831.476 226.443C833.614 224.814 835.315 222.68 836.424 220.231Z"/><path fill="#FFB573" d="M840.043 194.79L826.558 190.876L823.18 206.318L840.043 212.189V194.79Z"/><path fill="#FFB573" d="M1014.3 212.966L1016.25 194.2L998.883 198.382C998.883 198.382 998.615 216.022 1007.81 218.81L1014.3 212.966Z"/><path fill="#FFB573" d="M1007.89 180.984L996.551 186.265L998.883 198.249L1016.25 194.147L1007.89 180.984Z"/><path fill="#FFB573" d="M931.701 223.18C932.532 245.458 933.336 254.868 923.283 267.334C908.136 286.1 880.604 282.212 873.151 260.632C866.449 241.222 866.235 208.06 887.038 197.122C891.612 194.691 896.731 193.468 901.91 193.57C907.089 193.672 912.156 195.096 916.63 197.706C921.105 200.317 924.838 204.027 927.475 208.485C930.113 212.944 931.567 218.002 931.701 223.18V223.18Z"/><path fill="#263238" d="M921.996 267.307C943.872 257.844 958.241 237.818 952.183 206.774C946.365 176.99 926.259 174.041 917.948 180.207C909.638 186.372 888.915 177.177 876.476 187.632C855.029 205.782 875.296 225.164 885.912 236.88C892.239 249.908 900.55 276.556 921.996 267.307Z"/><path fill="#7694FF" d="M912.908 201.438C915.577 204.862 919.19 207.429 923.3 208.822C927.411 210.216 931.84 210.376 936.04 209.281C940.24 208.187 944.028 205.886 946.936 202.664C949.844 199.441 951.744 195.438 952.403 191.147C953.062 186.857 952.45 182.468 950.642 178.522C948.835 174.575 945.912 171.244 942.233 168.94C938.555 166.636 934.282 165.46 929.943 165.556C925.603 165.653 921.387 167.018 917.814 169.483C912.928 173.071 909.666 178.453 908.746 184.445C907.826 190.437 909.323 196.55 912.908 201.438Z"/><path fill="#263238" d="M918.592 182.297C915.455 164.336 932.425 150.503 955.158 157.178C977.892 163.853 965.882 183.986 961.19 200.071C956.499 216.156 968.777 231.491 973.871 219.239C978.964 206.988 970.386 203.154 970.386 203.154C970.386 203.154 994.513 209.401 972.101 236.611C949.689 263.822 929.395 233.77 934.891 216.049C939.341 201.814 921.567 199.267 918.592 182.297Z"/><path fill="#263238" d="M895.885 189.08C885.51 183.718 867.95 179.295 857.951 196.131C853.233 204.173 855.056 214.896 855.056 214.896L885.59 216.907L895.885 189.08Z"/><path fill="#263238" d="M851.463 209.588C851.283 209.575 851.115 209.491 850.995 209.356C850.875 209.221 850.812 209.045 850.82 208.865C850.82 208.409 851.597 197.632 858.112 190.876C873.848 174.523 892.293 188.195 897.547 192.619C897.66 192.738 897.725 192.895 897.73 193.06C897.735 193.224 897.679 193.385 897.573 193.511C897.467 193.637 897.318 193.719 897.155 193.743C896.992 193.766 896.826 193.728 896.689 193.637C891.622 189.294 873.982 176.292 859.157 191.788C852.991 198.195 852.241 208.838 852.241 208.945C852.238 209.04 852.215 209.134 852.173 209.22C852.132 209.306 852.072 209.382 851.998 209.443C851.924 209.504 851.839 209.549 851.746 209.574C851.654 209.599 851.558 209.604 851.463 209.588Z"/><path fill="#FFB573" d="M889.639 235.914C889.518 240.132 887.957 244.181 885.215 247.388C881.516 251.731 877.173 249.587 876.288 244.707C875.403 240.391 876.288 232.912 880.953 230.311C885.617 227.711 889.692 231.035 889.639 235.914Z"/><path fill="#263238" d="M884.813 439.98C884.813 439.98 886.261 595.871 899.772 682.731C910.71 752.888 930.897 915.133 930.897 915.133H961.539C961.539 915.133 964.515 758.491 958.858 689.111C944.837 513.516 981.055 480.675 951.834 439.98H884.813Z"/><path fill="#fff" d="M884.813 439.98C884.813 439.98 886.261 595.871 899.772 682.731C910.71 752.888 930.897 915.133 930.897 915.133H961.539C961.539 915.133 964.515 758.491 958.858 689.111C944.837 513.516 981.055 480.675 951.834 439.98H884.813Z" opacity=".1"/><path fill="#000" d="M900.925 510.701C911.648 557.75 903.096 631.848 897.225 664.474C891.006 614.932 887.869 550.726 886.314 503.624C891.864 494.67 897.118 494.08 900.925 510.701Z" opacity=".3"/><path fill="#7694FF" d="M926.715 915.723H965.721L967.758 902.051L926.5 900.657L926.715 915.723Z"/><path fill="#7694FF" d="M937.84 308.297C941.513 301.005 961.244 296.421 972.021 296.448L980.063 332.264C980.063 332.264 958.617 364.139 949.663 360.761C939.127 356.874 929.985 324.034 937.84 308.297Z"/><path fill="#000" d="M937.84 308.297C941.513 301.005 961.244 296.421 972.021 296.448L980.063 332.264C980.063 332.264 958.617 364.139 949.663 360.761C939.127 356.874 929.985 324.034 937.84 308.297Z" opacity=".4"/><path fill="#7694FF" d="M915.107 906.956C915.151 906.879 915.175 906.791 915.175 906.702C915.175 906.612 915.151 906.524 915.107 906.447C915.056 906.344 914.975 906.26 914.873 906.207C914.772 906.154 914.657 906.135 914.544 906.152C913.418 906.34 903.498 907.895 902.158 910.736C902.015 910.995 901.94 911.285 901.94 911.581C901.94 911.876 902.015 912.167 902.158 912.425C902.388 912.849 902.719 913.21 903.121 913.476C903.522 913.743 903.984 913.907 904.464 913.953C907.707 914.275 912.506 909.771 914.919 907.037L915.107 906.956ZM903.204 911.085C904.115 909.584 909.262 908.19 913.176 907.466C909.638 911.058 906.528 913.069 904.705 912.827C904.39 912.796 904.087 912.686 903.825 912.508C903.563 912.331 903.349 912.09 903.204 911.809C903.145 911.707 903.114 911.591 903.114 911.474C903.114 911.356 903.145 911.24 903.204 911.139C903.204 911.139 903.177 911.112 903.204 911.085Z"/><path fill="#FFB573" d="M938.51 897.44L917.975 906.581L908.834 887.521L896.877 862.589L895.456 859.693L915.991 850.552L917.573 853.822L929.154 877.977L938.51 897.44Z"/><path fill="#000" d="M929.154 877.977L908.833 887.521L896.877 862.589L917.573 853.822L929.154 877.977Z" opacity=".2"/><path fill="#263238" d="M860.739 439.98C860.739 439.98 795.139 603.19 812.913 679.862C828.998 749.269 900.04 880.711 900.04 880.711L927.573 866.931C927.573 866.931 883.633 708.252 878.888 673.776C869.613 606.755 929.208 512.041 929.208 439.98H860.739Z"/><path fill="#fff" d="M860.739 439.98C860.739 439.98 795.139 603.19 812.913 679.862C828.998 749.269 900.04 880.711 900.04 880.711L927.573 866.931C927.573 866.931 883.633 708.252 878.888 673.776C869.613 606.755 929.208 512.041 929.208 439.98H860.739Z" opacity=".1"/><path fill="#263238" d="M914.329 903.713L934.704 888.888C935.048 888.619 935.479 888.487 935.914 888.516C936.35 888.546 936.759 888.736 937.063 889.049L951.137 903.498C951.479 903.876 951.737 904.321 951.895 904.804C952.052 905.288 952.106 905.799 952.053 906.305C952 906.811 951.841 907.3 951.586 907.74C951.331 908.181 950.987 908.562 950.574 908.86C943.363 913.9 939.636 915.991 930.682 922.506C925.16 926.527 914.168 935.401 906.555 940.95C898.941 946.499 893.151 939.261 895.831 936.285C907.842 922.881 910.362 914.57 912.238 907.037C912.529 905.72 913.268 904.545 914.329 903.713V903.713Z"/><path fill="#7694FF" d="M898.271 886.529L933.738 870.31L929.208 855.86L891.22 873.178L898.271 886.529Z"/><path fill="#7694FF" d="M878.138 306.581C875.216 298.968 849.587 290.496 836.719 287.815L831.062 329.958C831.062 329.958 852.08 360.145 861.275 357.651C872.159 354.703 884.464 322.908 878.138 306.581Z"/><path fill="#000" d="M878.138 306.581C875.216 298.968 849.587 290.496 836.719 287.815L831.062 329.958C831.062 329.958 852.08 360.145 861.275 357.651C872.159 354.703 884.464 322.908 878.138 306.581Z" opacity=".4"/><path fill="#7694FF" d="M850.016 304.464C850.016 304.464 839.292 308.217 860.739 439.98H951.888C950.36 402.878 950.306 379.983 967.973 303.793C955.201 301.158 942.254 299.456 929.234 298.7C915.455 297.707 901.622 297.707 887.842 298.7C870.175 300.255 850.016 304.464 850.016 304.464Z"/><path fill="#000" d="M850.016 304.464C850.016 304.464 839.292 308.217 860.739 439.98H951.888C950.36 402.878 950.306 379.983 967.973 303.793C955.201 301.158 942.254 299.456 929.234 298.7C915.455 297.707 901.622 297.707 887.842 298.7C870.175 300.255 850.016 304.464 850.016 304.464Z" opacity=".4"/><path fill="#7694FF" d="M953.309 434.645L957.41 442.688C957.732 443.331 956.981 443.975 955.936 443.975H860.283C859.452 443.975 858.782 443.573 858.729 443.036L857.897 434.994C857.897 434.431 858.568 433.948 859.452 433.948H951.7C952.007 433.9 952.321 433.94 952.606 434.063C952.891 434.186 953.134 434.388 953.309 434.645Z"/><path fill="#fff" d="M953.309 434.645L957.41 442.688C957.732 443.331 956.981 443.975 955.936 443.975H860.283C859.452 443.975 858.782 443.573 858.729 443.036L857.897 434.994C857.897 434.431 858.568 433.948 859.452 433.948H951.7C952.007 433.9 952.321 433.94 952.606 434.063C952.891 434.186 953.134 434.388 953.309 434.645Z" opacity=".3"/><path fill="#263238" d="M940.977 445.02H943.443C943.952 445.02 944.328 444.752 944.274 444.457L943.121 433.734C943.121 433.412 942.666 433.171 942.183 433.171H939.69C939.207 433.171 938.832 433.412 938.859 433.734L940.012 444.457C939.985 444.699 940.414 445.02 940.977 445.02Z"/><path fill="#263238" d="M880.953 445.02H883.419C883.901 445.02 884.277 444.752 884.25 444.457L883.097 433.734C883.097 433.412 882.641 433.171 882.132 433.171H879.666C879.156 433.171 878.808 433.412 878.835 433.734L879.987 444.457C880.014 444.699 880.443 445.02 880.953 445.02Z"/></svg>