<svg xmlns="http://www.w3.org/2000/svg" width="471" height="332" fill="none" viewBox="0 0 471 332"><mask id="mask0_736_1792" width="471" height="332" x="0" y="0" maskUnits="userSpaceOnUse" style="mask-type:alpha"><path fill="#fff" d="M0 20C0 8.95431 8.9543 0 20 0H451C462.046 0 471 8.9543 471 20V332H0V20Z"/></mask><g mask="url(#mask0_736_1792)"><circle cx="295" cy="61" r="271" fill="url(#paint0_radial_736_1792)"/><path fill="#7694FF" d="M214.905 144.211C202.723 149.401 176.192 135.35 163.349 132.152C130.938 124.084 93.2433 137.698 96.4779 183.032C100.839 244.997 192.336 313.096 287.969 280.497C336.276 264.026 375.831 217.987 375.737 162.746C375.533 62.4247 280.395 59.023 250.499 84.1577C222.501 107.752 230.954 137.371 214.905 144.211Z"/><path fill="#fff" d="M214.905 144.211C202.723 149.401 176.192 135.35 163.349 132.152C130.938 124.084 93.2433 137.698 96.4779 183.032C100.839 244.997 192.336 313.096 287.969 280.497C336.276 264.026 375.831 217.987 375.737 162.746C375.533 62.4247 280.395 59.023 250.499 84.1577C222.501 107.752 230.954 137.371 214.905 144.211Z" opacity=".9"/><path fill="#F5F5F5" d="M232.211 310C310.045 310 373.142 306.316 373.142 301.772C373.142 297.228 310.045 293.544 232.211 293.544C154.378 293.544 91.2808 297.228 91.2808 301.772C91.2808 306.316 154.378 310 232.211 310Z"/><path fill="#fff" d="M233.36 299.17V301.038C233.359 301.258 233.402 301.475 233.485 301.679C233.569 301.882 233.692 302.067 233.847 302.222C234.003 302.377 234.188 302.501 234.391 302.584C234.594 302.668 234.812 302.71 235.032 302.709H304.374C304.854 302.708 305.314 302.517 305.654 302.178C305.994 301.839 306.187 301.38 306.191 300.9V298.959C306.191 298.448 306.132 297.938 306.017 297.44C305.917 297.006 305.776 296.582 305.595 296.175L288.725 258.865H249.336L255.384 293.805C255.422 294.009 255.439 294.216 255.435 294.423C255.417 295.249 255.076 296.035 254.485 296.612C253.893 297.188 253.099 297.509 252.273 297.505H235.032C234.812 297.504 234.595 297.547 234.392 297.63C234.19 297.713 234.005 297.835 233.85 297.99C233.695 298.145 233.571 298.329 233.487 298.531C233.403 298.733 233.36 298.95 233.36 299.17Z" opacity=".2"/><path fill="#263238" d="M307.819 296.182L290.956 258.865H288.725L305.588 296.182C305.983 297.055 306.189 298.001 306.191 298.959V300.892C306.191 301.374 306 301.836 305.659 302.177C305.318 302.518 304.856 302.709 304.374 302.709H306.605C306.844 302.709 307.08 302.662 307.3 302.571C307.52 302.48 307.72 302.346 307.888 302.177C308.056 302.008 308.189 301.808 308.28 301.587C308.37 301.367 308.416 301.131 308.415 300.892V298.959C308.415 298.002 308.212 297.055 307.819 296.182Z"/><path fill="#000" d="M288.725 258.865H249.336L250.885 267.784H292.752L288.725 258.865Z" opacity=".3"/><path fill="#263238" d="M366.369 135.205L356.92 243.507L355.771 256.634C355.603 258.299 354.83 259.844 353.599 260.977C352.368 262.11 350.764 262.753 349.091 262.783H181.013C180.226 262.796 179.445 262.641 178.723 262.329C178 262.018 177.352 261.555 176.822 260.974C176.292 260.392 175.892 259.704 175.648 258.956C175.405 258.208 175.323 257.416 175.408 256.634L176.557 243.507L186.006 135.205C186.175 133.541 186.948 131.997 188.179 130.865C189.41 129.733 191.014 129.092 192.686 129.063H360.736C362.057 129.049 363.343 129.496 364.37 130.328C364.509 130.439 364.64 130.561 364.762 130.691C365.144 131.068 365.466 131.502 365.715 131.978C365.891 132.295 366.03 132.632 366.129 132.981C366.35 133.7 366.431 134.455 366.369 135.205Z"/><path fill="#7694FF" d="M176.563 243.507L175.386 256.634C175.301 257.417 175.384 258.208 175.628 258.957C175.873 259.705 176.274 260.392 176.805 260.974C177.335 261.555 177.984 262.017 178.706 262.329C179.429 262.641 180.21 262.796 180.997 262.783H349.061C350.734 262.753 352.338 262.11 353.569 260.977C354.8 259.844 355.572 258.299 355.741 256.634L356.89 243.507H176.563Z"/><path fill="#fff" d="M176.563 243.507L175.386 256.634C175.301 257.417 175.384 258.208 175.628 258.957C175.873 259.705 176.274 260.392 176.805 260.974C177.335 261.555 177.984 262.017 178.706 262.329C179.429 262.641 180.21 262.796 180.997 262.783H349.061C350.734 262.753 352.338 262.11 353.569 260.977C354.8 259.844 355.572 258.299 355.741 256.634L356.89 243.507H176.563Z" opacity=".6"/><path fill="#7694FF" d="M350.965 239.793H183.141C182.715 239.8 182.292 239.717 181.9 239.549C181.508 239.38 181.157 239.13 180.87 238.815C180.582 238.5 180.365 238.127 180.233 237.722C180.101 237.316 180.056 236.888 180.103 236.464L188.883 136.106C188.974 135.201 189.395 134.361 190.065 133.746C190.735 133.131 191.608 132.783 192.518 132.77H360.327C360.754 132.762 361.178 132.846 361.571 133.015C361.963 133.184 362.314 133.434 362.602 133.75C362.89 134.066 363.106 134.44 363.238 134.846C363.37 135.252 363.413 135.682 363.366 136.106L354.585 236.464C354.493 237.365 354.074 238.201 353.407 238.815C352.74 239.428 351.871 239.776 350.965 239.793Z"/><path fill="#263238" d="M364.478 129.063H360.735C361.521 129.049 362.302 129.203 363.024 129.514C363.747 129.825 364.395 130.287 364.925 130.868C365.455 131.449 365.855 132.136 366.099 132.884C366.343 133.632 366.425 134.423 366.339 135.205L355.741 256.634C355.573 258.299 354.8 259.844 353.569 260.977C352.338 262.11 350.734 262.753 349.062 262.783H352.776C354.449 262.753 356.054 262.11 357.286 260.977C358.518 259.844 359.293 258.299 359.463 256.634L370.082 135.205C370.169 134.423 370.088 133.631 369.845 132.883C369.602 132.134 369.201 131.446 368.671 130.865C368.14 130.284 367.492 129.822 366.769 129.512C366.046 129.201 365.265 129.048 364.478 129.063Z"/><g opacity=".2"><path fill="#fff" d="M364.478 129.063H360.735C361.521 129.049 362.302 129.203 363.024 129.514C363.747 129.825 364.395 130.287 364.925 130.868C365.455 131.449 365.855 132.136 366.099 132.884C366.343 133.632 366.425 134.423 366.339 135.205L355.741 256.634C355.573 258.299 354.8 259.844 353.569 260.977C352.338 262.11 350.734 262.753 349.062 262.783H352.776C354.449 262.753 356.054 262.11 357.286 260.977C358.518 259.844 359.293 258.299 359.463 256.634L370.082 135.205C370.169 134.423 370.088 133.631 369.845 132.883C369.602 132.134 369.201 131.446 368.671 130.865C368.14 130.284 367.492 129.822 366.769 129.512C366.046 129.201 365.265 129.048 364.478 129.063Z" opacity=".2"/></g><g opacity=".1"><path fill="#fff" d="M245.978 132.77H239.524L216.78 239.793H223.235L245.978 132.77Z" opacity=".1"/><path fill="#fff" d="M210.253 239.793L233.004 132.77H208.749L185.998 239.793H210.253Z" opacity=".1"/></g><path fill="#fff" d="M294.205 299.184V300.958C294.205 301.421 294.022 301.866 293.695 302.194C293.368 302.522 292.924 302.708 292.461 302.71H235.039C234.596 302.71 234.17 302.533 233.857 302.22C233.543 301.906 233.367 301.481 233.367 301.038V299.177C233.367 298.734 233.543 298.308 233.857 297.995C234.17 297.681 234.596 297.505 235.039 297.505H252.287C252.505 297.505 252.721 297.483 252.934 297.44H292.468C292.929 297.442 293.371 297.626 293.697 297.953C294.022 298.28 294.205 298.723 294.205 299.184Z" opacity=".2"/><path fill="#000" d="M306.017 297.44H252.956C253.653 297.293 254.279 296.915 254.734 296.367C255.189 295.82 255.446 295.135 255.464 294.423H304.687L306.017 297.44Z" opacity=".2"/><path fill="#000" d="M356.206 150.44H275.438V243.492H356.206V150.44Z" opacity=".3"/><path fill="#fff" d="M351.946 140.62H271.331V239.422H351.946V140.62Z"/><path fill="#263238" d="M351.946 140.62H271.331V146.464H351.946V140.62Z"/><path fill="#000" d="M351.947 146.464H293.682V239.422H351.947V146.464Z" opacity=".1"/><path fill="#000" d="M312.922 148.688H296.553V167.616H312.922V148.688Z" opacity=".1"/><path fill="#000" d="M349.984 148.688H316.033V156.48H349.984V148.688Z" opacity=".1"/><path fill="#000" d="M349.984 159.824H316.033V201.851H349.984V159.824Z" opacity=".1"/><path fill="#000" d="M349.984 205.187H316.033V236.638H349.984V205.187Z" opacity=".1"/><path fill="#7694FF" d="M316.039 174.848H293.5V182.087H316.039V174.848Z"/><path fill="#7694FF" d="M293.871 159.824H271.331V167.063H293.871V159.824Z"/><path fill="#000" d="M349.984 212.078H316.033V215.835H349.984V212.078Z"/><path fill="#7694FF" d="M319.449 151.843L320.154 150.411L320.859 151.843L322.436 152.068L321.295 153.187L321.564 154.758L320.154 154.016L318.744 154.758L319.013 153.187L317.864 152.075L319.449 151.843Z"/><path fill="#7694FF" d="M325.874 151.843L326.579 150.411L327.292 151.843L328.869 152.068L327.728 153.187L327.997 154.758L326.586 154.016L325.169 154.758L325.438 153.187L324.297 152.075L325.874 151.843Z"/><path fill="#7694FF" d="M332.307 151.843L333.012 150.411L333.717 151.843L335.295 152.068L334.153 153.187L334.43 154.758L333.012 154.016L331.602 154.758L331.871 153.187L330.73 152.075L332.307 151.843Z"/><path fill="#000" d="M338.732 151.843L339.437 150.411L340.149 151.843L341.727 152.068L340.586 153.187L340.854 154.758L339.444 154.016L338.034 154.758L338.296 153.187L337.155 152.075L338.732 151.843Z"/><path fill="#000" d="M345.165 151.843L345.87 150.411L346.575 151.843L348.153 152.068L347.019 153.187L347.288 154.758L345.87 154.016L344.46 154.758L344.729 153.187L343.588 152.075L345.165 151.843Z"/><path fill="#263238" d="M331.806 163.531H318.453V164.257H331.806V163.531Z"/><path fill="#263238" d="M328.993 169.789H318.453V170.516H328.993V169.789Z"/><path fill="#263238" d="M328.993 175.262H318.453V175.989H328.993V175.262Z"/><path fill="#263238" d="M328.993 180.728H318.453V181.455H328.993V180.728Z"/><path fill="#263238" d="M328.993 186.194H318.453V186.921H328.993V186.194Z"/><path fill="#263238" d="M328.993 191.667H318.453V192.394H328.993V191.667Z"/><path fill="#263238" d="M328.993 197.133H318.453V197.86H328.993V197.133Z"/><path fill="#263238" d="M340.985 169.789H330.446V170.516H340.985V169.789Z"/><path fill="#263238" d="M340.985 175.262H330.446V175.989H340.985V175.262Z"/><path fill="#263238" d="M340.985 180.728H330.446V181.455H340.985V180.728Z"/><path fill="#263238" d="M340.985 186.194H330.446V186.921H340.985V186.194Z"/><path fill="#263238" d="M340.985 191.667H330.446V192.394H340.985V191.667Z"/><path fill="#263238" d="M340.985 197.133H330.446V197.86H340.985V197.133Z"/><path fill="#263238" d="M340.986 165.617H318.453V166.344H340.986V165.617Z"/><path fill="#263238" d="M340.986 208.785H318.453V209.512H340.986V208.785Z"/><path fill="#263238" d="M312.922 169.789H296.553V170.516H312.922V169.789Z"/><path fill="#263238" d="M312.922 185.714H296.553V186.441H312.922V185.714Z"/><path fill="#263238" d="M312.922 191.805H296.553V192.532H312.922V191.805Z"/><path fill="#263238" d="M312.922 197.889H296.553V198.616H312.922V197.889Z"/><path fill="#263238" d="M312.922 203.98H296.553V204.707H312.922V203.98Z"/><path fill="#263238" d="M312.922 210.071H296.553V210.798H312.922V210.071Z"/><path fill="#263238" d="M312.922 216.155H296.553V216.882H312.922V216.155Z"/><path fill="#263238" d="M312.922 222.246H296.553V222.973H312.922V222.246Z"/><path fill="#263238" d="M312.922 228.33H296.553V229.057H312.922V228.33Z"/><path fill="#263238" d="M304.737 172.137H296.553V172.863H304.737V172.137Z"/><path fill="#263238" d="M291.058 150.047H274.151V150.774H291.058V150.047Z"/><path fill="#263238" d="M291.058 154.743H274.151V155.47H291.058V154.743Z"/><path fill="#263238" d="M291.058 172.137H274.151V172.863H291.058V172.137Z"/><path fill="#fff" d="M296.582 167.521V165.217C301.706 163.386 307.296 163.327 312.457 165.05L312.951 165.217V167.521H296.582Z"/><path fill="#F7978D" d="M303.952 166.896C305.246 166.748 306.43 166.095 307.245 165.079C307.36 164.91 307.415 164.708 307.399 164.504C307.383 164.3 307.298 164.108 307.158 163.96C305.995 162.586 305.784 159.526 305.798 157.723L304.49 159.402L302.709 161.692C302.833 161.975 302.949 162.259 303.044 162.549C303.115 162.757 303.166 162.971 303.196 163.189C303.27 163.587 303.222 163.999 303.057 164.368C302.892 164.738 302.619 165.05 302.273 165.261C302.14 165.349 302.033 165.472 301.965 165.617C301.897 165.762 301.87 165.923 301.887 166.082C301.905 166.241 301.965 166.392 302.063 166.519C302.16 166.646 302.291 166.744 302.44 166.802C302.929 166.956 303.448 166.989 303.952 166.896Z"/><path fill="#000" d="M302.709 161.692C302.833 161.975 302.949 162.259 303.043 162.549C303.115 162.757 303.166 162.971 303.196 163.189C303.639 162.975 304.018 162.651 304.299 162.247C304.579 161.844 304.75 161.374 304.795 160.885C304.773 160.602 304.722 160.322 304.642 160.049L302.709 161.692Z" opacity=".2"/><path fill="#263238" d="M301.066 157.476C300.98 157.627 300.855 157.753 300.704 157.84C300.554 157.927 300.383 157.973 300.209 157.973C300.035 157.973 299.864 157.927 299.713 157.84C299.563 157.753 299.438 157.627 299.351 157.476C299.969 156.182 299.504 156.059 299.467 155.092C299.404 154.532 299.495 153.966 299.729 153.454C299.964 152.942 300.333 152.503 300.798 152.184H301.793C305.377 152.926 301.066 157.476 301.066 157.476Z"/><path fill="#F7978D" d="M306.83 154.379C306.72 153.929 306.521 153.505 306.247 153.131C305.972 152.757 305.626 152.441 305.229 152.2C304.833 151.96 304.392 151.8 303.934 151.73C303.475 151.66 303.007 151.681 302.557 151.792C299.773 152.402 298.61 156.226 298.697 158.675C298.711 159.382 298.936 160.068 299.344 160.645C299.609 161.018 299.946 161.335 300.334 161.578C300.722 161.821 301.155 161.985 301.606 162.061C302.058 162.137 302.52 162.122 302.966 162.019C303.413 161.916 303.834 161.726 304.207 161.459C305.82 160.34 306.096 158.792 306.794 156.197C306.962 155.604 306.975 154.978 306.83 154.379Z"/><path fill="#263238" d="M299.918 158.893C300.813 158.714 301.724 158.633 302.636 158.653C302.56 159.023 302.352 159.351 302.051 159.579C301.75 159.806 301.377 159.916 301.001 159.889C300.74 159.907 300.481 159.822 300.282 159.653C300.082 159.483 299.957 159.242 299.933 158.981C299.933 158.981 299.925 158.922 299.918 158.893Z"/><path fill="#FF5652" d="M301.444 159.351C301.046 159.333 300.655 159.457 300.339 159.7C300.532 159.83 300.762 159.894 300.994 159.882C301.39 159.903 301.78 159.779 302.091 159.533C301.901 159.403 301.674 159.339 301.444 159.351Z"/><path fill="#fff" d="M300.013 158.871C300.034 158.95 300.076 159.022 300.135 159.078C300.194 159.135 300.267 159.174 300.347 159.191C300.941 159.178 301.532 159.11 302.113 158.988C302.208 158.973 302.298 158.934 302.373 158.874C302.448 158.814 302.507 158.735 302.542 158.646C301.694 158.648 300.848 158.724 300.013 158.871Z"/><path fill="#263238" d="M305.871 159.635C305.871 159.635 304.715 157.018 304.81 156.168C304.833 155.661 305.008 155.173 305.311 154.766C305.614 154.36 306.032 154.053 306.511 153.885L307.485 154.089C311.722 155.841 305.871 159.635 305.871 159.635Z"/><path fill="#FF5652" d="M300.565 158.101C300.386 158.116 300.206 158.091 300.037 158.028C299.869 157.965 299.716 157.866 299.591 157.738C300.127 157.262 300.596 156.717 300.986 156.117L300.565 158.101Z"/><path fill="#F7978D" d="M306.773 156.844C306.104 156.742 305.392 157.57 305.101 158.166C304.81 158.762 304.999 159.475 305.704 159.315C306.265 159.163 306.755 158.821 307.092 158.348C307.521 157.738 307.434 156.938 306.773 156.844Z"/><path fill="#263238" d="M302.527 156.059C302.382 156.059 302.229 156.211 302.193 156.407C302.156 156.604 302.236 156.793 302.375 156.815C302.513 156.836 302.643 156.684 302.702 156.473C302.76 156.262 302.665 156.117 302.527 156.059Z"/><path fill="#263238" d="M300.136 155.528C299.998 155.528 299.846 155.652 299.802 155.87C299.758 156.088 299.838 156.277 299.976 156.298C300.115 156.32 300.267 156.168 300.311 155.95C300.354 155.731 300.274 155.55 300.136 155.528Z"/><path fill="#263238" d="M300.667 154.699C300.648 154.708 300.629 154.713 300.608 154.713C300.588 154.713 300.568 154.708 300.55 154.699C300.395 154.647 300.23 154.631 300.067 154.653C299.905 154.674 299.749 154.732 299.613 154.823C299.589 154.846 299.558 154.859 299.525 154.859C299.493 154.859 299.461 154.846 299.438 154.823C299.418 154.797 299.406 154.765 299.406 154.732C299.406 154.699 299.418 154.667 299.438 154.641C299.607 154.526 299.801 154.45 300.004 154.421C300.207 154.392 300.414 154.41 300.608 154.474C300.64 154.486 300.665 154.508 300.68 154.538C300.695 154.568 300.698 154.602 300.688 154.634C300.686 154.657 300.678 154.679 300.667 154.699Z"/><path fill="#263238" d="M303.269 155.746C303.225 155.744 303.183 155.726 303.152 155.695C303.063 155.559 302.944 155.446 302.804 155.363C302.664 155.28 302.508 155.229 302.346 155.215C302.329 155.216 302.312 155.214 302.296 155.208C302.28 155.202 302.266 155.193 302.254 155.182C302.241 155.17 302.232 155.156 302.225 155.141C302.218 155.125 302.215 155.109 302.215 155.092C302.217 155.06 302.23 155.029 302.253 155.006C302.276 154.984 302.306 154.97 302.338 154.968C302.542 154.98 302.741 155.038 302.919 155.139C303.096 155.24 303.249 155.381 303.363 155.55C303.385 155.575 303.397 155.607 303.397 155.641C303.397 155.674 303.385 155.706 303.363 155.731C303.349 155.74 303.334 155.746 303.318 155.749C303.301 155.751 303.285 155.75 303.269 155.746Z"/><path fill="#263238" d="M300.107 153.573C299.976 153.1 299.934 152.607 299.984 152.119C300.058 151.875 300.183 151.65 300.351 151.459C300.519 151.267 300.726 151.113 300.958 151.007C301.687 150.77 302.474 150.77 303.204 151.007C303.38 151.034 303.55 151.093 303.705 151.181C303.785 151.225 303.851 151.289 303.897 151.367C303.943 151.445 303.967 151.534 303.967 151.625C303.955 151.715 303.919 151.8 303.862 151.872C303.806 151.944 303.732 151.999 303.647 152.032C303.48 152.112 302.193 152.417 301.612 152.628C301.041 152.816 300.525 153.14 300.107 153.573Z"/><path fill="#263238" d="M308.299 152.163C308.768 152.602 309.094 153.173 309.234 153.8C309.374 154.428 309.322 155.083 309.084 155.681C308.88 156.101 308.654 156.511 308.408 156.909L306.605 155.673C305.784 155.235 305.145 154.519 304.803 153.653C304.617 153.197 304.278 152.821 303.844 152.589C303.409 152.358 302.907 152.287 302.426 152.388C302.179 152.439 301.837 152.49 301.699 152.257C301.561 152.024 301.953 151.53 302.23 151.319C303.313 150.36 305.311 149.844 308.299 152.163Z"/><path fill="#000" d="M304.766 153.529C304.097 152.366 303.247 152.257 302.12 152.431C302.128 152.292 302.165 152.156 302.227 152.031C302.29 151.906 302.377 151.795 302.484 151.705C303.37 150.978 304.577 152.686 304.766 153.529Z" opacity=".2"/><path fill="#263238" d="M301.626 152.243C301.539 152.338 301.477 152.452 301.444 152.577C301.36 152.901 301.342 153.239 301.392 153.57C301.442 153.901 301.559 154.218 301.735 154.503C301.445 154.182 301.238 153.796 301.132 153.376C301.043 153.119 300.996 152.849 300.994 152.577C300.999 152.305 301.108 152.045 301.299 151.85C301.393 151.758 301.512 151.696 301.641 151.67C301.77 151.644 301.904 151.656 302.026 151.705C302.171 151.777 302.418 152.054 302.244 152.184C302.069 152.315 301.859 152.01 301.626 152.243Z"/><path fill="#000" d="M300.013 130.502V204.242H219.251V111.19H295.768V130.502H300.013Z" opacity=".3"/><path fill="#fff" d="M295.77 101.363H215.154V200.164H295.77V101.363Z"/><path fill="#263238" d="M295.76 101.363H215.145V107.206H295.76V101.363Z"/><path fill="#000" d="M295.768 107.206H237.503V200.164H295.768V107.206Z" opacity=".1"/><path fill="#000" d="M256.728 109.431H240.367V128.358H256.728V109.431Z" opacity=".1"/><path fill="#000" d="M293.806 109.431H259.854V117.223H293.806V109.431Z" opacity=".1"/><path fill="#000" d="M293.806 120.566H259.854V162.593H293.806V120.566Z" opacity=".1"/><path fill="#000" d="M293.806 165.929H259.854V197.38H293.806V165.929Z" opacity=".1"/><path fill="#7694FF" d="M259.853 135.598H237.313V142.837H259.853V135.598Z"/><path fill="#7694FF" d="M237.685 120.566H215.145V127.806H237.685V120.566Z"/><path fill="#000" d="M293.806 172.82H259.854V176.578H293.806V172.82Z"/><path fill="#7694FF" d="M263.263 112.585L263.968 111.153L264.673 112.585L266.25 112.818L265.109 113.93L265.385 115.5L263.968 114.758L262.558 115.507L262.827 113.93L261.686 112.818L263.263 112.585Z"/><path fill="#7694FF" d="M269.695 112.585L270.393 111.153L271.105 112.585L272.683 112.818L271.542 113.93L271.811 115.5L270.4 114.758L268.99 115.507L269.259 113.93L268.111 112.818L269.695 112.585Z"/><path fill="#7694FF" d="M276.121 112.585L276.826 111.153L277.531 112.585L279.115 112.818L277.974 113.93L278.243 115.5L276.826 114.758L275.416 115.507L275.685 113.93L274.543 112.818L276.121 112.585Z"/><path fill="#000" d="M282.554 112.585L283.259 111.153L283.964 112.585L285.541 112.818L284.4 113.93L284.676 115.5L283.259 114.758L281.849 115.507L282.118 113.93L280.969 112.818L282.554 112.585Z"/><path fill="#000" d="M288.979 112.585L289.684 111.153L290.396 112.585L291.973 112.818L290.832 113.93L291.101 115.5L289.691 114.758L288.274 115.507L288.543 113.93L287.401 112.818L288.979 112.585Z"/><path fill="#263238" d="M275.619 124.273H262.267V125H275.619V124.273Z"/><path fill="#263238" d="M272.807 130.539H262.267V131.265H272.807V130.539Z"/><path fill="#263238" d="M272.807 136.005H262.267V136.731H272.807V136.005Z"/><path fill="#263238" d="M272.807 141.471H262.267V142.197H272.807V141.471Z"/><path fill="#263238" d="M272.807 146.944H262.267V147.671H272.807V146.944Z"/><path fill="#263238" d="M272.807 152.41H262.267V153.137H272.807V152.41Z"/><path fill="#263238" d="M272.807 157.883H262.267V158.61H272.807V157.883Z"/><path fill="#263238" d="M284.799 130.539H274.26V131.265H284.799V130.539Z"/><path fill="#263238" d="M284.799 136.005H274.26V136.731H284.799V136.005Z"/><path fill="#263238" d="M284.799 141.471H274.26V142.197H284.799V141.471Z"/><path fill="#263238" d="M284.799 146.944H274.26V147.671H284.799V146.944Z"/><path fill="#263238" d="M284.799 152.41H274.26V153.137H284.799V152.41Z"/><path fill="#263238" d="M284.799 157.883H274.26V158.61H284.799V157.883Z"/><path fill="#263238" d="M284.8 126.359H262.267V127.086H284.8V126.359Z"/><path fill="#263238" d="M284.8 169.535H262.267V170.262H284.8V169.535Z"/><path fill="#263238" d="M256.736 130.539H240.367V131.265H256.736V130.539Z"/><path fill="#263238" d="M256.736 146.457H240.367V147.184H256.736V146.457Z"/><path fill="#263238" d="M256.736 152.548H240.367V153.275H256.736V152.548Z"/><path fill="#263238" d="M256.736 158.639H240.367V159.366H256.736V158.639Z"/><path fill="#263238" d="M256.736 164.723H240.367V165.45H256.736V164.723Z"/><path fill="#263238" d="M256.736 170.814H240.367V171.541H256.736V170.814Z"/><path fill="#263238" d="M256.736 176.905H240.367V177.632H256.736V176.905Z"/><path fill="#263238" d="M256.736 182.989H240.367V183.716H256.736V182.989Z"/><path fill="#263238" d="M256.736 189.08H240.367V189.807H256.736V189.08Z"/><path fill="#263238" d="M248.551 132.886H240.367V133.613H248.551V132.886Z"/><path fill="#263238" d="M234.872 110.79H217.965V111.517H234.872V110.79Z"/><path fill="#263238" d="M234.872 115.493H217.965V116.22H234.872V115.493Z"/><path fill="#263238" d="M234.872 132.886H217.965V133.613H234.872V132.886Z"/><path fill="#263238" d="M240.411 128.293V125.988C245.532 124.157 251.119 124.098 256.278 125.821L256.772 125.988V128.293H240.411Z"/><path fill="#DD8C6A" d="M251.073 120.006L249.351 121.373L247.018 123.234C247.15 123.505 247.234 123.798 247.265 124.099C247.339 124.423 247.295 124.763 247.138 125.057C246.982 125.351 246.725 125.578 246.414 125.698C246.094 125.778 245.687 127.282 247.614 127.486C248.166 127.581 248.732 127.561 249.276 127.427C249.82 127.293 250.33 127.048 250.775 126.708C251.219 126.301 251.357 126.061 251.095 125.472C250.325 123.815 250.637 121.678 251.073 120.006Z"/><path fill="#000" d="M247.584 122.776L249.096 121.395C249.093 121.45 249.093 121.506 249.096 121.562C249.116 121.804 249.116 122.047 249.096 122.289C248.976 122.743 248.747 123.162 248.429 123.509C248.112 123.856 247.714 124.121 247.272 124.28V124.106C247.235 123.826 247.162 123.552 247.054 123.292V123.248L247.584 122.776Z" opacity=".2"/><path fill="#263238" d="M246.392 118.785C245.571 116.321 246.022 115.064 245.077 113.697C244.51 113.334 243.281 114.286 243.689 116.299C244.096 118.313 246.392 118.785 246.392 118.785Z"/><path fill="#DD8C6A" d="M251.502 116.983C251.233 119.658 251.182 121.228 249.772 122.514C247.643 124.455 244.394 123.016 243.878 120.334C243.405 117.884 243.957 113.93 246.632 113.065C247.571 112.755 248.595 112.83 249.478 113.274C250.361 113.719 251.032 114.496 251.342 115.435C251.506 115.933 251.56 116.461 251.502 116.983Z"/><path fill="#263238" d="M251.451 119.381L250.288 119.447L250.063 117.666L248.987 116.808L248.682 114.024C248.682 114.024 251.139 114.024 252.084 114.024C252.418 114.024 253.421 115.093 253.538 115.478C253.675 116.035 253.656 116.619 253.481 117.166C253.307 117.713 252.984 118.2 252.549 118.574C252.212 118.881 251.844 119.151 251.451 119.381Z"/><path fill="#263238" d="M251.488 115.129C250.804 115.485 249.954 115.093 249.22 114.889C248.489 114.661 247.747 114.472 246.996 114.322C246.338 114.187 245.653 114.295 245.07 114.628C244.787 114.802 244.578 115.072 244.48 115.389C244.382 115.706 244.403 116.048 244.539 116.35C244.128 116.136 243.777 115.824 243.514 115.443C243.251 115.061 243.086 114.621 243.032 114.161C242.979 113.701 243.038 113.235 243.206 112.803C243.373 112.372 243.644 111.987 243.994 111.684C244.665 111.146 245.496 110.849 246.356 110.841C247.209 110.836 248.06 110.926 248.893 111.11C250.005 111.306 251.604 111.291 252.629 111.764C253.654 112.236 253.559 114.046 251.488 115.129Z"/><path fill="#DD8C6A" d="M252.512 119.091C252.345 119.668 251.973 120.164 251.466 120.486C250.804 120.893 250.23 120.203 250.288 119.447C250.346 118.691 250.862 117.848 251.582 117.753C252.302 117.659 252.709 118.371 252.512 119.091Z"/><path fill="#263238" d="M247.258 117.819C247.258 118.044 247.141 118.226 246.996 118.233C246.851 118.24 246.742 118.066 246.727 117.84C246.713 117.615 246.851 117.426 246.996 117.426C247.141 117.426 247.258 117.593 247.258 117.819Z"/><path fill="#263238" d="M244.728 117.899C244.728 118.124 244.612 118.313 244.466 118.313C244.321 118.313 244.197 118.138 244.197 117.92C244.197 117.702 244.321 117.513 244.466 117.506C244.612 117.499 244.728 117.673 244.728 117.899Z"/><path fill="#FF5652" d="M245.542 118.037C245.353 118.642 245.084 119.218 244.742 119.752C244.879 119.833 245.033 119.882 245.191 119.896C245.35 119.909 245.509 119.888 245.658 119.832L245.542 118.037Z"/><path fill="#263238" d="M245.891 121.14C246.15 121.141 246.406 121.089 246.645 120.987C246.883 120.886 247.099 120.738 247.279 120.552C247.29 120.538 247.296 120.521 247.295 120.503C247.293 120.485 247.285 120.469 247.272 120.457C247.258 120.445 247.241 120.44 247.223 120.441C247.205 120.442 247.189 120.451 247.177 120.464C246.979 120.665 246.738 120.817 246.472 120.91C246.207 121.004 245.923 121.035 245.643 121.002C245.635 121 245.626 121 245.617 121.001C245.608 121.003 245.6 121.006 245.593 121.01C245.585 121.015 245.579 121.021 245.574 121.029C245.569 121.036 245.565 121.044 245.564 121.053C245.561 121.071 245.566 121.09 245.577 121.104C245.588 121.119 245.604 121.129 245.622 121.133C245.711 121.143 245.801 121.146 245.891 121.14Z"/><path fill="#263238" d="M247.751 117.012C247.773 117.017 247.795 117.017 247.817 117.012C247.829 117 247.839 116.986 247.846 116.971C247.853 116.955 247.857 116.938 247.857 116.921C247.857 116.904 247.853 116.887 247.846 116.871C247.839 116.856 247.829 116.842 247.817 116.83C247.692 116.666 247.528 116.536 247.34 116.451C247.153 116.366 246.947 116.329 246.741 116.343C246.706 116.347 246.673 116.364 246.65 116.391C246.627 116.418 246.615 116.453 246.617 116.488C246.619 116.506 246.624 116.522 246.633 116.538C246.641 116.553 246.652 116.566 246.666 116.577C246.679 116.588 246.695 116.596 246.712 116.601C246.728 116.605 246.746 116.607 246.763 116.605C246.924 116.598 247.084 116.629 247.231 116.696C247.377 116.763 247.506 116.864 247.606 116.99C247.625 117.009 247.649 117.021 247.675 117.025C247.701 117.029 247.728 117.024 247.751 117.012Z"/><path fill="#263238" d="M244.713 116.445C244.72 116.423 244.72 116.401 244.713 116.379C244.712 116.362 244.706 116.345 244.698 116.33C244.69 116.315 244.678 116.302 244.665 116.291C244.651 116.28 244.636 116.272 244.619 116.267C244.603 116.262 244.585 116.261 244.568 116.263C244.362 116.273 244.162 116.334 243.986 116.441C243.809 116.547 243.662 116.696 243.558 116.874C243.549 116.889 243.543 116.906 243.541 116.923C243.538 116.941 243.54 116.958 243.544 116.975C243.549 116.992 243.557 117.008 243.568 117.022C243.579 117.036 243.593 117.047 243.609 117.055C243.64 117.071 243.677 117.074 243.711 117.063C243.745 117.052 243.773 117.028 243.79 116.997C243.874 116.858 243.99 116.742 244.13 116.66C244.27 116.577 244.428 116.531 244.59 116.525C244.616 116.525 244.642 116.518 244.664 116.504C244.686 116.49 244.703 116.469 244.713 116.445Z"/><path fill="#000" d="M266.156 150.658H185.387V243.711H266.156V150.658Z" opacity=".3"/><path fill="#fff" d="M261.897 140.831H181.281V239.633H261.897V140.831Z"/><path fill="#263238" d="M261.897 140.831H181.281V146.675H261.897V140.831Z"/><path fill="#000" d="M261.903 146.682H203.638V239.64H261.903V146.682Z" opacity=".1"/><path fill="#000" d="M222.864 148.906H206.502V167.834H222.864V148.906Z" opacity=".1"/><path fill="#000" d="M259.941 148.906H225.989V156.698H259.941V148.906Z" opacity=".1"/><path fill="#000" d="M259.941 160.034H225.989V202.061H259.941V160.034Z" opacity=".1"/><path fill="#000" d="M259.941 205.405H225.989V236.856H259.941V205.405Z" opacity=".1"/><path fill="#7694FF" d="M225.99 175.066H203.45V182.305H225.99V175.066Z"/><path fill="#7694FF" d="M203.82 160.034H181.28V167.274H203.82V160.034Z"/><path fill="#000" d="M259.941 212.288H225.989V216.046H259.941V212.288Z"/><path fill="#7694FF" d="M229.398 152.061L230.103 150.629L230.808 152.061L232.393 152.286L231.244 153.398L231.521 154.976L230.103 154.234L228.693 154.976L228.962 153.406L227.821 152.293L229.398 152.061Z"/><path fill="#7694FF" d="M235.831 152.061L236.536 150.629L237.241 152.061L238.818 152.286L237.677 153.398L237.946 154.976L236.536 154.234L235.126 154.976L235.395 153.406L234.246 152.293L235.831 152.061Z"/><path fill="#7694FF" d="M242.256 152.061L242.962 150.629L243.667 152.061L245.251 152.286L244.11 153.398L244.379 154.976L242.969 154.234L241.551 154.976L241.82 153.406L240.679 152.293L242.256 152.061Z"/><path fill="#7694FF" d="M248.689 152.061L249.394 150.629L250.099 152.061L251.676 152.286L250.535 153.398L250.804 154.976L249.394 154.234L247.984 154.976L248.253 153.406L247.112 152.293L248.689 152.061Z"/><path fill="#000" d="M255.114 152.061L255.819 150.629L256.532 152.061L258.109 152.286L256.968 153.398L257.237 154.976L255.827 154.234L254.417 154.976L254.678 153.406L253.537 152.293L255.114 152.061Z"/><path fill="#263238" d="M241.755 163.749H228.402V164.476H241.755V163.749Z"/><path fill="#263238" d="M238.942 170.007H228.402V170.734H238.942V170.007Z"/><path fill="#263238" d="M238.942 175.48H228.402V176.207H238.942V175.48Z"/><path fill="#263238" d="M238.942 180.946H228.402V181.673H238.942V180.946Z"/><path fill="#263238" d="M238.942 186.412H228.402V187.139H238.942V186.412Z"/><path fill="#263238" d="M238.942 191.885H228.402V192.612H238.942V191.885Z"/><path fill="#263238" d="M238.942 197.351H228.402V198.078H238.942V197.351Z"/><path fill="#263238" d="M250.942 170.007H240.403V170.734H250.942V170.007Z"/><path fill="#263238" d="M250.942 175.48H240.403V176.207H250.942V175.48Z"/><path fill="#263238" d="M250.942 180.946H240.403V181.673H250.942V180.946Z"/><path fill="#263238" d="M250.942 186.412H240.403V187.139H250.942V186.412Z"/><path fill="#263238" d="M250.942 191.885H240.403V192.612H250.942V191.885Z"/><path fill="#263238" d="M250.942 197.351H240.403V198.078H250.942V197.351Z"/><path fill="#263238" d="M250.935 165.835H228.402V166.562H250.935V165.835Z"/><path fill="#263238" d="M250.935 209.003H228.402V209.73H250.935V209.003Z"/><path fill="#263238" d="M222.871 170.007H206.502V170.734H222.871V170.007Z"/><path fill="#263238" d="M222.871 185.932H206.502V186.659H222.871V185.932Z"/><path fill="#263238" d="M222.871 192.024H206.502V192.75H222.871V192.024Z"/><path fill="#263238" d="M222.871 198.107H206.502V198.834H222.871V198.107Z"/><path fill="#263238" d="M222.871 204.198H206.502V204.925H222.871V204.198Z"/><path fill="#263238" d="M222.871 210.282H206.502V211.009H222.871V210.282Z"/><path fill="#263238" d="M222.871 216.373H206.502V217.1H222.871V216.373Z"/><path fill="#263238" d="M222.871 222.464H206.502V223.191H222.871V222.464Z"/><path fill="#263238" d="M222.871 228.548H206.502V229.275H222.871V228.548Z"/><path fill="#263238" d="M214.686 172.355H206.502V173.082H214.686V172.355Z"/><path fill="#263238" d="M201.007 150.266H184.101V150.992H201.007V150.266Z"/><path fill="#263238" d="M201.007 154.961H184.101V155.688H201.007V154.961Z"/><path fill="#263238" d="M201.007 172.355H184.101V173.082H201.007V172.355Z"/><path fill="#7694FF" d="M206.502 167.834V165.522C211.627 163.698 217.214 163.639 222.377 165.355L222.871 165.522V167.834H206.502Z"/><path fill="#263238" d="M213.255 151.29C212.733 151.145 212.185 151.122 211.654 151.226C211.123 151.329 210.623 151.556 210.195 151.886C209.336 152.553 208.676 153.439 208.283 154.452C208.133 154.713 208.054 155.009 208.054 155.31C208.054 155.611 208.133 155.907 208.283 156.168C208.668 156.655 209.41 156.626 210.035 156.553C211.001 154.721 212.15 153.049 213.255 151.29Z"/><path fill="#FFB573" d="M212.681 162.339C213.146 163.458 213.407 164.708 211.954 165.711C211.654 165.918 211.434 166.22 211.329 166.569C211.176 167.136 211.372 167.776 213.473 167.121C216.511 166.176 216.715 164.337 216.715 164.337C215.421 163.574 215.261 160.427 215.377 158.668L212.681 162.339Z"/><path fill="#000" d="M214.636 161.154C214.636 161.924 213.633 162.891 212.949 163.204C212.884 162.904 212.789 162.612 212.666 162.331L214.28 160.151C214.468 160.456 214.59 160.798 214.636 161.154Z" opacity=".2"/><path fill="#FFB573" d="M217.064 154.438C216.919 153.959 216.681 153.514 216.364 153.127C216.047 152.741 215.657 152.421 215.216 152.185C214.776 151.949 214.293 151.803 213.795 151.754C213.298 151.705 212.795 151.755 212.317 151.901C209.475 152.744 208.683 156.844 209.01 159.409C209.381 162.281 212.702 163.429 215.036 161.466C216.598 160.158 216.729 158.973 217.173 156.197C217.271 155.61 217.234 155.008 217.064 154.438Z"/><path fill="#ED893E" d="M210.711 158.552C210.563 158.573 210.411 158.563 210.267 158.521C210.123 158.48 209.989 158.409 209.875 158.312C210.279 157.877 210.619 157.388 210.885 156.858L210.711 158.552Z"/><path fill="#263238" d="M212.848 158.951C212.859 158.938 212.865 158.922 212.865 158.904C212.865 158.887 212.859 158.87 212.848 158.857C212.842 158.851 212.834 158.846 212.826 158.842C212.818 158.839 212.809 158.837 212.801 158.837C212.792 158.837 212.783 158.839 212.775 158.842C212.767 158.846 212.759 158.851 212.753 158.857C212.561 159.065 212.321 159.225 212.054 159.322C211.787 159.419 211.501 159.452 211.22 159.417C211.202 159.418 211.185 159.425 211.172 159.437C211.159 159.449 211.15 159.465 211.147 159.482C211.147 159.499 211.152 159.516 211.163 159.529C211.174 159.542 211.188 159.551 211.205 159.555C211.314 159.562 211.423 159.562 211.532 159.555C212.033 159.533 212.505 159.317 212.848 158.951Z"/><path fill="#263238" d="M210.674 152.235C211.185 152.2 211.694 152.32 212.135 152.58C212.576 152.839 212.928 153.226 213.146 153.689C213.32 154.142 213.447 154.612 213.524 155.092C213.602 155.575 213.81 156.027 214.127 156.4C214.29 156.58 214.506 156.704 214.743 156.754C214.981 156.803 215.228 156.776 215.45 156.676C215.581 157.104 215.824 157.488 216.154 157.789C216.484 158.091 216.888 158.299 217.325 158.392C216.7 159.3 215.922 160.253 215.297 161.161C215.522 161.888 215.544 162.004 215.77 162.709C216.549 162.46 217.271 162.06 217.894 161.531C218.518 161.002 219.031 160.355 219.404 159.628C220.131 158.174 220.291 156.349 218.91 156.306C219.397 155.325 218.503 153.268 217.768 152.453C217.086 151.841 216.273 151.392 215.392 151.141C214.51 150.889 213.583 150.841 212.68 151C211.888 151.164 211.178 151.601 210.674 152.235Z"/><path fill="#FFB573" d="M217.834 158.159C217.858 157.918 217.787 157.676 217.634 157.487C217.482 157.298 217.261 157.176 217.02 157.149C216.293 157.091 215.791 157.927 215.646 158.53C215.501 159.133 215.864 159.795 216.547 159.562C217.059 159.383 217.48 159.01 217.718 158.523C217.782 158.411 217.822 158.287 217.834 158.159Z"/><path fill="#263238" d="M213.393 155.484C213.414 155.49 213.436 155.49 213.458 155.484C213.483 155.458 213.496 155.422 213.496 155.386C213.496 155.35 213.483 155.315 213.458 155.288C213.299 155.085 213.093 154.923 212.857 154.818C212.621 154.713 212.364 154.667 212.106 154.685C212.088 154.686 212.071 154.692 212.055 154.701C212.039 154.709 212.025 154.721 212.015 154.736C212.004 154.75 211.996 154.766 211.992 154.784C211.987 154.801 211.987 154.82 211.99 154.837C211.992 154.855 211.997 154.871 212.005 154.887C212.013 154.902 212.025 154.915 212.038 154.926C212.052 154.937 212.067 154.945 212.084 154.95C212.1 154.954 212.118 154.956 212.135 154.954C212.347 154.946 212.558 154.988 212.752 155.076C212.945 155.164 213.114 155.297 213.247 155.463C213.267 155.479 213.291 155.49 213.317 155.494C213.342 155.498 213.369 155.495 213.393 155.484Z"/><path fill="#263238" d="M209.184 155.63C209.207 155.624 209.227 155.611 209.243 155.593C209.373 155.426 209.54 155.291 209.732 155.2C209.924 155.109 210.135 155.064 210.347 155.07C210.365 155.072 210.384 155.071 210.401 155.065C210.419 155.06 210.435 155.052 210.449 155.04C210.464 155.029 210.475 155.014 210.484 154.998C210.493 154.982 210.498 154.965 210.5 154.947C210.5 154.91 210.487 154.874 210.463 154.846C210.439 154.818 210.406 154.799 210.369 154.794C210.112 154.784 209.855 154.836 209.622 154.944C209.388 155.053 209.183 155.216 209.024 155.419C209 155.441 208.985 155.47 208.982 155.502C208.978 155.535 208.987 155.567 209.006 155.593C209.025 155.619 209.053 155.638 209.084 155.644C209.116 155.651 209.149 155.646 209.177 155.63H209.184Z"/><path fill="#263238" d="M212.724 156.175C212.724 156.422 212.571 156.626 212.404 156.618C212.237 156.611 212.114 156.4 212.128 156.146C212.143 155.891 212.281 155.702 212.441 155.702C212.601 155.702 212.731 155.92 212.724 156.175Z"/><path fill="#263238" d="M210.194 156.386C210.194 156.626 210.049 156.815 209.889 156.807C209.729 156.8 209.62 156.604 209.627 156.357C209.635 156.109 209.773 155.928 209.933 155.935C210.092 155.942 210.209 156.117 210.194 156.386Z"/><path fill="#263238" d="M209.998 155.95L209.431 155.761C209.431 155.761 209.707 156.226 209.998 155.95Z"/><path fill="#263238" d="M212.513 155.724L211.917 155.521C211.917 155.521 212.208 156.008 212.513 155.724Z"/><path fill="#263238" d="M119.882 183.737C114.256 183.737 114.256 178.918 114.256 178.918L162.047 127.544L162.294 126.432L165.035 128.983C165.014 129.022 164.989 129.058 164.962 129.092C164.809 129.376 123.051 183.737 119.882 183.737Z"/><g opacity=".5"><path fill="#fff" d="M191.834 115.805C185.561 125.502 175.058 132.945 168.451 129.492C168.485 129.46 168.51 129.42 168.524 129.376L164.889 127.399C162.454 125.218 161.081 122.013 160.732 118.247C160.179 112.433 162.018 105.397 166.031 98.8767C173.103 87.3778 184.631 82.268 189.951 85.4444C190.821 85.9637 191.661 86.5315 192.466 87.1452H192.503C193.207 87.6079 193.875 88.123 194.502 88.6862C194.798 88.977 195.066 89.2959 195.301 89.6383C196.656 91.6141 197.427 93.9317 197.525 96.3254C198.02 101.966 196.152 109.154 191.834 115.805Z" opacity=".4"/></g><path fill="#fff" d="M197.532 96.1873L164.896 127.224C162.461 125.044 161.088 121.838 160.731 118.073V118.015L195.286 89.5002C196.645 91.4754 197.424 93.7922 197.532 96.1873Z" opacity=".2"/><path fill="#263238" d="M194.32 116.794C202.25 103.987 201.261 88.9769 192.074 83.2929C182.886 77.6088 169.025 83.4092 161.088 96.2091C153.361 108.697 154.096 123.241 162.607 129.245C162.84 129.427 163.08 129.572 163.334 129.732C164.327 130.349 165.394 130.837 166.51 131.186C175.473 134.064 187.248 128.213 194.32 116.794ZM167.717 128.772C167.208 128.632 166.72 128.427 166.263 128.162C166.192 128.133 166.124 128.096 166.06 128.053L165.754 127.857L165.667 127.798C165.23 127.521 164.819 127.205 164.439 126.853C158.798 121.722 159.351 109.409 166.031 98.7023C173.147 87.2252 184.791 82.1444 189.697 85.0446C190.495 85.5206 191.267 86.0399 192.009 86.6001C192.388 86.8627 192.739 87.1648 193.055 87.5014C197.416 92.0588 196.072 103.267 189.53 113.828C182.988 124.389 173.75 130.531 167.717 128.772Z"/><g opacity=".4"><path fill="#000" d="M191.812 115.616C185.532 125.334 175.036 132.777 168.429 129.31C168.463 129.278 168.488 129.238 168.502 129.194L167.724 128.765C173.743 130.531 183.075 124.317 189.573 113.843C196.072 103.369 197.482 92.0951 193.091 87.5304C192.948 87.3736 192.795 87.2255 192.634 87.087C193.295 87.5229 193.922 88.0089 194.509 88.5408C194.804 88.8253 195.07 89.1395 195.301 89.4784C196.648 91.4564 197.423 93.768 197.54 96.1582C197.983 101.784 196.122 108.987 191.812 115.616Z" opacity=".4"/></g><path fill="#263238" d="M100.882 229.282C101.166 231.187 103.063 232.364 104.858 233.106C108.069 234.436 111.484 235.206 114.954 235.381C117.584 226.053 119.418 216.519 120.435 206.881C111.865 212.201 99.3923 219.31 100.882 229.282Z"/><path fill="#000" d="M100.882 229.282C101.166 231.187 103.063 232.364 104.858 233.106C108.069 234.436 111.484 235.206 114.954 235.381C117.584 226.053 119.418 216.519 120.435 206.881C111.865 212.201 99.3923 219.31 100.882 229.282Z" opacity=".2"/><path fill="#263238" d="M144.275 114.192C144.544 114.148 144.835 114.439 144.915 114.853C144.995 115.267 144.842 115.66 144.566 115.704C144.29 115.747 144.006 115.464 143.926 115.042C143.847 114.621 143.999 114.243 144.275 114.192Z"/><path fill="#B74D3C" d="M145.01 119.716C145.364 119.742 145.721 119.691 146.053 119.565C146.386 119.44 146.687 119.243 146.936 118.989C145.904 118.049 145.002 116.976 144.254 115.798L145.01 119.716Z"/><path fill="#263238" d="M142.131 112.978C142.331 112.731 142.587 112.536 142.878 112.409C143.169 112.283 143.487 112.228 143.803 112.251H143.89C143.957 112.251 144.02 112.225 144.068 112.179C144.115 112.133 144.143 112.07 144.145 112.004C144.146 111.97 144.14 111.937 144.128 111.906C144.116 111.875 144.098 111.846 144.076 111.822C144.053 111.797 144.025 111.778 143.995 111.764C143.964 111.751 143.931 111.743 143.898 111.742C143.505 111.698 143.108 111.748 142.739 111.888C142.37 112.029 142.039 112.255 141.775 112.549C141.754 112.57 141.738 112.595 141.727 112.622C141.715 112.65 141.71 112.679 141.71 112.709C141.708 112.742 141.713 112.775 141.724 112.806C141.735 112.837 141.752 112.866 141.774 112.89C141.797 112.915 141.824 112.935 141.854 112.948C141.884 112.962 141.917 112.97 141.95 112.971C142.008 112.995 142.072 112.997 142.131 112.978Z"/><path fill="#CB7A63" d="M138.846 138.272C131.687 138.2 130.669 134.282 130.669 134.282C132.85 132.247 133.031 128.424 132.646 125.007C133.204 125.827 133.912 126.535 134.732 127.093C135.48 127.624 136.331 127.991 137.23 128.172C138.129 128.352 139.056 128.341 139.951 128.14C139.982 128.146 140.014 128.146 140.045 128.14C140.024 128.206 140.009 128.274 140.002 128.344C139.515 131.069 139.835 133.991 142.684 134.885C142.677 134.878 146.733 138.352 138.846 138.272Z"/><path fill="#CB7A63" d="M140.263 127.108C140.171 127.438 140.098 127.773 140.045 128.111C140.014 128.117 139.982 128.117 139.95 128.111C139.056 128.312 138.129 128.323 137.23 128.142C136.331 127.962 135.48 127.595 134.732 127.064C133.911 126.506 133.204 125.798 132.646 124.978C132.551 124.113 132.413 123.27 132.268 122.492L139.972 126.912L140.263 127.108Z"/><path fill="#263238" d="M128.481 134.893C128.481 134.893 129.68 131.425 131.388 130.357C133.097 129.289 140.59 130.59 141.753 131.084C142.916 131.578 144.05 134.297 144.05 134.297L128.481 134.893Z"/><path fill="#fff" d="M128.481 134.893C128.481 134.893 129.68 131.425 131.388 130.357C133.097 129.289 140.59 130.59 141.753 131.084C142.916 131.578 144.05 134.297 144.05 134.297L128.481 134.893Z" opacity=".5"/><path fill="#CB7A63" d="M145.511 121.373C145.464 122.602 145.105 123.798 144.47 124.851C143.834 125.903 142.942 126.777 141.877 127.391H141.833C141.285 127.727 140.686 127.973 140.06 128.118C140.028 128.124 139.996 128.124 139.965 128.118C139.07 128.319 138.143 128.33 137.244 128.15C136.345 127.969 135.494 127.602 134.746 127.071C133.926 126.513 133.218 125.806 132.66 124.985C131.294 123.037 130.763 120.457 129.833 116.823C129.518 115.648 129.509 114.412 129.805 113.232C130.102 112.052 130.694 110.968 131.527 110.081C132.359 109.194 133.404 108.534 134.563 108.163C135.721 107.792 136.955 107.723 138.148 107.962C143.556 109.067 145.722 116.539 145.511 121.373Z"/><path fill="#000" d="M141.818 127.399C141.27 127.735 140.671 127.98 140.045 128.126L140.307 124.942C140.307 124.942 141.44 127.399 141.818 127.399Z" opacity=".2"/><path fill="#263238" d="M128.481 114.948C127.754 116.401 126.126 118.051 125.435 119.498C124.989 120.228 124.776 121.078 124.825 121.933C124.89 122.377 125.126 122.778 125.484 123.05C125.841 123.322 126.291 123.442 126.736 123.386C126.009 124.418 126.547 126.119 127.659 126.824C128.234 127.168 128.909 127.302 129.571 127.206C130.233 127.109 130.841 126.787 131.294 126.294C132.021 127.079 132.566 127.66 133.67 127.675C134.211 127.68 134.747 127.577 135.246 127.371C135.746 127.165 136.199 126.86 136.578 126.475C137.078 127.009 137.729 127.376 138.443 127.528C139.158 127.68 139.902 127.61 140.576 127.326C141.213 127.023 141.727 126.511 142.032 125.874C142.336 125.238 142.412 124.516 142.247 123.83C141.851 122.63 141.667 121.371 141.702 120.108C141.702 120.108 143.265 117.811 142.625 116.423L141.942 112.062C140.723 111.137 139.218 110.669 137.69 110.739C136.166 110.811 134.666 111.146 133.256 111.728C131.286 112.505 129.331 113.159 128.481 114.948Z"/><path fill="#CB7A63" d="M140.365 114.686C141.855 115.158 142.596 117.397 142.633 118.807C142.676 120.363 141.615 121.322 140.278 120.261C139.274 119.435 138.567 118.305 138.264 117.041C137.93 115.529 138.868 114.242 140.365 114.686Z"/><path fill="#7694FF" d="M126.235 298.799C125.508 298.763 124.825 298.625 124.628 298.29C124.575 298.201 124.551 298.097 124.562 297.993C124.572 297.89 124.616 297.793 124.687 297.716C124.737 297.64 124.804 297.575 124.881 297.526C124.959 297.477 125.046 297.445 125.137 297.433C126.089 297.229 127.943 298.443 128.045 298.494C128.066 298.509 128.082 298.53 128.091 298.555C128.1 298.58 128.102 298.606 128.096 298.632C128.091 298.66 128.076 298.685 128.055 298.703C128.034 298.722 128.007 298.732 127.979 298.734C127.401 298.806 126.817 298.828 126.235 298.799ZM125.45 297.673C125.365 297.662 125.28 297.662 125.195 297.673C125.139 297.68 125.084 297.699 125.035 297.729C124.986 297.759 124.944 297.8 124.912 297.847C124.81 298.007 124.832 298.08 124.912 298.138C125.137 298.508 126.555 298.588 127.609 298.508C126.961 298.091 126.237 297.807 125.479 297.673H125.45Z"/><path fill="#7694FF" d="M127.943 298.719H127.885C127.238 298.378 126.017 297.12 126.184 296.48C126.184 296.328 126.344 296.153 126.715 296.132C126.847 296.124 126.98 296.143 127.105 296.188C127.23 296.233 127.344 296.303 127.441 296.393C128.132 297.026 128.103 298.53 128.103 298.574C128.1 298.597 128.092 298.62 128.079 298.64C128.067 298.66 128.05 298.677 128.03 298.69C128.006 298.711 127.975 298.721 127.943 298.719ZM126.787 296.4H126.686C126.446 296.4 126.417 296.51 126.409 296.539C126.315 296.917 127.136 297.905 127.783 298.363C127.779 297.73 127.575 297.115 127.202 296.604C127.145 296.539 127.076 296.487 126.999 296.449C126.921 296.412 126.837 296.39 126.751 296.386L126.787 296.4Z"/><path fill="#CB7A63" d="M134.775 286.05L129.208 285.752L128.517 298.617L134.114 298.915L134.775 286.05Z"/><path fill="#263238" d="M127.216 298.334C123.196 300.456 122.019 300.515 117.527 301.241C116.546 301.401 116.945 303.756 119.25 303.88C123.066 304.091 123.48 303.931 126.729 304.105C129.513 304.258 132.704 304.556 134.913 304.708C134.981 304.719 135.049 304.719 135.117 304.708C135.338 304.678 135.538 304.561 135.674 304.385C135.81 304.208 135.871 303.985 135.844 303.764L135.211 298.741C135.195 298.633 135.142 298.533 135.061 298.459C134.981 298.385 134.877 298.341 134.768 298.334L128.641 298.007C128.145 297.986 127.653 298.099 127.216 298.334Z"/><path fill="#000" d="M134.783 286.057L134.368 293.827L128.779 293.529L129.208 285.759L134.783 286.057Z" opacity=".2"/><path fill="#7694FF" d="M142.524 173.867C142.524 173.867 142.051 210.987 140.794 228.483C139.616 244.779 135.975 292.279 135.975 292.279L126.525 291.763C126.525 291.763 124.541 242.962 124.345 226.346C124.17 210.602 123.4 173.154 123.4 173.154L142.524 173.867Z"/><path fill="#263238" d="M142.524 173.867C142.524 173.867 142.051 210.987 140.794 228.483C139.616 244.779 135.975 292.279 135.975 292.279L126.525 291.763C126.525 291.763 124.541 242.962 124.345 226.346C124.17 210.602 123.4 173.154 123.4 173.154L142.524 173.867Z"/><path fill="#fff" d="M142.524 173.867C142.524 173.867 142.051 210.987 140.794 228.483C139.616 244.779 135.975 292.279 135.975 292.279L126.525 291.763C126.525 291.763 124.541 242.962 124.345 226.346C124.17 210.602 123.4 173.154 123.4 173.154L142.524 173.867Z" opacity=".6"/><path fill="#263238" d="M137.683 289.045L137.043 292.49L125.537 291.872C125.537 291.872 125.348 287.954 125.392 287.954L137.683 289.045Z"/><g opacity=".5"><path fill="#fff" d="M137.683 289.045L137.043 292.49L125.537 291.872C125.537 291.872 125.348 287.954 125.392 287.954L137.683 289.045Z" opacity=".5"/></g><path fill="#7694FF" d="M183.809 297.76C183.744 297.033 183.773 296.342 184.071 296.073C184.149 296.004 184.247 295.96 184.351 295.949C184.455 295.937 184.56 295.958 184.652 296.008C184.732 296.046 184.803 296.1 184.862 296.166C184.921 296.232 184.966 296.309 184.994 296.393C185.336 297.28 184.42 299.366 184.376 299.468C184.367 299.494 184.348 299.516 184.325 299.531C184.301 299.545 184.273 299.551 184.245 299.548C184.219 299.546 184.193 299.536 184.172 299.519C184.151 299.502 184.136 299.479 184.129 299.453C183.975 298.899 183.868 298.332 183.809 297.76ZM184.812 296.749C184.819 296.665 184.819 296.58 184.812 296.495C184.798 296.442 184.771 296.392 184.735 296.351C184.698 296.309 184.653 296.276 184.601 296.255C184.427 296.182 184.347 296.255 184.311 296.291C183.976 296.589 184.1 297.992 184.347 299.01C184.649 298.293 184.814 297.527 184.834 296.749H184.812Z"/><path fill="#7694FF" d="M184.107 299.417C184.104 299.4 184.104 299.383 184.107 299.366C184.347 298.639 185.423 297.185 186.062 297.185C186.215 297.185 186.411 297.28 186.477 297.629C186.505 297.761 186.506 297.897 186.48 298.03C186.453 298.162 186.4 298.288 186.324 298.399C185.815 299.206 184.318 299.504 184.26 299.519C184.237 299.523 184.214 299.521 184.192 299.513C184.17 299.506 184.151 299.493 184.136 299.475C184.12 299.46 184.11 299.439 184.107 299.417ZM186.222 297.803V297.716C186.222 297.483 186.077 297.476 186.048 297.483C185.663 297.483 184.805 298.479 184.456 299.213C185.087 299.075 185.661 298.751 186.106 298.283C186.207 298.141 186.258 297.97 186.251 297.796L186.222 297.803Z"/><path fill="#CB7A63" d="M180.022 286.842L174.651 287.824L178.801 300.435L184.216 299.446L180.022 286.842Z"/><path fill="#263238" d="M185.459 298.581C187.088 300.158 187.945 300.965 192.336 301.837C193.302 302.026 192.663 304.374 190.358 304.425C186.55 304.512 188.636 304.287 185.387 304.36C182.61 304.418 179.419 304.621 177.21 304.708C177.135 304.719 177.059 304.719 176.984 304.708C176.88 304.686 176.781 304.643 176.694 304.582C176.607 304.521 176.532 304.444 176.476 304.354C176.419 304.264 176.38 304.163 176.363 304.058C176.345 303.953 176.349 303.845 176.374 303.742L177.493 298.726C177.516 298.616 177.577 298.517 177.664 298.446C177.751 298.374 177.86 298.335 177.973 298.334L184.078 298.196C184.323 298.164 184.571 298.182 184.808 298.248C185.045 298.314 185.267 298.428 185.459 298.581Z"/><path fill="#000" d="M180.03 286.85L182.181 293.326L176.788 294.314L174.651 287.824L180.03 286.85Z" opacity=".2"/><path fill="#000" d="M142.364 198.275C141.637 210.849 141.005 225.895 140.489 234.261C140.489 234.668 140.43 235.083 140.416 235.533C138.09 222.261 134.601 200.644 141.034 198.413C141.466 198.294 141.916 198.247 142.364 198.275Z" opacity=".3"/><path fill="#263238" d="M125.959 175.589C125.959 175.589 127.209 188.52 129.223 194.197C132.072 202.229 135.626 204.816 138.359 209.621C143.178 218.089 145.86 225.365 149.109 232.103C159.285 253.181 173.372 290.302 173.372 290.302L183.548 289.575L147.503 174.971L125.959 175.589Z"/><path fill="#fff" d="M125.959 175.589C125.959 175.589 127.209 188.52 129.223 194.197C132.072 202.229 135.626 204.816 138.359 209.621C143.178 218.089 145.86 225.365 149.109 232.103C159.285 253.181 173.372 290.302 173.372 290.302L183.548 289.575L147.503 174.971L125.959 175.589Z" opacity=".6"/><path fill="#263238" d="M185.35 287.417L185.474 290.913L173.648 292.679C173.648 292.679 172.579 288.899 172.623 288.899L185.35 287.417Z"/><g opacity=".5"><path fill="#fff" d="M185.35 287.417L185.474 290.913L173.648 292.679C173.648 292.679 172.579 288.899 172.623 288.899L185.35 287.417Z" opacity=".5"/></g><path fill="#CB7A63" d="M129.026 165.98C128.532 167.216 127.369 169.68 125.588 171.134C125.388 171.298 125.148 171.407 124.893 171.448C124.637 171.489 124.375 171.46 124.134 171.366C124.134 171.366 121.002 169.433 120.755 168.561C120.744 168.508 120.744 168.453 120.755 168.401L121.532 164.766L121.627 164.73C122.194 164.541 125.261 163.603 126.555 164.127L128.583 164.941C128.687 164.97 128.783 165.023 128.864 165.095C128.946 165.166 129.01 165.255 129.052 165.355C129.095 165.454 129.115 165.562 129.11 165.67C129.106 165.779 129.077 165.885 129.026 165.98Z"/><path fill="#7694FF" d="M123.916 143.615L113.282 153.973L121.648 164.759L121.554 164.795L120.776 168.43C120.765 168.483 120.765 168.537 120.776 168.59C120.249 168.784 119.68 168.837 119.126 168.742C119.126 168.742 103.259 155.855 104.153 153.631C105.004 151.87 105.976 150.17 107.06 148.543L107.169 148.376C108.572 146.05 117.396 132.843 124.032 132.915C129.28 132.959 128.997 138.999 123.916 143.615Z"/><path fill="#000" d="M123.916 143.615L113.283 153.973L121.649 164.759L121.554 164.795L120.776 168.43C120.766 168.483 120.766 168.537 120.776 168.59C120.249 168.784 119.68 168.837 119.126 168.742C119.126 168.742 103.063 157.716 104.153 153.631C104.458 152.461 105.854 150.404 107.061 148.543L107.17 148.376C108.572 146.05 117.397 132.843 124.033 132.915C129.281 132.959 128.997 138.999 123.916 143.615Z" opacity=".5"/><path fill="#263238" d="M120.783 168.561C120.773 168.508 120.773 168.453 120.783 168.401L121.561 164.766L121.656 164.73L121.917 164.839C121.917 164.839 122.76 167.805 120.783 168.561Z"/><path fill="#7694FF" d="M173.306 229.864C156.967 233.84 158.58 220.415 136.12 229.137C129.506 231.71 125.661 225.067 122.085 223.976C114.954 221.796 107.024 222.465 100.744 226.484C105.273 208.137 112.588 190.593 122.434 174.463C122.95 170.669 124.462 162.644 120.355 140.199C119.628 136.077 123.873 132.545 128.052 132.327L130.691 132.131C134.68 131.943 138.677 131.984 142.662 132.254C143.992 132.385 145.286 132.588 146.434 132.806C147.926 133.086 149.297 133.811 150.367 134.887C151.436 135.964 152.154 137.339 152.424 138.832C153.134 142.868 153.378 146.973 153.151 151.065C152.991 155.332 152.496 160.907 151.479 168.612C151.224 170.545 150.934 172.617 150.607 174.841C150.607 174.841 161.321 200.564 173.306 229.864Z"/><path fill="#000" d="M173.306 229.864C156.967 233.84 158.58 220.415 136.12 229.137C129.506 231.71 125.661 225.067 122.085 223.976C114.954 221.796 107.024 222.465 100.744 226.484C105.273 208.137 112.588 190.593 122.434 174.463C122.95 170.669 124.462 162.644 120.355 140.199C119.628 136.077 123.873 132.545 128.052 132.327L130.691 132.131C134.68 131.943 138.677 131.984 142.662 132.254C143.992 132.385 145.286 132.588 146.434 132.806C147.926 133.086 149.297 133.811 150.367 134.887C151.436 135.964 152.154 137.339 152.424 138.832C153.134 142.868 153.378 146.973 153.151 151.065C152.991 155.332 152.496 160.907 151.479 168.612C151.224 170.545 150.934 172.617 150.607 174.841C150.607 174.841 161.321 200.564 173.306 229.864Z" opacity=".5"/><path fill="#000" d="M153.15 151.08C152.99 155.346 152.496 160.921 151.479 168.626C150.853 161.881 149.741 155.259 145.744 141.732L153.012 144.051C153.158 146.297 153.179 148.688 153.15 151.08Z" opacity=".2"/><path fill="#CB7A63" d="M149.538 121.715C149.456 121.495 149.307 121.308 149.113 121.177C148.919 121.047 148.689 120.981 148.455 120.988C146.921 120.864 146.121 120.748 144.69 121.315C144.582 121.351 144.486 121.416 144.413 121.504C144.373 121.593 144.353 121.69 144.355 121.787C144.355 122.638 144.304 123.488 144.275 124.331C144.238 124.52 144.264 124.715 144.35 124.888C144.435 125.06 144.575 125.199 144.748 125.283C145.533 125.836 149.247 127.726 149.247 127.726C149.974 127.806 151.544 126.403 152.198 126.032L149.538 121.715Z"/><path fill="#7694FF" d="M148.237 127.82L152.409 125.581C152.409 125.581 163.225 139.392 163.864 140.504C168.952 149.466 161.96 149.226 159.976 147.99C155.418 145.163 155.862 141.078 154.073 137.502L148.237 127.82Z"/><g opacity=".5"><path fill="#000" d="M148.237 127.82L152.409 125.581C152.409 125.581 163.225 139.392 163.864 140.504C168.952 149.466 161.96 149.226 159.976 147.99C155.418 145.163 155.862 141.078 154.073 137.502L148.237 127.82Z" opacity=".5"/></g><path fill="#7694FF" d="M150.875 134.711C155.588 138.218 160.529 141.406 165.667 144.254L165.921 145.323C166.048 145.841 166.034 146.383 165.882 146.894C165.73 147.404 165.444 147.866 165.056 148.23C164.667 148.595 164.188 148.849 163.668 148.968C163.149 149.087 162.607 149.066 162.098 148.906L160.833 148.514C160.833 148.514 144.276 143.985 143.912 139.217C141.71 136.492 145.809 130.073 150.875 134.711Z"/><path fill="#000" d="M150.875 134.711C155.588 138.218 160.529 141.406 165.667 144.254L165.921 145.323C166.048 145.841 166.034 146.383 165.882 146.894C165.73 147.404 165.444 147.866 165.056 148.23C164.667 148.595 164.188 148.849 163.668 148.968C163.149 149.087 162.607 149.066 162.098 148.906L160.833 148.514C160.833 148.514 144.276 143.985 143.912 139.217C141.71 136.492 145.809 130.073 150.875 134.711Z" opacity=".5"/><path fill="#263238" d="M144.196 110.877L141.884 111.43L126.86 115.013C126.822 114.901 126.793 114.787 126.773 114.671C126.609 113.997 126.49 113.312 126.417 112.622C126.366 112.142 126.329 111.662 126.322 111.168C126.235 106.08 128.713 101.719 132.631 100.796C136.549 99.8726 140.714 102.606 142.938 107.199C143.134 107.606 143.316 108.042 143.483 108.479C143.741 109.139 143.952 109.817 144.116 110.506C144.13 110.659 144.174 110.775 144.196 110.877Z"/><path fill="#000" d="M144.13 110.877L141.819 111.444L126.795 115.028C126.795 114.926 126.736 114.802 126.707 114.686C126.546 114.011 126.429 113.326 126.358 112.636L143.403 108.515C143.661 109.175 143.872 109.853 144.036 110.543C144.13 110.659 144.13 110.775 144.13 110.877Z" opacity=".5"/><path fill="#263238" d="M149.756 110.993C149.807 111.209 149.815 111.433 149.779 111.652C149.744 111.871 149.665 112.081 149.547 112.269C149.429 112.457 149.275 112.62 149.094 112.748C148.913 112.876 148.708 112.966 148.491 113.014L124.795 118.676C124.363 118.779 123.907 118.706 123.528 118.473C123.149 118.24 122.878 117.866 122.775 117.433C122.719 117.215 122.708 116.988 122.743 116.766C122.778 116.543 122.858 116.33 122.978 116.14C123.216 115.77 123.589 115.509 124.018 115.413L147.735 109.743C147.95 109.692 148.173 109.685 148.39 109.72C148.608 109.755 148.817 109.833 149.005 109.949C149.192 110.066 149.355 110.218 149.484 110.397C149.613 110.576 149.705 110.779 149.756 110.993Z"/></g><defs><radialGradient id="paint0_radial_736_1792" cx="0" cy="0" r="1" gradientTransform="translate(950.5 -572) rotate(132.568) scale(1141.24)" gradientUnits="userSpaceOnUse"><stop stop-color="#7694FF"/><stop offset="1" stop-color="#fff"/></radialGradient></defs></svg>