<svg width="2492" height="2390" viewBox="0 0 2492 2390" fill="none" xmlns="http://www.w3.org/2000/svg">
<path d="M1252.08 2389.61C1936.84 2389.61 2491.96 2100.56 2491.96 1744C2491.96 1387.44 1936.84 1098.38 1252.08 1098.38C567.307 1098.38 12.1934 1387.44 12.1934 1744C12.1934 2100.56 567.307 2389.61 1252.08 2389.61Z" fill="#F5F5F5"/>
<path d="M2046.41 1828.34C2229.05 1828.34 2377.11 1742.85 2377.11 1637.4C2377.11 1531.94 2229.05 1446.46 2046.41 1446.46C1863.76 1446.46 1715.7 1531.94 1715.7 1637.4C1715.7 1742.85 1863.76 1828.34 2046.41 1828.34Z" fill="#E6E6E6"/>
<path d="M714.581 1524.07C841.098 1597.13 846.255 1717.73 719.683 1790.78C593.111 1863.84 382.9 1861.67 256.328 1788.61C129.757 1715.56 129.811 1597.13 256.328 1524.07C382.846 1451.02 587.955 1451.02 714.581 1524.07Z" fill="#E6E6E6"/>
<path d="M1746.59 1917.74L1331.27 1677.94C1323.98 1674.25 1315.93 1672.32 1307.76 1672.32C1299.6 1672.32 1291.55 1674.25 1284.26 1677.94L868.943 1917.74C855.971 1925.23 855.971 1937.38 868.943 1944.87L1058.09 2054.08L881.426 2156.06C845.55 2176.74 787.149 2176.74 751.164 2156.06L473.27 1995.62C457.964 1986.78 449.497 1975.65 449.497 1964.36C449.497 1953.07 457.964 1941.89 473.27 1933.04L719.521 1790.84C720.818 1790.16 721.964 1789.23 722.891 1788.09C723.818 1786.96 724.506 1785.65 724.914 1784.24C725.322 1782.84 725.442 1781.36 725.265 1779.91C725.088 1778.46 724.62 1777.06 723.887 1775.79C723.154 1774.52 722.173 1773.41 721.002 1772.54C719.83 1771.66 718.494 1771.02 717.072 1770.68C715.65 1770.33 714.172 1770.27 712.727 1770.51C711.283 1770.75 709.901 1771.27 708.665 1772.06L462.524 1914.15C440.216 1927.07 427.896 1944.87 427.896 1964.3C427.896 1983.74 440.216 2001.48 462.524 2014.4L740.417 2174.84C763.915 2186.95 789.968 2193.27 816.403 2193.27C842.839 2193.27 868.891 2186.95 892.39 2174.84L1079.91 2066.62L1284.48 2184.67C1291.76 2188.36 1299.81 2190.29 1307.98 2190.29C1316.15 2190.29 1324.2 2188.36 1331.48 2184.67L1746.8 1944.87C1759.56 1937.38 1759.56 1925.23 1746.59 1917.74Z" fill="#E6E6E6"/>
<path d="M2221.17 1547.74C2221.17 1547.74 2236.26 1324.23 2232.03 1241.84C2228.5 1176.71 2219.65 1149.57 2217.81 1134.86C2217.81 1134.86 2201.8 982.886 2200.49 853.221C2199.84 790.912 2194.09 746.623 2159.95 672.59L1940.51 725.075C1936.06 757.967 1920.97 976.699 1917.39 1171.17C1914.3 1341.43 1919.13 1490.48 1919.13 1490.48V1499.43C1919.13 1509.42 1916.96 1516.37 1910.55 1532.32C1902.55 1552.88 1891.05 1571.9 1876.58 1588.55C1872.07 1593.44 1840.75 1620.79 1836.63 1626.55C1823.17 1642.23 1851.07 1651.08 1871.74 1648.26C1893.46 1645.33 1927.43 1637.02 1936.88 1623.78C1943.28 1614.88 1948.11 1583.89 1954.68 1574.93C1976.88 1544.64 1986 1531.51 1986.16 1521.96C1986.48 1504.48 1980.46 1497.59 1978.29 1487.71C1980.08 1467.08 2024.64 1297.47 2025.4 1237.39C2025.78 1208.78 2023.83 1169.38 2023.83 1169.38L2058.35 971.163C2071.7 1020.66 2095.14 1143.54 2103.07 1190.71C2112.68 1248.35 2137.81 1396.31 2152.68 1484.56C2158.38 1518.59 2161.04 1535.8 2163.53 1551.59L2164.13 1558.32C2164.62 1566.9 2170.86 1658.62 2174.22 1677.73C2181.28 1717.84 2216.94 1712.79 2222.64 1680.33C2227.52 1652.76 2221.45 1567.22 2221.28 1556.75L2221.17 1547.74Z" fill="#FFA8A7"/>
<path d="M2221.17 1547.74C2231.27 1547.74 2224.65 1586.87 2227.25 1611.89C2230.02 1638.76 2238.81 1658.41 2241.36 1680.39C2244.79 1699.6 2241.83 1719.4 2232.95 1736.78C2225.95 1753.06 2190.67 1774.77 2177.26 1751.92C2163.86 1729.07 2160.98 1702.64 2162.56 1677.57C2164.13 1652.49 2162.56 1635.66 2163.04 1615.96C2163.53 1598.59 2150.78 1554.25 2163.86 1551.75L2164.45 1558.48C2169.18 1567.87 2216.83 1569.72 2221.61 1557.02L2221.17 1547.74Z" fill="#37474F"/>
<path d="M1988.44 1543.29C1991.53 1555.82 1988.44 1590.24 1988.44 1590.24C1988.44 1590.24 1983.01 1602.12 1963.63 1609.99L1954.95 1562.12L1988.44 1543.29Z" fill="#263238"/>
<path d="M1963.53 1609.99L1920.86 1595.99L1910.55 1558.1L1958.53 1582.37L1963.53 1609.99Z" fill="black"/>
<path d="M1919.13 1499.43V1490.48C1913.32 1493.3 1900.56 1540.03 1883.31 1571.89C1867.57 1601.15 1836.36 1617.43 1826.21 1630.18C1812.64 1647.17 1839.02 1669.15 1881.3 1660.09C1902.3 1655.58 1934.11 1642.18 1942.74 1628.01C1951.37 1613.85 1954.24 1587.79 1961.3 1577.37C1968.36 1566.95 1985.13 1554.96 1988.44 1543.12C1991.2 1532.44 1991.2 1521.24 1988.44 1510.56C1985.13 1499.7 1982.2 1486.73 1978.51 1487.93V1496.12C1975.68 1501.87 1965.42 1508.6 1944.09 1509.8C1933.67 1510.29 1923.8 1508.71 1919.13 1499.43Z" fill="#37474F"/>
<path d="M1936.06 722.253C1936.06 722.253 1921.57 883.29 1916.9 1025.87C1912.23 1168.46 1916.41 1352.45 1916.41 1352.45C1916.41 1352.45 1931.12 1362.98 1963.52 1364.45C1995.93 1365.91 2006.95 1355.11 2006.95 1355.11C2006.95 1355.11 2026.76 1290.47 2029.85 1244.99C2031.81 1220.37 2031.81 1195.63 2029.85 1171.01L2058.78 980.715C2058.78 980.715 2095.47 1168.08 2099.65 1190.71C2103.83 1213.34 2138.94 1413.57 2138.94 1413.57C2138.94 1413.57 2152.73 1426.27 2188.12 1425.62C2219.44 1425.02 2228.5 1413.78 2228.5 1413.78C2228.5 1413.78 2236.04 1291.01 2234.31 1238.58C2232.84 1192.34 2222.26 1155.54 2220.14 1125.52C2218.03 1095.51 2216.83 924.703 2214.71 859.571C2212.6 794.44 2207.17 738.536 2151.43 660.161L1936.06 722.253Z" fill="#455A64"/>
<path d="M2059 980.878L2034.9 861.47C2034.9 861.47 1992.94 850.615 1973.35 824.888C1973.35 824.888 1978.78 853.329 2022.2 871.512L2047.82 990.268L2038.91 1113.04L2059 980.878Z" fill="#37474F"/>
<path d="M1629.46 692.563C1644.91 694.921 1660.7 693.752 1675.65 689.144C1669.08 685.863 1662.94 681.799 1657.35 677.04C1654.79 674.981 1653.13 672.004 1652.73 668.742C1652.32 665.479 1653.2 662.187 1655.18 659.563C1657.19 657.392 1662.18 662.44 1673.47 665.642C1687.91 669.713 1698.39 670.582 1712.28 678.614C1717.52 681.664 1723.68 682.742 1729.65 681.654C1763.52 675.304 1842.49 638.233 1878.69 618.911C1886.07 588.788 1898.88 544.498 1914.68 489.245C1929.28 438.334 1952.67 416.081 1990.01 416.895L1984.64 527.456C1984.64 527.456 1966.84 603.822 1944.8 666.185C1940.95 677.04 1925.48 689.687 1897.15 700.216C1860.46 713.84 1816.17 726.703 1762.05 741.52C1740.13 747.766 1717.73 752.213 1695.08 754.818C1637.87 759.703 1615.94 743.963 1608.23 732.673C1586.31 701.519 1599.28 686.539 1629.46 692.563Z" fill="#FFA8A7"/>
<path d="M2086.24 416.081L2138.46 420.097C2133.96 441.318 2135.24 463.356 2142.15 483.917C2149.06 504.478 2161.35 522.811 2177.75 537.008L2154.47 630.797C2155.23 642.412 2174.44 681.491 2193.06 723.5C2158.05 770.395 1986.32 786.406 1930.31 745.211C1938.94 701.03 1945.4 667.488 1947.13 650.716L1944.31 590.09C1874.08 532.503 1958.8 444.739 1990.01 416.841L2029.2 415.104L2086.24 416.081Z" fill="#7694FF"/>
<path d="M2306.12 883.344C2302.33 880.387 2299.33 876.543 2297.38 872.151C2295.42 867.758 2294.59 862.953 2294.94 858.16C2295.86 849.421 2297.87 838.458 2301.5 834.224C2305.14 829.99 2327.94 798.999 2338.03 817.018C2348.89 836.666 2346.66 844.645 2346.66 844.645L2306.12 883.344Z" fill="#F28F8F"/>
<path d="M2235.77 1297.58C2211.27 1296.76 2187.41 1289.54 2166.57 1276.63L1895.57 1120.1C1853.72 1095.94 1819.58 1036.94 1819.58 988.584V761.222C1819.56 753.613 1817.53 746.145 1813.71 739.565C1809.89 732.986 1804.4 727.526 1797.81 723.733C1791.21 719.94 1783.74 717.947 1776.13 717.954C1768.52 717.961 1761.04 719.967 1754.45 723.771L1659.58 778.699C1658.34 779.484 1656.96 780.012 1655.52 780.249C1654.07 780.487 1652.6 780.43 1651.17 780.081C1649.75 779.733 1648.41 779.101 1647.24 778.222C1646.07 777.344 1645.09 776.238 1644.36 774.97C1643.62 773.703 1643.16 772.3 1642.98 770.847C1642.8 769.394 1642.92 767.919 1643.33 766.513C1643.74 765.107 1644.43 763.798 1645.35 762.665C1646.28 761.532 1647.43 760.598 1648.72 759.919L1743.87 704.938C1753.76 699.226 1764.98 696.217 1776.41 696.212C1787.83 696.206 1799.05 699.205 1808.95 704.907C1818.85 710.609 1827.07 718.814 1832.8 728.699C1838.52 738.583 1841.55 749.799 1841.57 761.222V988.584C1841.57 1029.29 1871.42 1080.85 1906.7 1101.32L2177.7 1257.74C2212.38 1277.77 2244.57 1281.24 2268.23 1267.62C2291.9 1253.99 2304.98 1224.2 2304.98 1184.3V894.035C2304.98 844.861 2336.4 788.197 2376.51 765.021L2442.67 727.028C2443.91 726.243 2445.29 725.715 2446.74 725.478C2448.18 725.24 2449.66 725.297 2451.08 725.645C2452.5 725.994 2453.84 726.626 2455.01 727.504C2456.18 728.383 2457.16 729.489 2457.9 730.756C2458.63 732.024 2459.1 733.427 2459.27 734.88C2459.45 736.333 2459.33 737.807 2458.92 739.213C2458.51 740.619 2457.83 741.928 2456.9 743.062C2455.97 744.195 2454.83 745.129 2453.53 745.807L2387.37 783.801C2354.48 802.797 2326.69 853.22 2326.69 893.981V1184.25C2326.69 1232.34 2309.75 1268.59 2279.09 1286.34C2265.91 1293.88 2250.95 1297.76 2235.77 1297.58Z" fill="#37474F"/>
<path d="M1767.54 794.385V812.134C1767.54 840.52 1747.62 875.094 1722.97 889.26L1558.63 984.189L1391.51 887.686V742.986L1553.58 667.977C1579.36 656.09 1620.18 657.935 1644.82 672.102L1722.87 717.205C1747.45 731.425 1767.54 765.999 1767.54 794.385Z" fill="#37474F"/>
<path d="M1553.58 667.977C1579.36 656.09 1620.18 657.935 1644.82 672.102L1722.87 717.205C1747.45 731.371 1746.48 752.539 1720.7 764.479L1558.46 839.38L1391.29 742.932L1553.58 667.977Z" fill="#455A64"/>
<path opacity="0.15" d="M1574.26 804.644C1580.73 808.869 1586.12 814.559 1589.99 821.254C1593.85 827.949 1596.09 835.46 1596.51 843.18V962.207L1558.52 983.918L1391.4 887.415V742.986L1433.74 723.447L1574.26 804.644Z" fill="black"/>
<path d="M1377.13 718.073C1379.63 716.908 1382.4 716.434 1385.15 716.702C1387.9 716.969 1390.53 717.967 1392.76 719.593L1557.11 814.522C1563.59 818.748 1568.99 824.447 1572.85 831.152C1576.72 837.858 1578.95 845.382 1579.36 853.112V994.664C1579.66 997.416 1579.21 1000.2 1578.06 1002.72C1576.92 1005.24 1575.12 1007.41 1572.85 1008.99C1569.05 1011.11 1555.64 1018.87 1551.9 1021.1C1549.38 1022.26 1546.6 1022.73 1543.85 1022.47C1541.09 1022.2 1538.45 1021.2 1536.21 1019.58L1371.81 924.648C1365.33 920.423 1359.95 914.732 1356.08 908.038C1352.21 901.343 1349.98 893.831 1349.56 886.112V744.56C1349.27 741.806 1349.71 739.024 1350.85 736.498C1351.98 733.971 1353.76 731.79 1356.01 730.177L1377.13 718.073Z" fill="#37474F"/>
<path d="M1536.21 826.571L1371.81 731.697C1359.54 724.586 1349.56 730.34 1349.56 744.56V886.112C1349.98 893.831 1352.21 901.343 1356.08 908.038C1359.95 914.733 1365.33 920.423 1371.81 924.648L1536.21 1019.58C1548.48 1026.69 1558.46 1020.93 1558.46 1006.71V865.161C1558.04 857.434 1555.81 849.915 1551.94 843.212C1548.08 836.508 1542.69 830.808 1536.21 826.571Z" fill="#455A64"/>
<path d="M1341.52 991.354V1015.83C1341.52 1025.76 1344.94 1032.66 1350.59 1035.91L1365.35 1044.44C1368.89 1046.16 1372.83 1046.88 1376.75 1046.54C1380.67 1046.2 1384.42 1044.79 1387.6 1042.48L1523.29 963.998V867.387L1508.53 858.866L1372.57 937.349C1363.51 943.278 1355.99 951.258 1350.59 960.641C1345.2 970.024 1342.09 980.546 1341.52 991.354ZM1403.02 961.068C1403.54 962.833 1403.83 964.656 1403.89 966.495C1403.5 973.748 1401.4 980.808 1397.77 987.099C1394.14 993.389 1389.08 998.734 1382.99 1002.7C1381.3 1003.69 1379.47 1004.42 1377.56 1004.87C1377.09 1003.1 1376.83 1001.27 1376.8 999.441C1377.19 992.188 1379.29 985.131 1382.92 978.841C1386.55 972.55 1391.61 967.205 1397.7 963.239C1399.38 962.319 1401.17 961.59 1403.02 961.068Z" fill="#7694FF"/>
<path opacity="0.2" d="M1364.59 1043.89C1364.87 1044.14 1365.18 1044.36 1365.51 1044.54L1364.97 1044.22L1350.7 1035.91C1345 1032.77 1341.63 1025.87 1341.63 1015.89V991.408C1341.99 980.531 1345.15 969.93 1350.8 960.633L1365.57 969.154C1359.96 978.472 1356.83 989.063 1356.45 999.929V1024.41C1356.05 1030.75 1358.09 1037 1362.15 1041.88C1362.88 1042.65 1363.7 1043.32 1364.59 1043.89Z" fill="black"/>
<path opacity="0.5" d="M1523.29 867.387L1387.6 945.87C1378.4 951.608 1370.81 959.605 1365.57 969.1L1350.8 960.579C1356.04 951.099 1363.61 943.105 1372.79 937.349L1508.75 858.866L1523.29 867.387Z" fill="white"/>
<path opacity="0.2" d="M1403.88 966.495C1403.88 964.534 1403.62 962.583 1403.12 960.687C1412.08 958.245 1418.65 963.835 1418.65 975.016C1418.26 982.262 1416.17 989.315 1412.55 995.604C1408.93 1001.89 1403.88 1007.24 1397.81 1011.22C1388.14 1016.65 1379.89 1013.88 1377.62 1004.87C1379.53 1004.45 1381.37 1003.72 1383.04 1002.7C1389.11 998.718 1394.16 993.368 1397.78 987.08C1401.4 980.791 1403.49 973.74 1403.88 966.495Z" fill="black"/>
<path d="M1216.2 918.949V943.482C1216.2 953.36 1219.62 960.307 1225.26 963.509L1240.03 972.085C1243.56 973.77 1247.48 974.468 1251.38 974.105C1255.28 973.742 1259.01 972.331 1262.17 970.022L1397.86 891.485V795.037L1383.1 786.461L1247.41 864.944C1238.33 870.865 1230.78 878.839 1225.36 888.221C1219.94 897.603 1216.8 908.129 1216.2 918.949ZM1277.69 888.5C1278.19 890.397 1278.44 892.347 1278.45 894.307C1278.06 901.56 1275.97 908.617 1272.34 914.908C1268.7 921.198 1263.64 926.543 1257.56 930.51C1255.84 931.443 1254.02 932.172 1252.13 932.681C1251.61 930.826 1251.36 928.907 1251.37 926.982C1251.76 919.735 1253.85 912.682 1257.47 906.393C1261.09 900.104 1266.14 894.755 1272.21 890.78C1273.92 889.767 1275.77 888.999 1277.69 888.5Z" fill="#7694FF"/>
<path opacity="0.2" d="M1240.68 972.465H1240.41H1240.03L1225.26 963.835C1219.56 960.633 1216.2 953.739 1216.2 943.753V919.274C1216.26 914.044 1217.08 908.851 1218.64 903.86C1220.28 898.52 1222.52 893.384 1225.32 888.554L1240.08 897.021C1238.68 899.439 1237.43 901.941 1236.34 904.511C1232.97 911.805 1231.12 919.709 1230.91 927.741V952.22C1230.45 958.522 1232.38 964.765 1236.34 969.697C1237.62 970.86 1239.08 971.796 1240.68 972.465Z" fill="black"/>
<path opacity="0.5" d="M1398.02 795.037L1262.33 873.52C1253.12 879.242 1245.53 887.243 1240.3 896.75L1225.54 888.283C1230.68 878.794 1238.15 870.764 1247.25 864.944L1382.94 786.461L1398.02 795.037Z" fill="white"/>
<path opacity="0.2" d="M1278.4 894.253C1278.41 892.313 1278.17 890.38 1277.69 888.5C1286.59 886.003 1293.22 891.648 1293.22 902.829C1292.83 910.075 1290.74 917.128 1287.12 923.417C1283.5 929.707 1278.45 935.055 1272.37 939.031C1262.66 944.459 1254.46 941.69 1252.18 932.626C1254.1 932.223 1255.94 931.488 1257.61 930.455C1263.68 926.48 1268.72 921.13 1272.33 914.84C1275.95 908.55 1278.02 901.497 1278.4 894.253Z" fill="black"/>
<path d="M1257.34 828.362C1255.53 828.367 1253.77 827.765 1252.35 826.653C1250.92 825.542 1249.91 823.984 1249.47 822.229L1227.76 737.124C1227.22 735.029 1227.53 732.806 1228.63 730.943C1229.73 729.081 1231.53 727.731 1233.62 727.191C1235.72 726.651 1237.94 726.966 1239.8 728.065C1241.66 729.164 1243.01 730.959 1243.55 733.053L1265.26 818.212C1265.54 819.246 1265.61 820.324 1265.46 821.384C1265.31 822.444 1264.96 823.464 1264.41 824.384C1263.87 825.305 1263.14 826.106 1262.28 826.743C1261.42 827.379 1260.44 827.837 1259.4 828.09C1258.73 828.265 1258.04 828.356 1257.34 828.362Z" fill="#E0E0E0"/>
<path d="M1196.23 863.859C1194.4 863.864 1192.62 863.252 1191.18 862.122L1110.36 798.239C1109.47 797.596 1108.72 796.778 1108.15 795.836C1107.58 794.894 1107.21 793.847 1107.06 792.758C1106.91 791.668 1106.98 790.56 1107.27 789.499C1107.56 788.438 1108.06 787.446 1108.74 786.584C1109.42 785.721 1110.27 785.006 1111.24 784.481C1112.21 783.957 1113.27 783.633 1114.36 783.53C1115.46 783.428 1116.56 783.548 1117.61 783.884C1118.66 784.219 1119.63 784.764 1120.46 785.484L1201.27 849.313C1202.96 850.658 1204.05 852.615 1204.31 854.76C1204.56 856.904 1203.96 859.062 1202.63 860.765C1201.87 861.738 1200.9 862.523 1199.79 863.059C1198.68 863.596 1197.46 863.869 1196.23 863.859Z" fill="#E0E0E0"/>
<path d="M1084.85 941.799C1082.69 941.878 1080.59 941.096 1079.01 939.625C1077.42 938.155 1076.49 936.115 1076.41 933.956C1076.33 931.797 1077.11 929.695 1078.58 928.112C1080.06 926.529 1082.09 925.595 1084.25 925.516L1178.75 918.189C1179.82 918.1 1180.89 918.224 1181.91 918.553C1182.93 918.883 1183.87 919.411 1184.68 920.108C1185.5 920.805 1186.16 921.656 1186.64 922.612C1187.12 923.568 1187.41 924.611 1187.49 925.679C1187.64 927.827 1186.94 929.949 1185.53 931.584C1184.13 933.219 1182.14 934.237 1180 934.417L1085.5 941.745L1084.85 941.799Z" fill="#E0E0E0"/>
<path d="M2379.99 794.764C2378.14 774.711 2375.17 754.778 2371.08 735.061C2358.74 688.799 2342.28 643.734 2321.91 600.402C2312.85 583.088 2292.38 557.849 2277.89 536.519C2257.38 506.396 2242.94 489.516 2227.36 469.054C2193.06 424.168 2178.51 421.562 2138.46 420.205C2133.03 434.48 2120.65 492.99 2160.76 540.264L2246.74 630.905C2251.62 638.775 2304.16 728.602 2312.9 761.764C2314.41 767.662 2313.68 773.91 2310.84 779.296C2303.97 794.496 2298.92 810.456 2295.8 826.841C2293.25 838.348 2286.41 847.466 2288.75 849.257C2291.63 851.184 2295.08 852.082 2298.54 851.806C2301.99 851.531 2305.26 850.097 2307.8 847.738C2313.94 841.151 2318.94 833.595 2322.62 825.376C2324.23 825.27 2325.85 825.501 2327.37 826.054C2328.89 826.607 2330.27 827.469 2331.44 828.587C2332.61 829.704 2333.54 831.053 2334.16 832.546C2334.78 834.04 2335.08 835.646 2335.04 837.262C2335.53 843.938 2332.49 853.22 2330.16 864.78C2329.73 867.06 2329.18 869.665 2328.15 875.961C2327.26 880.213 2326.75 884.536 2326.63 888.879C2337.49 890.887 2348.83 884.265 2367.07 867.168C2383.51 851.211 2384.6 830.261 2379.99 794.764Z" fill="#FFA8A7"/>
<path d="M2095.58 389.703C2095.91 378.848 2131.19 353.447 2149.04 326.417C2165.32 301.342 2188.72 232.411 2133.9 210.375C2133.9 210.375 2145.73 177.321 2124.24 157.836C2102.74 138.351 2073.82 150.4 2069.26 158.541C2066.5 148.392 2060.55 139.402 2052.27 132.909C2044 126.416 2033.85 122.766 2023.34 122.502C2013.07 121.729 2002.87 124.692 1994.61 130.845C1986.35 136.999 1980.59 145.929 1978.4 155.99C1969.72 152.235 1960.02 151.578 1950.92 154.127C1941.82 156.677 1933.87 162.279 1928.41 169.994C1908.27 197.729 1934.98 223.13 1934.98 223.13C1931.51 225.467 1928.75 228.701 1926.98 232.487C1925.21 236.272 1924.51 240.467 1924.94 244.623C1926.51 256.347 1937.75 259.223 1939.05 265.085C1939.3 266.312 1939.14 267.587 1938.61 268.717C1938.07 269.848 1937.18 270.771 1936.06 271.349C1934.95 271.926 1933.68 272.124 1932.45 271.915C1931.21 271.705 1930.08 271.099 1929.22 270.187C1929.52 271.718 1930.11 273.175 1930.97 274.476C1931.82 275.777 1932.93 276.896 1934.22 277.769C1935.51 278.641 1936.96 279.25 1938.49 279.56C1940.02 279.871 1941.59 279.876 1943.12 279.577C1955.76 278.871 1967.05 261.666 1967.05 261.666L2095.58 389.703Z" fill="#263238"/>
<path d="M1980.51 206.901C1964.23 213.957 1948.87 238.761 1949.09 308.126C1949.09 366.907 1967.32 381.779 1976.23 386.175C1985.13 390.571 2003.09 388.292 2020.41 385.632V419.446C2020.41 419.446 1989.09 458.308 2017.15 477.63C2089.45 464.984 2094.98 417.547 2094.98 417.547L2096.28 343.84C2096.28 343.84 2106.22 354.261 2123.42 338.955C2137.86 326.309 2143.07 304.653 2132.22 292.712C2121.36 280.771 2107.47 279.848 2094.87 293.146C2094.87 293.146 2071.81 294.666 2037.12 272.901C2002.44 251.136 1990.07 229.046 1980.51 206.901Z" fill="#FFA8A7"/>
<path d="M2022.14 344.925C2022.22 346.046 2022.07 347.17 2021.7 348.232C2021.34 349.295 2020.76 350.274 2020.01 351.112C2019.27 351.951 2018.36 352.632 2017.35 353.117C2016.33 353.601 2015.23 353.879 2014.11 353.934C2012.37 354.074 2010.63 353.69 2009.11 352.831C2007.59 351.972 2006.36 350.678 2005.59 349.115C2004.81 347.552 2004.52 345.792 2004.75 344.062C2004.98 342.332 2005.73 340.712 2006.89 339.409C2008.05 338.106 2009.57 337.181 2011.27 336.753C2012.96 336.324 2014.74 336.413 2016.38 337.006C2018.02 337.6 2019.45 338.671 2020.48 340.082C2021.5 341.494 2022.08 343.18 2022.14 344.925Z" fill="#B16668"/>
<path d="M1977.47 288.043C1977.46 289.573 1977 291.065 1976.15 292.335C1975.3 293.605 1974.09 294.598 1972.68 295.189C1971.27 295.781 1969.72 295.946 1968.22 295.664C1966.71 295.382 1965.33 294.665 1964.23 293.602C1963.13 292.539 1962.36 291.177 1962.03 289.684C1961.7 288.191 1961.81 286.634 1962.35 285.204C1962.9 283.775 1963.85 282.536 1965.09 281.642C1966.33 280.748 1967.81 280.237 1969.33 280.173C1970.39 280.152 1971.43 280.339 1972.41 280.723C1973.39 281.108 1974.29 281.682 1975.04 282.414C1975.8 283.145 1976.4 284.019 1976.82 284.985C1977.24 285.952 1977.46 286.991 1977.47 288.043Z" fill="#263238"/>
<path d="M2037.56 291.625C2037.63 292.747 2037.48 293.871 2037.12 294.933C2036.75 295.996 2036.18 296.975 2035.43 297.813C2034.68 298.652 2033.77 299.333 2032.76 299.818C2031.75 300.302 2030.65 300.58 2029.53 300.635C2027.26 300.65 2025.07 299.769 2023.45 298.185C2021.82 296.6 2020.88 294.438 2020.84 292.168C2020.81 291.071 2020.99 289.977 2021.37 288.949C2021.76 287.921 2022.35 286.98 2023.1 286.178C2023.85 285.377 2024.75 284.731 2025.75 284.278C2026.75 283.825 2027.83 283.574 2028.93 283.538C2030.03 283.503 2031.12 283.684 2032.15 284.071C2033.18 284.458 2034.12 285.044 2034.92 285.795C2035.72 286.546 2036.37 287.447 2036.82 288.447C2037.27 289.448 2037.52 290.528 2037.56 291.625Z" fill="#263238"/>
<path d="M1972.05 256.944L1955.49 266.659C1956.08 267.778 1956.9 268.764 1957.89 269.555C1958.88 270.345 1960.02 270.924 1961.24 271.255C1962.46 271.586 1963.74 271.662 1964.99 271.478C1966.24 271.294 1967.44 270.855 1968.52 270.187C1970.7 268.855 1972.28 266.737 1972.93 264.272C1973.59 261.806 1973.27 259.182 1972.05 256.944Z" fill="#263238"/>
<path d="M2095.2 283.593V316.159C2093.11 316.212 2091.03 315.837 2089.1 315.057C2087.16 314.277 2085.4 313.109 2083.93 311.625C2082.46 310.14 2081.31 308.37 2080.55 306.424C2079.79 304.478 2079.44 302.398 2079.51 300.31C2079.53 296.057 2081.16 291.968 2084.07 288.867C2086.98 285.765 2090.96 283.881 2095.2 283.593Z" fill="#263238"/>
<path d="M1998.86 280.282L1995.55 327.177L1970.8 321.369L1998.86 280.282Z" fill="#F28F8F"/>
<path d="M2020.62 385.741C2038.81 383.624 2076.37 373.203 2082.5 357.897C2080.07 365.565 2075.38 372.32 2069.04 377.274C2057.69 387.043 2020.57 397.139 2020.57 397.139L2020.62 385.741Z" fill="#F28F8F"/>
<path d="M2239.19 23.0686C2246.12 25.7122 2252.61 29.3706 2258.46 33.9238C2264.13 38.0654 2269 43.1952 2272.85 49.0669C2276.5 54.7151 2278.91 61.0816 2279.9 67.7378C2280.88 74.8422 2280 82.0788 2277.35 88.7426C2275.45 94.0777 2272.52 98.9846 2268.72 103.18C2265.32 106.757 2261.43 109.828 2257.16 112.298C2253 114.672 2248.64 116.67 2244.13 118.269L2231.32 122.882C2227.56 124.244 2223.92 125.952 2220.47 127.984C2217.21 129.621 2214.49 132.141 2212.6 135.257C2211.73 136.712 2210.5 137.911 2209.02 138.731C2208.31 139.121 2207.52 139.348 2206.71 139.395C2205.91 139.442 2205.1 139.308 2204.35 139.002L2187.41 132.652C2186.61 132.354 2185.87 131.899 2185.25 131.311C2184.62 130.724 2184.12 130.017 2183.78 129.233C2183.41 128.482 2183.21 127.655 2183.21 126.817C2183.21 125.979 2183.41 125.153 2183.78 124.402C2185.95 119.18 2189.17 114.453 2193.22 110.507C2196.9 107.05 2201 104.077 2205.43 101.66C2209.71 99.3633 2214.18 97.4385 2218.79 95.9071C2223.35 94.3873 2227.58 92.9219 2231.54 91.4022C2235.12 90.0884 2238.56 88.4154 2241.8 86.4088C2244.59 84.6415 2246.72 82.0113 2247.88 78.9187C2248.95 76.2098 2249.34 73.2801 2249.02 70.3853C2248.7 67.4904 2247.67 64.7181 2246.03 62.3102C2241.95 56.3795 2236.01 51.9703 2229.15 49.7724C2223.18 47.3957 2216.62 46.9284 2210.37 48.435C2204.12 49.9415 2198.49 53.3479 2194.25 58.1852C2193.17 59.3291 2191.91 60.2831 2190.51 61.0076C2189 61.4794 2187.37 61.363 2185.95 60.6819L2167.93 53.8974C2167.29 53.6744 2166.7 53.3239 2166.19 52.8669C2165.69 52.4099 2165.28 51.8558 2165 51.2379C2164.69 50.6046 2164.53 49.9083 2164.53 49.2025C2164.53 48.4968 2164.69 47.8005 2165 47.1672C2167.39 41.633 2171.12 36.7824 2175.85 33.0554C2181.13 28.6695 2187.14 25.2517 2193.6 22.9601C2200.7 20.4508 2208.16 19.0948 2215.69 18.9436C2223.72 18.7918 2231.7 20.1925 2239.19 23.0686ZM2200.55 152.788C2201.34 153.069 2202.06 153.515 2202.67 154.094C2203.28 154.674 2203.76 155.376 2204.08 156.153C2204.41 156.924 2204.58 157.756 2204.58 158.596C2204.58 159.436 2204.41 160.268 2204.08 161.038L2196.7 180.632C2196.41 181.424 2195.97 182.147 2195.39 182.755C2194.81 183.363 2194.11 183.842 2193.33 184.16C2192.56 184.495 2191.73 184.667 2190.89 184.667C2190.05 184.667 2189.22 184.495 2188.45 184.16L2169.29 176.941C2168.49 176.66 2167.77 176.215 2167.16 175.635C2166.56 175.055 2166.08 174.354 2165.76 173.576C2165.42 172.805 2165.25 171.974 2165.25 171.134C2165.25 170.293 2165.42 169.462 2165.76 168.691L2173.14 149.098C2173.43 148.304 2173.88 147.577 2174.46 146.961C2175.03 146.346 2175.73 145.854 2176.51 145.515C2177.28 145.193 2178.11 145.027 2178.95 145.027C2179.79 145.027 2180.62 145.193 2181.39 145.515L2200.55 152.788Z" fill="#7694FF"/>
<path d="M2248.58 256.998C2249.15 257.554 2249.6 258.217 2249.91 258.948C2250.21 259.68 2250.37 260.465 2250.37 261.259C2250.37 262.052 2250.21 262.838 2249.91 263.569C2249.6 264.301 2249.15 264.964 2248.58 265.519L2235.02 279.848C2234.47 280.427 2233.82 280.888 2233.09 281.205C2232.36 281.523 2231.58 281.689 2230.78 281.694C2229.99 281.723 2229.19 281.594 2228.45 281.314C2227.7 281.035 2227.02 280.61 2226.44 280.065L2212.6 266.768C2212.02 266.224 2211.56 265.568 2211.24 264.84C2210.92 264.113 2210.76 263.328 2210.75 262.534C2210.71 261.737 2210.84 260.941 2211.12 260.194C2211.4 259.447 2211.83 258.765 2212.38 258.192L2226.01 243.918C2227.14 242.8 2228.67 242.175 2230.27 242.175C2231.86 242.175 2233.39 242.8 2234.53 243.918L2248.58 256.998ZM2330 158.596C2335.05 163.377 2339.38 168.861 2342.86 174.878C2346.22 180.58 2348.55 186.826 2349.75 193.332C2350.77 199.569 2350.46 205.951 2348.83 212.058C2347.1 217.836 2344.18 223.189 2340.27 227.778C2336.35 232.366 2331.52 236.088 2326.09 238.707C2321.84 240.582 2317.35 241.825 2312.74 242.398C2308.25 242.902 2303.73 243.03 2299.22 242.778L2286.41 242.072C2282.59 241.866 2278.76 241.993 2274.96 242.452C2271.56 242.828 2268.33 244.143 2265.63 246.251C2264.35 247.217 2262.83 247.8 2261.23 247.934C2260.47 248.019 2259.7 247.932 2258.97 247.678C2258.25 247.425 2257.59 247.011 2257.05 246.469L2244.73 234.745C2243.54 233.626 2242.84 232.087 2242.78 230.457C2242.7 229.655 2242.82 228.847 2243.12 228.1C2243.42 227.353 2243.9 226.691 2244.51 226.169C2248.3 222.409 2252.8 219.455 2257.76 217.485C2262.21 215.829 2266.87 214.753 2271.6 214.283C2276.17 213.904 2280.76 213.904 2285.33 214.283C2289.85 214.681 2294.09 214.952 2298.03 215.097C2301.66 215.28 2305.3 215.08 2308.88 214.5C2311.97 214.02 2314.82 212.531 2316.97 210.266C2318.88 208.296 2320.27 205.896 2321.05 203.268C2321.82 200.641 2321.95 197.865 2321.42 195.178C2320.07 188.52 2316.54 182.503 2311.38 178.081C2307.05 173.841 2301.51 171.044 2295.52 170.072C2289.54 169.101 2283.4 170.002 2277.95 172.653C2276.61 173.242 2275.17 173.591 2273.71 173.684C2272.97 173.64 2272.25 173.443 2271.58 173.107C2270.92 172.771 2270.33 172.303 2269.86 171.73L2256.73 159.193C2255.78 158.337 2255.2 157.153 2255.1 155.882C2255.06 155.211 2255.17 154.54 2255.41 153.913C2255.66 153.286 2256.03 152.718 2256.51 152.245C2260.61 148.341 2265.61 145.491 2271.05 143.941C2277.24 142.09 2283.71 141.337 2290.16 141.716C2297.26 142.148 2304.24 143.724 2310.84 146.384C2317.9 149.166 2324.33 153.316 2329.78 158.596H2330Z" fill="#7694FF"/>
<g opacity="0.6">
<path opacity="0.6" d="M2248.58 256.998C2249.15 257.554 2249.6 258.217 2249.91 258.948C2250.21 259.68 2250.37 260.465 2250.37 261.259C2250.37 262.052 2250.21 262.838 2249.91 263.569C2249.6 264.301 2249.15 264.964 2248.58 265.519L2235.01 279.848C2234.47 280.427 2233.81 280.888 2233.09 281.205C2232.36 281.523 2231.57 281.689 2230.78 281.694C2229.99 281.723 2229.19 281.594 2228.45 281.314C2227.7 281.035 2227.02 280.61 2226.44 280.065L2212.6 266.768C2212.02 266.224 2211.56 265.568 2211.24 264.84C2210.92 264.113 2210.76 263.328 2210.75 262.534C2210.71 261.737 2210.83 260.941 2211.11 260.194C2211.4 259.447 2211.83 258.765 2212.38 258.192L2226 243.918C2227.14 242.8 2228.67 242.175 2230.27 242.175C2231.86 242.175 2233.39 242.8 2234.53 243.918L2248.58 256.998ZM2330 158.596C2335.04 163.377 2339.38 168.861 2342.86 174.878C2346.22 180.58 2348.55 186.826 2349.75 193.332C2350.77 199.569 2350.46 205.951 2348.83 212.058C2347.1 217.836 2344.18 223.189 2340.27 227.778C2336.35 232.366 2331.52 236.088 2326.09 238.707C2321.84 240.582 2317.34 241.825 2312.74 242.398C2308.25 242.902 2303.73 243.03 2299.22 242.778L2286.41 242.072C2282.59 241.866 2278.76 241.993 2274.96 242.452C2271.56 242.828 2268.32 244.143 2265.63 246.251C2264.35 247.217 2262.82 247.8 2261.23 247.934C2260.47 248.019 2259.7 247.932 2258.97 247.678C2258.25 247.425 2257.59 247.011 2257.05 246.469L2244.73 234.745C2243.54 233.626 2242.84 232.087 2242.78 230.457C2242.7 229.655 2242.82 228.847 2243.12 228.1C2243.42 227.353 2243.9 226.691 2244.51 226.169C2248.29 222.409 2252.8 219.455 2257.76 217.485C2262.21 215.829 2266.86 214.753 2271.6 214.283C2276.17 213.904 2280.76 213.904 2285.33 214.283C2289.85 214.681 2294.08 214.952 2298.03 215.097C2301.66 215.28 2305.3 215.08 2308.88 214.5C2311.97 214.02 2314.82 212.531 2316.97 210.266C2318.87 208.296 2320.27 205.896 2321.05 203.268C2321.82 200.641 2321.95 197.865 2321.42 195.178C2320.07 188.52 2316.54 182.503 2311.38 178.081C2307.05 173.841 2301.51 171.044 2295.52 170.072C2289.54 169.101 2283.4 170.002 2277.95 172.653C2276.61 173.242 2275.17 173.591 2273.71 173.684C2272.97 173.64 2272.25 173.443 2271.58 173.107C2270.92 172.771 2270.33 172.303 2269.86 171.73L2256.72 159.193C2255.78 158.337 2255.2 157.153 2255.1 155.882C2255.06 155.211 2255.17 154.54 2255.41 153.913C2255.66 153.286 2256.03 152.718 2256.51 152.245C2260.61 148.341 2265.6 145.491 2271.05 143.941C2277.24 142.09 2283.71 141.337 2290.16 141.716C2297.26 142.148 2304.24 143.724 2310.84 146.384C2317.9 149.166 2324.33 153.316 2329.78 158.596H2330Z" fill="white"/>
</g>
<path d="M317.333 1621.66C334.539 1632.14 357.389 1632.52 378.936 1624.97L395.219 1510.99L319.233 1491.56L317.333 1621.66Z" fill="#FFA8A7"/>
<path d="M439.943 1730.75C441.843 1732.71 440.703 1747.04 438.369 1750.24C436.036 1753.44 422.955 1764.3 398.857 1764.73C375.898 1765.11 355.436 1760.93 342.627 1751.65C329.817 1742.37 323.684 1732.65 323.087 1719.52C322.49 1706.38 324.661 1693.96 319.016 1683.59C313.372 1673.22 306.587 1664.54 304.85 1659.44C302.812 1650.19 302.812 1640.62 304.85 1631.38L439.943 1730.75Z" fill="#263238"/>
<path d="M384.202 1620.2C384.309 1625.14 385.001 1630.06 386.264 1634.85C389.224 1645.11 393.396 1654.99 398.693 1664.27C401.328 1669.11 404.284 1673.77 407.54 1678.22C413.999 1686.85 422.249 1694.07 429.251 1702.37C436.683 1710.24 441.153 1720.45 441.897 1731.24C441.897 1749.26 422.086 1754.31 406.943 1756.16C390.488 1758.16 373.792 1756.44 358.095 1751.11C349.88 1748.48 342.597 1743.54 337.119 1736.88C331.641 1730.22 328.201 1722.12 327.212 1713.55C326.615 1708.5 327.212 1703.45 326.886 1698.41C325.535 1686.83 321.319 1675.76 314.62 1666.22C310.725 1660.7 307.449 1654.77 304.85 1648.53C300.725 1637.18 305.176 1624.86 308.758 1613.95C311.852 1604.56 314.186 1593.22 317.659 1594.31C317.659 1596.21 317.659 1600.44 317.659 1600.44C318.636 1602.56 321.024 1604.08 321.621 1606.57C322.185 1609.15 322.965 1611.67 323.955 1614.12C325.433 1617.9 328.051 1621.12 331.445 1623.34C332.042 1616.56 332.639 1609.77 333.182 1603.04C333.028 1601.97 333.12 1600.88 333.45 1599.86C333.781 1598.83 334.342 1597.89 335.09 1597.11C335.838 1596.33 336.754 1595.73 337.769 1595.36C338.783 1594.98 339.869 1594.85 340.944 1594.96C353.676 1592.63 366.687 1592.24 379.534 1593.82C380.502 1593.89 381.446 1594.15 382.312 1594.59C383.178 1595.03 383.949 1595.63 384.582 1596.37C385.244 1597.81 385.453 1599.42 385.179 1600.98C384.507 1607.36 384.181 1613.78 384.202 1620.2Z" fill="#7694FF"/>
<path opacity="0.2" d="M384.202 1620.2C384.309 1625.14 385.001 1630.06 386.264 1634.85C389.224 1645.11 393.396 1654.99 398.693 1664.27C401.328 1669.11 404.284 1673.77 407.54 1678.22C413.999 1686.85 422.249 1694.07 429.251 1702.37C436.683 1710.24 441.153 1720.45 441.897 1731.24C441.897 1749.26 422.086 1754.31 406.943 1756.16C390.488 1758.16 373.792 1756.44 358.095 1751.11C349.88 1748.48 342.597 1743.54 337.119 1736.88C331.641 1730.22 328.201 1722.12 327.212 1713.55C326.615 1708.5 327.212 1703.45 326.886 1698.41C325.535 1686.83 321.319 1675.76 314.62 1666.22C310.725 1660.7 307.449 1654.77 304.85 1648.53C300.725 1637.18 305.176 1624.86 308.758 1613.95C311.852 1604.56 314.186 1593.22 317.659 1594.31C317.659 1596.21 317.659 1600.44 317.659 1600.44C318.636 1602.56 321.024 1604.08 321.621 1606.57C322.185 1609.15 322.965 1611.67 323.955 1614.12C325.433 1617.9 328.051 1621.12 331.445 1623.34C332.042 1616.56 332.639 1609.77 333.182 1603.04C333.028 1601.97 333.12 1600.88 333.45 1599.86C333.781 1598.83 334.342 1597.89 335.09 1597.11C335.838 1596.33 336.754 1595.73 337.769 1595.36C338.783 1594.98 339.869 1594.85 340.944 1594.96C353.676 1592.63 366.687 1592.24 379.534 1593.82C380.502 1593.89 381.446 1594.15 382.312 1594.59C383.178 1595.03 383.949 1595.63 384.582 1596.37C385.244 1597.81 385.453 1599.42 385.179 1600.98C384.507 1607.36 384.181 1613.78 384.202 1620.2Z" fill="black"/>
<path d="M400.92 1668.17C394.515 1662.75 379.535 1661.93 371.285 1662.37C362.927 1662.65 354.773 1665.02 347.567 1669.26C346.502 1669.91 345.246 1670.17 344.01 1670C342.775 1669.84 341.635 1669.25 340.782 1668.34C340.281 1667.81 339.901 1667.18 339.67 1666.48C339.439 1665.79 339.363 1665.06 339.445 1664.34C339.528 1663.61 339.768 1662.91 340.149 1662.29C340.53 1661.67 341.043 1661.14 341.65 1660.74C349.626 1655.54 358.891 1652.67 368.409 1652.43C388.925 1652.11 394.352 1655.8 394.352 1655.8C394.352 1655.8 403.254 1662.31 400.92 1668.17Z" fill="#455A64"/>
<path d="M415.302 1687.39C407.16 1681.96 390.661 1681.96 382.411 1682.23C374.206 1682.62 366.249 1685.17 359.343 1689.61C358.273 1690.28 357.006 1690.55 355.758 1690.38C354.511 1690.21 353.361 1689.61 352.504 1688.69C351.997 1688.16 351.613 1687.53 351.381 1686.83C351.148 1686.14 351.074 1685.4 351.162 1684.67C351.25 1683.95 351.499 1683.25 351.891 1682.63C352.283 1682.01 352.808 1681.48 353.427 1681.09C361.449 1675.6 370.853 1672.48 380.565 1672.08C400.81 1671.7 405.858 1676.15 405.858 1676.15C408.185 1677.18 410.246 1678.73 411.884 1680.68C413.521 1682.62 414.69 1684.92 415.302 1687.39Z" fill="#455A64"/>
<path d="M361.407 1632.73C369.978 1631.71 378.67 1632.9 386.645 1636.21C390.065 1638.43 392.073 1644.13 389.739 1645.43C382.7 1642.17 374.961 1640.69 367.214 1641.15C359.629 1641.48 352.157 1643.12 345.124 1645.98C343.333 1646.63 341.27 1647.6 339.696 1648.47C339.116 1648.77 338.481 1648.94 337.831 1648.98C337.181 1649.02 336.529 1648.93 335.917 1648.7C335.305 1648.48 334.747 1648.13 334.276 1647.68C333.806 1647.23 333.434 1646.69 333.183 1646.09C332.843 1645.08 332.862 1643.99 333.239 1643C333.615 1642.01 334.325 1641.18 335.246 1640.66C343.303 1636.18 352.222 1633.48 361.407 1632.73Z" fill="#455A64"/>
<path d="M531.506 1578.84C544.749 1612 565.483 1601.8 597.071 1582.69L601.848 1469.47L521.465 1462.03L531.506 1578.84Z" fill="#FFA8A7"/>
<path d="M718.325 1658.68C719.792 1664.01 719.171 1669.69 716.589 1674.58C714.092 1679.14 688.962 1691.62 656.125 1687.61C631.777 1684.61 608.683 1675.12 589.257 1660.14C577.154 1651.13 564.182 1648.91 547.899 1647.06C531.616 1645.22 519.404 1639.57 516.201 1631.76C512.999 1623.94 517.884 1611.02 517.884 1611.02L718.325 1658.68Z" fill="#263238"/>
<path d="M590.45 1554.3C593.418 1553.68 596.338 1552.84 599.189 1551.81C600.782 1551.22 602.534 1551.22 604.128 1551.81C606.19 1552.73 606.841 1555.23 607.33 1557.23C607.793 1562.15 608.739 1567 610.152 1571.73C612.373 1575.65 615.32 1579.11 618.836 1581.93C626.659 1588.93 635.19 1595.1 644.292 1600.33C654.767 1606.73 665.08 1611.78 675.881 1617.37C686.681 1622.96 701.825 1626.98 710.4 1633.66C722.829 1643.1 723.318 1665.08 708.121 1672.9C695.04 1679.68 661.172 1685.98 626.706 1674.15C607.873 1667.69 587.791 1646.14 562.824 1642.83C546.921 1640.77 525.753 1638.27 516.146 1625.62C512.673 1620.19 515.712 1604.45 518.534 1586.06C521.085 1569.77 523.419 1543.72 528.684 1545.46L529.064 1550.45L535.468 1558.1C536.871 1559.6 538.357 1561.01 539.919 1562.34C541.633 1564.34 543.444 1566.26 545.347 1568.09C547.927 1570.3 551.135 1571.65 554.519 1571.94C556.124 1572.04 557.724 1571.69 559.133 1570.91C561.847 1569.39 562.227 1565.81 564.56 1563.59C567.085 1560.99 570.114 1558.94 573.462 1557.56C578.111 1555.91 582.972 1554.92 587.899 1554.63C588.756 1554.58 589.608 1554.47 590.45 1554.3Z" fill="#7694FF"/>
<path opacity="0.2" d="M590.45 1554.3C593.418 1553.68 596.338 1552.84 599.189 1551.81C600.782 1551.22 602.534 1551.22 604.128 1551.81C606.19 1552.73 606.841 1555.23 607.33 1557.23C607.793 1562.15 608.739 1567 610.152 1571.73C612.373 1575.65 615.32 1579.11 618.836 1581.93C626.659 1588.93 635.19 1595.1 644.292 1600.33C654.767 1606.73 665.08 1611.78 675.881 1617.37C686.681 1622.96 701.825 1626.98 710.4 1633.66C722.829 1643.1 723.318 1665.08 708.121 1672.9C695.04 1679.68 661.172 1685.98 626.706 1674.15C607.873 1667.69 587.791 1646.14 562.824 1642.83C546.921 1640.77 525.753 1638.27 516.146 1625.62C512.673 1620.19 515.712 1604.45 518.534 1586.06C521.085 1569.77 523.419 1543.72 528.684 1545.46L529.064 1550.45L535.468 1558.1C536.871 1559.6 538.357 1561.01 539.919 1562.34C541.633 1564.34 543.444 1566.26 545.347 1568.09C547.927 1570.3 551.135 1571.65 554.519 1571.94C556.124 1572.04 557.724 1571.69 559.133 1570.91C561.847 1569.39 562.227 1565.81 564.56 1563.59C567.085 1560.99 570.114 1558.94 573.462 1557.56C578.111 1555.91 582.972 1554.92 587.899 1554.63C588.756 1554.58 589.608 1554.47 590.45 1554.3Z" fill="black"/>
<path d="M629.909 1590.67C628.865 1588.41 627.276 1586.46 625.287 1584.97C623.297 1583.48 620.969 1582.51 618.511 1582.15C611.347 1580.41 598.266 1585.08 589.962 1591.21C589.173 1591.79 588.537 1592.54 588.109 1593.42C587.681 1594.3 587.474 1595.26 587.506 1596.24C587.538 1597.21 587.809 1598.16 588.293 1599.01C588.778 1599.86 589.463 1600.57 590.288 1601.09C591.334 1601.72 592.546 1602.02 593.766 1601.95C594.986 1601.89 596.157 1601.45 597.127 1600.71C606.309 1593.18 618.087 1589.58 629.909 1590.67Z" fill="#455A64"/>
<path d="M651.675 1604.62C650.211 1602.31 648.215 1600.38 645.854 1599C643.493 1597.63 640.836 1596.83 638.106 1596.69C626.908 1596.58 615.963 1600.02 606.843 1606.52C606.07 1607.05 605.439 1607.77 605.003 1608.6C604.567 1609.43 604.339 1610.35 604.339 1611.29C604.339 1612.23 604.567 1613.16 605.003 1613.99C605.439 1614.82 606.07 1615.54 606.843 1616.07C607.859 1616.68 609.038 1616.97 610.222 1616.89C611.405 1616.81 612.537 1616.38 613.464 1615.64C618.592 1611.04 624.692 1607.66 631.308 1605.75C637.925 1603.84 644.887 1603.46 651.675 1604.62Z" fill="#455A64"/>
<path d="M675.882 1617.32C674.191 1615.16 672.055 1613.4 669.619 1612.14C667.184 1610.89 664.507 1610.17 661.77 1610.05C650.963 1610.13 640.46 1613.63 631.755 1620.03C631 1620.59 630.392 1621.33 629.984 1622.17C629.576 1623.02 629.38 1623.95 629.412 1624.89C629.444 1625.83 629.703 1626.75 630.168 1627.57C630.633 1628.39 631.289 1629.08 632.081 1629.58C633.066 1630.25 634.242 1630.57 635.429 1630.5C636.615 1630.43 637.746 1629.98 638.648 1629.2C643.493 1624.45 649.386 1620.9 655.852 1618.84C662.318 1616.77 669.178 1616.25 675.882 1617.32Z" fill="#455A64"/>
<path d="M315.216 1316.09C317.659 1261.43 329.274 1232.99 330.902 1217.85C330.902 1217.85 335.353 917.158 342.68 825.92L611.889 814.467C615.851 912.164 619.433 1174.64 617.317 1209.38C615.308 1242.65 601.794 1531.24 601.794 1531.24C563.8 1543.12 523.256 1525.81 523.256 1525.81C523.256 1525.81 500.677 1361.62 496.987 1325.42C494.367 1292.86 495.204 1260.11 499.483 1227.73L482.278 993.958C482.278 993.958 461.49 1175.24 451.232 1243.63C439.508 1321.84 388.923 1564.29 388.923 1564.29C352.558 1573.35 317.17 1557.67 317.17 1557.67C317.17 1557.67 311.634 1395.28 315.216 1316.09Z" fill="#455A64"/>
<path d="M482.333 994.175L487.435 961.935C503.121 959.601 542.851 934.797 566.352 913.087C549.611 938.419 526.96 959.3 500.353 973.93L499.538 1227.83L482.333 994.175Z" fill="#37474F"/>
<path d="M592.73 656.09C574.439 614.351 542.959 544.064 542.959 544.064L534.98 430.084C546.627 430.455 558.242 431.488 569.771 433.178C586.706 435.837 613.572 452.012 625.838 482.515C635.011 505.148 682.666 643.226 682.666 643.226L765.708 599.48C786.984 585.965 794.528 563.549 808.097 550.631C821.666 537.714 835.235 535.76 850.27 525.393C865.304 515.026 871.22 506.722 875.02 517.089C878.819 527.455 861.994 543.358 858.737 547.321C855.48 551.283 839.143 559.75 859.985 560.835C880.827 561.921 923 541.622 933.095 538.148C943.19 534.674 942.322 546.669 937.057 554.105C931.793 561.541 931.25 583.36 922.457 595.572C913.122 608.598 908.074 614.189 888.046 621.95C869.429 629.115 830.839 630.96 810.974 642.412C791.109 653.864 743.02 697.339 710.943 719.647C667.902 749.607 643.695 751.561 626.816 727.68C609.936 703.798 599.189 670.798 592.73 656.09Z" fill="#FFA8A7"/>
<path d="M523.746 427.642C551.97 425.471 585.241 427.208 603.64 443.925C618.349 457.331 623.885 465.635 640.277 511.987C651.132 543.087 674.362 614.732 674.362 614.732C642.467 621.927 613.845 639.464 592.948 664.611L540.029 545.693L523.746 427.642Z" fill="#E0E0E0"/>
<path d="M682.665 642.955C668.362 648.019 656.056 657.529 647.549 670.093C647.549 670.093 649.557 648.382 680.114 635.41L682.665 642.955Z" fill="#F28F8F"/>
<path d="M456.172 422.539C442.804 421.988 429.429 423.452 416.496 426.882C391.692 433.449 347.24 445.932 347.24 445.932C333.128 453.26 327.647 477.684 324.444 491.741C314.24 536.736 340.727 638.287 344.798 677.854C348.868 717.421 340.076 838.62 340.076 838.62C370.416 873.791 534.818 897.129 614.875 838.62C614.875 838.62 618.349 560.346 610.479 520.399C598.538 459.936 580.79 431.224 518.21 427.587L456.172 422.539Z" fill="#F5F5F5"/>
<path d="M491.288 273.28L473.431 283.104C472.196 280.646 471.94 277.81 472.716 275.17C473.492 272.53 475.241 270.283 477.61 268.884C478.79 268.243 480.088 267.848 481.425 267.723C482.762 267.598 484.111 267.746 485.389 268.157C486.668 268.568 487.85 269.234 488.864 270.114C489.877 270.995 490.702 272.072 491.288 273.28Z" fill="#263238"/>
<path d="M568.958 280.445L552.675 267.908C553.44 266.806 554.421 265.872 555.558 265.163C556.696 264.453 557.966 263.982 559.291 263.779C560.617 263.576 561.97 263.645 563.268 263.981C564.565 264.318 565.781 264.915 566.841 265.737C568.998 267.459 570.417 269.939 570.811 272.672C571.204 275.404 570.541 278.184 568.958 280.445Z" fill="#263238"/>
<path d="M409.223 216.453C409.223 216.453 390.009 219.113 382.954 233.767C376.875 246.359 379.046 276.754 387.241 309.754C391.873 331.165 398.787 352.017 407.866 371.954C411.073 377.603 416.315 381.815 422.521 383.732L421.49 344.327L420.078 317.189C420.078 317.189 437.61 293.199 439.563 273.769C442.06 248.476 436.741 238.109 436.741 238.109L409.223 216.453Z" fill="#263238"/>
<path d="M440.215 254.447C440.287 273.895 448.071 292.521 461.858 306.237C475.646 319.953 494.311 327.64 513.759 327.611C554.249 327.611 584.644 294.231 584.318 253.687C583.992 213.143 553.598 180.686 513.054 180.849C493.648 180.992 475.09 188.817 461.439 202.61C447.789 216.403 440.157 235.041 440.215 254.447Z" fill="#263238"/>
<path d="M421.49 312.577C414.868 318.33 409.495 303.513 403.959 297.705C398.423 291.897 380.24 284.082 371.393 303.133C362.546 322.183 379.317 349.81 393.103 355.129C397.265 356.705 401.836 356.833 406.08 355.494C410.324 354.155 413.993 351.426 416.496 347.747V434.589C437.393 472.257 474.246 471.063 493.948 468.946C513.651 466.829 517.938 446.367 503.555 429.867V402.729C514.502 404.447 525.603 404.975 536.664 404.303C554.683 401.481 563.802 388.02 569.229 368.318C577.913 336.892 581.441 284.136 569.229 223.184C549.039 207.552 479.022 210.158 436.633 237.024C439.944 291.68 427.786 306.878 421.49 312.577Z" fill="#FFA8A7"/>
<path d="M572.811 193.006C575.538 181.692 576.76 170.067 576.447 158.432C576.447 153.873 575.308 148.337 571.02 146.6C566.732 144.863 562.498 148.011 558.808 150.508C543.176 161.038 523.745 164.023 504.912 165.054C472.346 166.845 422.575 164.728 406.021 200.388C401.407 210.266 400.593 220.687 409.711 227.526C417.841 232.972 427.137 236.43 436.849 237.621C453.132 240.498 469.415 244.08 486.132 246.305C502.849 248.531 522.714 250.702 539.268 245.6C553.217 241.312 567.383 237.621 577.75 226.549C586.735 216.894 591.805 204.24 591.97 191.052C591.97 189.207 591.59 186.873 589.745 186.385C588.823 186.269 587.888 186.459 587.086 186.927L572.811 193.006Z" fill="#263238"/>
<path d="M503.393 403.326C503.393 403.326 463.12 395.347 449.117 387.911C440.822 383.614 434.013 376.919 429.577 368.698C431.64 376.911 435.331 384.626 440.432 391.385C450.799 404.52 503.284 414.018 503.284 414.018L503.393 403.326Z" fill="#F28F8F"/>
<path d="M495.305 299.93C495.251 301.711 494.675 303.436 493.647 304.89C492.619 306.345 491.186 307.464 489.525 308.109C487.865 308.753 486.052 308.894 484.312 308.515C482.572 308.135 480.982 307.251 479.742 305.973C478.501 304.695 477.664 303.08 477.336 301.33C477.008 299.579 477.202 297.771 477.896 296.131C478.589 294.49 479.75 293.09 481.234 292.106C482.718 291.121 484.46 290.596 486.241 290.595C488.678 290.638 491 291.644 492.698 293.393C494.397 295.142 495.334 297.493 495.305 299.93Z" fill="#263238"/>
<path d="M508.331 362.619C508.375 364.913 507.509 367.132 505.923 368.789C504.336 370.447 502.158 371.409 499.864 371.466C497.556 371.424 495.359 370.469 493.752 368.811C492.145 367.154 491.26 364.928 491.289 362.619C491.267 361.486 491.469 360.36 491.883 359.304C492.297 358.249 492.914 357.286 493.701 356.469C494.487 355.652 495.426 354.999 496.465 354.545C497.504 354.092 498.622 353.848 499.756 353.827C502.054 353.869 504.244 354.816 505.849 356.462C507.454 358.108 508.346 360.32 508.331 362.619Z" fill="#B16668"/>
<path d="M483.907 271.435L465.236 283.213C463.696 280.65 463.208 277.59 463.876 274.675C464.544 271.761 466.315 269.218 468.818 267.582C470.056 266.823 471.434 266.32 472.87 266.103C474.305 265.886 475.77 265.96 477.177 266.319C478.584 266.678 479.905 267.316 481.061 268.195C482.217 269.074 483.184 270.176 483.907 271.435Z" fill="#263238"/>
<path d="M549.798 259.928L569.446 268.721C568.916 270.011 568.13 271.18 567.135 272.157C566.14 273.134 564.958 273.9 563.659 274.407C562.36 274.915 560.972 275.153 559.579 275.109C558.185 275.064 556.815 274.738 555.551 274.149C552.986 272.929 550.971 270.792 549.906 268.159C548.841 265.526 548.802 262.589 549.798 259.928Z" fill="#263238"/>
<path d="M560.165 297.216C560.101 298.927 559.536 300.581 558.541 301.974C557.545 303.366 556.162 304.435 554.564 305.049C552.966 305.662 551.222 305.792 549.551 305.424C547.879 305.055 546.353 304.203 545.161 302.975C543.969 301.746 543.164 300.194 542.846 298.512C542.528 296.83 542.712 295.092 543.373 293.513C544.035 291.934 545.146 290.584 546.568 289.631C547.99 288.678 549.661 288.164 551.372 288.152C553.738 288.195 555.991 289.172 557.638 290.871C559.286 292.569 560.194 294.85 560.165 297.216Z" fill="#263238"/>
<path d="M515.767 281.91L519.023 342.265L547.627 334.666L515.767 281.91Z" fill="#F28F8F"/>
<path d="M8.99146 530.494C18.3812 535.542 56.6458 562.463 77.4335 564.797C86.2263 565.774 88.6144 564.362 88.2888 562.083C87.8546 558.935 82.2641 554.213 80.9072 551.662C78.5733 547.211 64.6244 528.757 70.052 519.096C75.4796 509.435 80.2016 518.662 93.1193 531.308C106.037 543.955 119.28 548.351 130.624 563.06C141.968 577.769 145.767 601.053 164.547 617.933L239.339 669.007C239.339 669.007 274.184 507.318 289.49 488.267C305.773 468.24 375.626 511.877 360.972 575.543C346.317 639.209 312.937 749.715 289.707 771.371C274.727 785.429 243.193 772.185 203.842 737.177C172.742 709.497 130.136 667.975 112.116 653.267C94.0963 638.558 56.6458 630.633 39.4403 620.701C20.9322 609.846 16.8615 603.495 9.75132 589.112C3.07537 575.598 6.06055 553.941 2.0984 545.691C-1.86375 537.442 -0.56112 525.446 8.99146 530.494Z" fill="#FFA8A7"/>
<path d="M347.24 445.933C371.23 460.913 372.424 482.732 373.619 507.699C373.958 536.924 369.333 565.995 359.941 593.672C349.791 625.098 333.671 682.468 333.671 682.468C333.671 682.468 271.037 683.933 238.797 656.089C238.797 656.089 253.506 594.215 263.872 547.537C274.239 500.86 286.831 451.197 347.24 445.933Z" fill="#E0E0E0"/>
<path d="M239.068 669.116C256.165 678.614 266.206 699.022 269.3 707.109C268.56 697.692 265.596 688.586 260.652 680.537C255.708 672.489 248.924 665.728 240.859 660.811L239.068 669.116Z" fill="#F28F8F"/>
<path d="M888.86 1842.18L1307.76 2084.04V2173.16L888.86 1931.31V1842.18Z" fill="#7694FF"/>
<path opacity="0.35" d="M888.86 1842.18L1307.76 2084.04V2173.16L888.86 1931.31V1842.18Z" fill="black"/>
<path d="M1726.67 1842.18L1307.76 2084.04V2173.16L1726.67 1931.31V1842.18Z" fill="#7694FF"/>
<path opacity="0.2" d="M1726.67 1842.18L1307.76 2084.04V2173.16L1726.67 1931.31V1842.18Z" fill="black"/>
<path d="M1726.67 1842.18L1307.76 1600.38L888.86 1842.18L1307.76 2084.04L1726.67 1842.18Z" fill="#7694FF"/>
<path opacity="0.15" d="M1726.67 1842.18L1307.76 1600.38L888.86 1842.18L1307.76 2084.04L1726.67 1842.18Z" fill="black"/>
<path opacity="0.1" d="M1307.76 2084.04V2058.58L932.932 1842.18H888.86L1307.76 2084.04Z" fill="black"/>
<path opacity="0.1" d="M1307.76 1600.38V1625.84L1682.59 1842.18H1726.67L1307.76 1600.38Z" fill="black"/>
<path d="M1726.67 1842.18H1682.59L1307.76 2058.58V2084.04L1726.67 1842.18Z" fill="#7694FF"/>
<path d="M1307.76 1600.38V1625.84L932.932 1842.18H888.86L1307.76 1600.38Z" fill="#7694FF"/>
<path d="M1309.28 1737.21L1489.26 1841.1C1502.72 1848.91 1502.72 1861.51 1489.26 1869.27L1355.04 1946.99C1347.48 1950.86 1339.1 1952.87 1330.61 1952.87C1322.12 1952.87 1313.75 1950.86 1306.19 1946.99L1126.21 1843.11C1112.75 1835.29 1112.75 1822.7 1126.21 1814.94L1260.49 1737.21C1268.04 1733.36 1276.4 1731.35 1284.89 1731.35C1293.37 1731.35 1301.73 1733.36 1309.28 1737.21Z" fill="#37474F"/>
<path d="M1355.04 1946.99L1484.81 1872.04L1309.28 1770.7C1301.71 1766.88 1293.34 1764.9 1284.86 1764.9C1276.38 1764.9 1268.01 1766.88 1260.43 1770.7L1130.66 1845.77L1306.19 1946.99C1313.75 1950.85 1322.12 1952.87 1330.61 1952.87C1339.1 1952.87 1347.48 1950.85 1355.04 1946.99Z" fill="#455A64"/>
<path d="M1200.57 1842.35L1279.32 1796.92C1280.79 1796.18 1282.4 1795.8 1284.04 1795.8C1285.68 1795.8 1287.3 1796.18 1288.77 1796.92L1298.43 1802.35C1301.03 1803.81 1301.03 1806.25 1298.43 1807.77L1219.67 1853.2C1218.22 1853.94 1216.61 1854.32 1214.98 1854.32C1213.35 1854.32 1211.74 1853.94 1210.28 1853.2L1200.62 1847.77C1200.06 1847.58 1199.57 1847.22 1199.22 1846.74C1198.87 1846.25 1198.68 1845.68 1198.67 1845.08C1198.67 1844.48 1198.85 1843.9 1199.18 1843.41C1199.52 1842.92 1200.01 1842.55 1200.57 1842.35Z" fill="#263238"/>
<path d="M1318.18 1910.35L1396.94 1864.93C1398.39 1864.19 1400 1863.81 1401.63 1863.81C1403.26 1863.81 1404.87 1864.19 1406.33 1864.93L1416.04 1870.35C1418.65 1871.82 1418.65 1874.26 1416.04 1875.78L1337.29 1921.21C1335.83 1921.94 1334.23 1922.33 1332.59 1922.33C1330.96 1922.33 1329.36 1921.94 1327.9 1921.21L1318.24 1915.78C1317.67 1915.59 1317.18 1915.23 1316.83 1914.75C1316.49 1914.26 1316.29 1913.68 1316.29 1913.09C1316.28 1912.49 1316.46 1911.91 1316.8 1911.42C1317.14 1910.93 1317.62 1910.56 1318.18 1910.35Z" fill="#263238"/>
<path d="M1125.78 2018.2C1125.33 2009.96 1122.95 2001.95 1118.82 1994.81C1114.69 1987.67 1108.92 1981.6 1102 1977.11C1099.61 1975.37 1096.79 1974.29 1093.84 1974.01C1090.89 1973.72 1087.92 1974.23 1085.23 1975.49L1074.97 1981.46C1072.56 1983.16 1070.64 1985.47 1069.42 1988.17C1068.2 1990.86 1067.72 1993.82 1068.03 1996.76C1068.48 2005 1070.86 2013.01 1074.98 2020.16C1079.1 2027.31 1084.84 2033.39 1091.74 2037.9C1094.15 2039.65 1096.98 2040.72 1099.94 2041.01C1102.89 2041.3 1105.88 2040.79 1108.57 2039.53L1118.77 2033.4C1121.17 2031.7 1123.08 2029.41 1124.31 2026.74C1125.54 2024.07 1126.05 2021.13 1125.78 2018.2Z" fill="#7694FF"/>
<path opacity="0.1" d="M1091.74 1983.25C1098.67 1987.74 1104.43 1993.8 1108.56 2000.94C1112.69 2008.08 1115.07 2016.1 1115.52 2024.33C1115.52 2039.48 1104.66 2045.61 1091.74 2038.07C1084.84 2033.55 1079.1 2027.47 1074.98 2020.33C1070.86 2013.18 1068.48 2005.16 1068.03 1996.93C1068.03 1981.84 1078.66 1975.7 1091.74 1983.25Z" fill="black"/>
<path d="M816.401 2156.6C789.916 2157.07 763.755 2150.73 740.415 2138.21L462.522 1977.77C440.214 1964.85 427.894 1947.04 427.894 1927.61C427.894 1908.18 440.214 1890.44 462.522 1877.52L784.487 1691.62C819.767 1671.27 849.618 1619.65 849.618 1578.89V559.967C849.618 557.088 850.762 554.326 852.798 552.291C854.833 550.255 857.595 549.111 860.474 549.111C863.353 549.111 866.114 550.255 868.149 552.291C870.185 554.326 871.329 557.088 871.329 559.967V1578.89C871.329 1628.06 838.003 1685.87 795.342 1710.46L473.377 1896.35C458.071 1905.2 449.604 1916.27 449.604 1927.61C449.604 1938.96 458.071 1950.08 473.377 1958.93L751.27 2119.37C787.147 2140.1 845.548 2140.1 881.533 2119.37L1086.42 2001.16C1087.66 2000.37 1089.04 1999.85 1090.49 1999.61C1091.93 1999.37 1093.41 1999.43 1094.83 1999.78C1096.25 2000.12 1097.59 2000.76 1098.76 2001.63C1099.93 2002.51 1100.91 2003.62 1101.65 2004.89C1102.38 2006.15 1102.85 2007.56 1103.02 2009.01C1103.2 2010.46 1103.08 2011.94 1102.67 2013.34C1102.27 2014.75 1101.58 2016.06 1100.65 2017.19C1099.72 2018.33 1098.58 2019.26 1097.28 2019.94L892.388 2138.21C869.052 2150.74 842.888 2157.08 816.401 2156.6Z" fill="#37474F"/>
<path d="M328.786 170.319C328.625 169.584 328.619 168.822 328.769 168.084C328.918 167.346 329.22 166.647 329.654 166.032C330.063 165.388 330.603 164.838 331.239 164.417C331.875 163.996 332.593 163.714 333.345 163.589L359.723 158.487C360.467 158.319 361.238 158.309 361.987 158.459C362.735 158.608 363.443 158.914 364.065 159.356C365.326 160.224 366.201 161.547 366.507 163.046L370.578 184.214C370.731 184.954 370.728 185.717 370.569 186.455C370.41 187.194 370.099 187.891 369.655 188.502C369.258 189.149 368.729 189.706 368.102 190.136C367.476 190.566 366.766 190.86 366.019 190.999L339.587 196.046C338.851 196.207 338.089 196.213 337.351 196.063C336.613 195.914 335.914 195.612 335.299 195.178C334.655 194.769 334.105 194.229 333.684 193.593C333.263 192.957 332.981 192.239 332.856 191.487L328.786 170.319ZM306.75 56.0141C306.6 55.269 306.599 54.5016 306.748 53.7562C306.896 53.0108 307.191 52.3022 307.615 51.6714C308.039 51.0406 308.583 50.5 309.217 50.0809C309.851 49.6618 310.562 49.3724 311.309 49.2296L337.741 44.1277C338.481 43.9747 339.244 43.9777 339.982 44.1366C340.721 44.2955 341.418 44.6067 342.029 45.0503C342.666 45.4535 343.213 45.9851 343.633 46.6112C344.054 47.2374 344.339 47.9443 344.471 48.6868L361.785 139.165C361.938 139.905 361.935 140.668 361.776 141.406C361.618 142.145 361.306 142.842 360.863 143.453C360.46 144.09 359.928 144.637 359.302 145.057C358.676 145.478 357.969 145.763 357.226 145.895L330.794 150.997C330.054 151.15 329.291 151.147 328.553 150.988C327.814 150.829 327.117 150.518 326.506 150.074C325.869 149.671 325.322 149.14 324.902 148.514C324.481 147.887 324.196 147.181 324.064 146.438L306.75 56.0141Z" fill="#7694FF"/>
<path d="M284.713 258.898C284.206 258.336 283.814 257.679 283.561 256.965C283.308 256.251 283.199 255.494 283.239 254.737C283.28 253.981 283.469 253.24 283.796 252.557C284.124 251.874 284.583 251.262 285.147 250.757L305.175 232.791C305.734 232.277 306.395 231.885 307.115 231.642C307.835 231.399 308.598 231.31 309.355 231.38C310.107 231.396 310.847 231.569 311.53 231.887C312.212 232.204 312.82 232.66 313.317 233.226L327.7 249.509C328.207 250.071 328.599 250.728 328.852 251.442C329.105 252.156 329.214 252.913 329.174 253.669C329.133 254.426 328.944 255.167 328.617 255.85C328.289 256.533 327.83 257.145 327.266 257.65L307.509 275.398C306.95 275.913 306.289 276.304 305.569 276.547C304.849 276.791 304.087 276.88 303.33 276.809C302.578 276.793 301.837 276.621 301.155 276.303C300.473 275.985 299.864 275.529 299.368 274.964L284.713 258.898ZM207.044 172.057C206.023 170.912 205.496 169.409 205.579 167.877C205.602 167.121 205.783 166.378 206.11 165.695C206.437 165.013 206.903 164.407 207.478 163.915L227.506 145.95C228.061 145.425 228.72 145.024 229.44 144.771C230.16 144.519 230.925 144.421 231.686 144.484C232.442 144.507 233.185 144.688 233.867 145.015C234.55 145.342 235.156 145.809 235.648 146.384L297.088 215.097C297.603 215.656 297.994 216.317 298.237 217.037C298.481 217.757 298.57 218.52 298.499 219.277C298.483 220.029 298.311 220.77 297.993 221.452C297.675 222.134 297.219 222.742 296.654 223.239L276.572 241.204C276.019 241.712 275.367 242.099 274.657 242.342C273.947 242.585 273.195 242.678 272.447 242.615C271.685 242.607 270.934 242.438 270.242 242.12C269.55 241.802 268.933 241.342 268.43 240.77L207.044 172.057Z" fill="#7694FF"/>
<g opacity="0.6">
<path opacity="0.6" d="M284.713 258.898C284.206 258.336 283.814 257.679 283.561 256.965C283.308 256.251 283.199 255.494 283.239 254.737C283.28 253.981 283.469 253.24 283.796 252.557C284.124 251.874 284.583 251.262 285.147 250.757L305.175 232.791C305.734 232.277 306.395 231.885 307.115 231.642C307.835 231.399 308.598 231.31 309.355 231.38C310.107 231.396 310.847 231.569 311.53 231.887C312.212 232.204 312.82 232.66 313.317 233.226L327.7 249.509C328.207 250.071 328.599 250.728 328.852 251.442C329.105 252.156 329.214 252.913 329.174 253.669C329.133 254.426 328.944 255.167 328.617 255.85C328.289 256.533 327.83 257.145 327.266 257.65L307.509 275.398C306.95 275.913 306.289 276.304 305.569 276.547C304.849 276.791 304.087 276.88 303.33 276.809C302.578 276.793 301.837 276.621 301.155 276.303C300.473 275.985 299.864 275.529 299.368 274.964L284.713 258.898ZM207.044 172.057C206.023 170.912 205.496 169.409 205.579 167.877C205.602 167.121 205.783 166.378 206.11 165.695C206.437 165.013 206.903 164.407 207.478 163.915L227.506 145.95C228.061 145.425 228.72 145.024 229.44 144.771C230.16 144.519 230.925 144.421 231.686 144.484C232.442 144.507 233.185 144.688 233.867 145.015C234.55 145.342 235.156 145.809 235.648 146.384L297.088 215.097C297.603 215.656 297.994 216.317 298.237 217.037C298.481 217.757 298.57 218.52 298.499 219.277C298.483 220.029 298.311 220.77 297.993 221.452C297.675 222.134 297.219 222.742 296.654 223.239L276.572 241.204C276.019 241.712 275.367 242.099 274.657 242.342C273.947 242.585 273.195 242.678 272.447 242.615C271.685 242.607 270.934 242.438 270.242 242.12C269.55 241.802 268.933 241.342 268.43 240.77L207.044 172.057Z" fill="white"/>
</g>
<path d="M801.422 5.80835C810.718 5.22585 819.912 8.02065 827.311 13.6784C830.479 16.5631 832.955 20.1262 834.552 24.1018C836.15 28.0773 836.829 32.3624 836.538 36.6371C836.815 40.9345 836.13 45.2395 834.534 49.239C832.938 53.2386 830.47 56.8322 827.311 59.7587C819.961 65.5356 810.755 68.4306 801.422 67.9001H779.711V98.5661C779.724 99.0603 779.634 99.5517 779.447 100.009C779.26 100.467 778.98 100.881 778.626 101.226C778.286 101.571 777.88 101.845 777.433 102.031C776.985 102.218 776.505 102.313 776.021 102.311H764.894C764.4 102.318 763.91 102.227 763.452 102.041C762.994 101.855 762.579 101.58 762.229 101.231C761.88 100.881 761.605 100.466 761.419 100.008C761.233 99.5502 761.142 99.0599 761.149 98.5661V9.66194C761.149 9.17266 761.246 8.68826 761.435 8.2369C761.624 7.78554 761.9 7.37624 762.249 7.0328C762.597 6.68936 763.011 6.41865 763.465 6.2364C763.919 6.05414 764.405 5.96398 764.894 5.97117L801.422 5.80835ZM779.711 50.6946H801.042C805.435 50.9221 809.797 49.8457 813.58 47.6009C815.236 46.3556 816.539 44.6986 817.358 42.7944C818.177 40.8902 818.483 38.805 818.247 36.7457C818.512 34.6842 818.218 32.5895 817.397 30.6802C816.576 28.7708 815.258 27.1168 813.58 25.8905C809.759 23.7545 805.413 22.7386 801.042 22.9596H779.711V50.6946Z" fill="#455A64"/>
<path d="M848.967 48.361C849.453 46.1665 850.316 44.073 851.518 42.1735C852.941 39.8017 854.779 37.7057 856.946 35.9861C859.643 33.9042 862.67 32.2896 865.901 31.2098C869.875 29.903 874.04 29.279 878.222 29.3644C882.509 29.2969 886.779 29.92 890.868 31.2098C894.439 32.3468 897.744 34.1928 900.584 36.6374C903.338 39.1135 905.475 42.1988 906.825 45.6472C908.361 49.6272 909.116 53.8654 909.051 58.1307V98.5663C909.053 99.064 908.953 99.5569 908.757 100.014C908.561 100.472 908.273 100.884 907.911 101.226C907.573 101.574 907.168 101.849 906.72 102.036C906.272 102.223 905.791 102.316 905.306 102.311H894.885C894.391 102.319 893.901 102.227 893.443 102.041C892.985 101.856 892.57 101.58 892.22 101.231C891.871 100.882 891.595 100.466 891.41 100.008C891.224 99.5504 891.132 99.0602 891.14 98.5663V94.0614C888.961 96.9615 886.112 99.2896 882.835 100.846C878.516 102.884 873.768 103.853 868.995 103.668C865.315 103.746 861.647 103.214 858.14 102.094C855.233 101.179 852.552 99.6631 850.27 97.6436C848.182 95.7298 846.518 93.4003 845.385 90.8049C844.235 88.094 843.662 85.1736 843.702 82.2293C843.566 79.3945 844.105 76.5678 845.275 73.9822C846.445 71.3965 848.213 69.126 850.433 67.3576C855.873 63.3801 862.248 60.8749 868.941 60.0846L891.357 56.231C891.496 54.6942 891.228 53.1479 890.58 51.7474C889.932 50.3469 888.927 49.1416 887.666 48.2525C884.866 46.6359 881.671 45.828 878.439 45.9186C876.579 45.8242 874.722 46.1585 873.012 46.8956C871.659 47.5759 870.415 48.454 869.321 49.5008C868.646 50.1248 867.877 50.6378 867.041 51.0205C866.315 51.3053 865.542 51.4525 864.762 51.4547H851.952C851.09 51.4859 850.251 51.1736 849.619 50.5863C849.305 50.319 849.077 49.9661 848.961 49.5708C848.845 49.1755 848.848 48.7551 848.967 48.361ZM871.98 87.2227C874.802 87.2662 877.611 86.8256 880.284 85.92C882.534 85.1433 884.615 83.9461 886.418 82.3921C887.987 81.0284 889.245 79.3442 890.108 77.453C890.908 75.7538 891.333 73.903 891.357 72.0254V70.3971L872.632 73.6536C869.763 73.9969 867.004 74.9599 864.544 76.476C863.742 77.0436 863.093 77.8024 862.657 78.6837C862.221 79.565 862.012 80.5411 862.048 81.5237C862.038 82.46 862.32 83.3761 862.855 84.1445C863.39 84.913 864.151 85.4957 865.033 85.8115C867.224 86.7636 869.591 87.2444 871.98 87.2227Z" fill="#455A64"/>
<path d="M958.822 116.043C960.825 116.036 962.817 115.744 964.738 115.175C966.712 114.593 968.555 113.635 970.165 112.353C971.83 111.008 973.213 109.348 974.236 107.468C975.314 105.313 975.854 102.929 975.81 100.52V95.4185C974.926 96.3829 973.964 97.2724 972.934 98.0781C971.597 99.1483 970.139 100.059 968.591 100.792C966.697 101.684 964.714 102.375 962.675 102.854C960.165 103.422 957.596 103.696 955.022 103.668C950.731 103.739 946.48 102.829 942.593 101.009C938.967 99.3006 935.734 96.8615 933.095 93.8445C930.427 90.8086 928.331 87.3148 926.907 83.5321C925.38 79.6326 924.518 75.5047 924.356 71.32C924.356 69.9631 924.356 68.3348 924.356 66.5437C924.356 64.7526 924.356 63.07 924.356 61.7131C924.518 57.5284 925.38 53.4004 926.907 49.501C928.343 45.7245 930.438 42.2328 933.095 39.1886C935.718 36.1776 938.933 33.7388 942.539 32.0241C946.426 30.2041 950.677 29.2945 954.968 29.3646C957.542 29.3376 960.11 29.6108 962.621 30.1788C964.66 30.6584 966.642 31.3496 968.537 32.2412C970.085 32.974 971.542 33.8848 972.879 34.955C973.91 35.7607 974.872 36.6502 975.756 37.6146V34.4665C975.769 33.4868 976.161 32.5503 976.849 31.8524C977.537 31.1546 978.467 30.7494 979.447 30.7215H989.922C990.902 30.7616 991.832 31.169 992.526 31.8628C993.219 32.5567 993.627 33.4861 993.667 34.4665V99.0007C993.983 103.612 993.315 108.238 991.705 112.571C990.095 116.904 987.582 120.844 984.331 124.131C977.211 130.088 968.091 133.115 958.822 132.598C954.408 132.63 950.016 131.99 945.796 130.698C942.094 129.628 938.592 127.959 935.429 125.759C932.653 123.895 930.258 121.519 928.373 118.757C926.708 116.367 925.715 113.575 925.496 110.67C925.451 110.185 925.521 109.697 925.7 109.244C925.879 108.791 926.163 108.387 926.528 108.065C927.241 107.374 928.194 106.985 929.187 106.979H938.577C939.187 106.966 939.794 107.075 940.363 107.299C940.931 107.522 941.449 107.856 941.888 108.282C942.81 109.15 943.57 109.965 944.221 110.67C945.513 112.332 947.19 113.654 949.106 114.524C952.196 115.729 955.511 116.248 958.822 116.043ZM942.539 62.6901C942.268 65.252 942.268 67.8354 942.539 70.3973C942.576 75.2341 944.528 79.8592 947.967 83.2607C951.166 85.9033 955.217 87.2923 959.365 87.1686C963.514 87.2896 967.559 85.8573 970.708 83.1522C972.326 81.7093 973.64 79.9578 974.572 78.0006C975.504 76.0433 976.035 73.9197 976.136 71.7542C976.335 69.9521 976.426 68.1396 976.407 66.3266C976.423 64.5136 976.333 62.7013 976.136 60.899C975.911 56.6663 974.045 52.6881 970.933 49.8097C967.822 46.9313 963.71 45.3797 959.473 45.4846C955.325 45.3609 951.274 46.7498 948.075 49.3925C946.3 51.1189 944.895 53.1876 943.943 55.4734C942.991 57.7591 942.514 60.2143 942.539 62.6901Z" fill="#455A64"/>
<path d="M1009.14 66.5429C1009.11 61.5947 1009.92 56.6777 1011.52 51.9969C1013.04 47.6208 1015.42 43.5959 1018.53 40.1648C1021.53 36.7753 1025.24 34.0727 1029.38 32.2405C1033.8 30.3609 1038.55 29.3922 1043.36 29.3922C1048.16 29.3922 1052.91 30.3609 1057.33 32.2405C1061.42 33.9947 1065.12 36.5613 1068.19 39.7848C1071.16 43.04 1073.48 46.8356 1075.03 50.9657C1076.62 55.256 1077.43 59.7964 1077.42 64.3719V70.5594C1077.43 71.0463 1077.35 71.5315 1077.16 71.9813C1076.97 72.4311 1076.69 72.8349 1076.33 73.1646C1076 73.5276 1075.6 73.8169 1075.15 74.0133C1074.7 74.2098 1074.21 74.309 1073.72 74.3044H1027.75C1027.73 76.1933 1028.18 78.0579 1029.06 79.732C1029.91 81.3356 1031.12 82.7267 1032.58 83.8027C1034.11 84.9438 1035.84 85.7904 1037.69 86.2994C1039.61 86.8469 1041.6 87.1209 1043.6 87.1135C1046.01 87.1784 1048.4 86.8671 1050.71 86.1909C1052.34 85.6919 1053.88 84.941 1055.27 83.9655C1056.04 83.3646 1056.88 82.8546 1057.77 82.4458C1058.6 82.1332 1059.48 81.9857 1060.37 82.0116H1071.23C1072.22 82.0172 1073.17 82.4061 1073.89 83.0971C1074.27 83.4192 1074.56 83.8312 1074.74 84.2957C1074.92 84.7603 1074.98 85.2625 1074.92 85.7566C1074.6 87.543 1073.88 89.2326 1072.8 90.6958C1071.16 92.9945 1069.15 94.9955 1066.83 96.6119C1063.79 98.7182 1060.46 100.381 1056.95 101.551C1052.6 102.992 1048.03 103.69 1043.44 103.613C1038.64 103.69 1033.87 102.785 1029.44 100.954C1025.28 99.2605 1021.57 96.6433 1018.58 93.301C1015.47 89.9823 1013.07 86.0678 1011.52 81.7945C1009.86 76.8839 1009.06 71.7257 1009.14 66.5429ZM1042.9 45.8638C1040.56 45.796 1038.23 46.2022 1036.06 47.0578C1034.29 47.739 1032.69 48.7733 1031.33 50.0973C1030.08 51.2606 1029.06 52.6628 1028.35 54.2223C1027.68 55.5896 1027.24 57.0561 1027.05 58.5644H1058.15C1057.95 57.0868 1057.6 55.6324 1057.12 54.2223C1056.6 52.6775 1055.75 51.2677 1054.62 50.0973C1053.36 48.7642 1051.82 47.7263 1050.11 47.0578C1047.81 46.1806 1045.36 45.7745 1042.9 45.8638Z" fill="#455A64"/>
<path d="M1190.26 98.5653C1190.26 99.0546 1190.17 99.5403 1189.99 99.9944C1189.81 100.448 1189.54 100.862 1189.19 101.21C1188.85 101.559 1188.44 101.835 1187.99 102.024C1187.54 102.213 1187.05 102.31 1186.56 102.31H1175.93C1175.44 102.315 1174.96 102.222 1174.51 102.035C1174.06 101.848 1173.66 101.573 1173.32 101.225C1172.96 100.883 1172.67 100.471 1172.48 100.013C1172.28 99.5559 1172.18 99.063 1172.18 98.5653V63.6116C1172.43 58.905 1171.07 54.2531 1168.33 50.4225C1166.89 48.7165 1165.07 47.3783 1163.01 46.5192C1160.95 45.6601 1158.72 45.305 1156.5 45.4834C1154.34 45.3783 1152.18 45.7687 1150.2 46.6248C1148.21 47.4809 1146.45 48.78 1145.04 50.4225C1142.08 54.1592 1140.57 58.8471 1140.81 63.6116V98.5653C1140.82 99.0595 1140.73 99.551 1140.55 100.009C1140.36 100.466 1140.08 100.88 1139.72 101.225C1139.38 101.57 1138.98 101.844 1138.53 102.031C1138.08 102.217 1137.6 102.312 1137.12 102.31H1127.08C1126.59 102.312 1126.11 102.217 1125.67 102.031C1125.22 101.844 1124.81 101.57 1124.47 101.225C1124.12 100.88 1123.84 100.466 1123.65 100.009C1123.46 99.551 1123.37 99.0595 1123.39 98.5653V34.4654C1123.37 33.9784 1123.46 33.4933 1123.64 33.0434C1123.83 32.5936 1124.11 32.1899 1124.47 31.8601C1124.8 31.4971 1125.2 31.2078 1125.65 31.0114C1126.1 30.815 1126.59 30.7158 1127.08 30.7203H1137.55C1138.04 30.7158 1138.53 30.815 1138.98 31.0114C1139.43 31.2078 1139.83 31.4971 1140.16 31.8601C1140.52 32.1899 1140.8 32.5936 1140.99 33.0434C1141.17 33.4933 1141.26 33.9784 1141.24 34.4654V37.6134C1143.7 35.1912 1146.55 33.1922 1149.66 31.6973C1153.23 30.0536 1157.13 29.255 1161.05 29.3634C1165.87 29.2046 1170.67 30.0935 1175.11 31.9687C1178.65 33.5402 1181.76 35.9419 1184.18 38.9703C1186.53 41.9951 1188.2 45.4954 1189.06 49.2284C1190.05 53.2599 1190.54 57.3977 1190.53 61.5491L1190.26 98.5653Z" fill="#455A64"/>
<path d="M1240.08 29.3637C1244.75 29.288 1249.38 30.0794 1253.76 31.6976C1257.67 33.2405 1261.26 35.5051 1264.34 38.3735C1267.32 41.116 1269.75 44.3934 1271.51 48.0347C1273.31 51.7346 1274.36 55.7567 1274.6 59.8669C1274.67 60.9151 1274.67 61.9666 1274.6 63.0149V70.6678C1274.67 71.698 1274.67 72.7313 1274.6 73.7615C1274.26 77.8609 1273.19 81.8671 1271.45 85.5937C1269.74 89.2193 1267.32 92.4669 1264.34 95.1463C1261.24 97.9209 1257.65 100.093 1253.76 101.551C1244.97 104.612 1235.41 104.612 1226.62 101.551C1222.63 100.131 1218.94 97.9565 1215.77 95.1463C1212.8 92.4648 1210.4 89.2168 1208.71 85.5937C1206.95 81.8703 1205.87 77.864 1205.51 73.7615C1205.51 72.9293 1205.51 71.8981 1205.51 70.6678C1205.51 69.4194 1205.51 68.1711 1205.51 66.8685C1205.51 65.5658 1205.51 64.3175 1205.51 63.0149C1205.51 61.7122 1205.51 60.681 1205.51 59.8669C1205.8 55.7651 1206.84 51.7528 1208.6 48.0347C1210.36 44.3934 1212.79 41.116 1215.77 38.3735C1218.94 35.5472 1222.62 33.3547 1226.62 31.9147C1230.91 30.2487 1235.48 29.3841 1240.08 29.3637ZM1256.74 60.3011C1256.56 57.8379 1255.87 55.438 1254.74 53.2452C1253.77 51.494 1252.44 49.9749 1250.83 48.7945C1249.31 47.676 1247.57 46.8984 1245.73 46.515C1243.95 46.0977 1242.13 45.8792 1240.3 45.8636C1238.47 45.876 1236.65 46.0945 1234.87 46.515C1233.03 46.8984 1231.28 47.676 1229.77 48.7945C1228.13 49.9447 1226.79 51.4708 1225.86 53.2452C1224.7 55.428 1224.01 57.8332 1223.85 60.3011C1223.85 61.0609 1223.85 61.9836 1223.85 63.0691C1223.85 64.1547 1223.85 65.3487 1223.85 66.5428C1223.85 67.7369 1223.85 68.8767 1223.85 70.0165C1223.81 70.9205 1223.81 71.8263 1223.85 72.7303C1224.01 75.1993 1224.69 77.6059 1225.86 79.7862C1226.8 81.5654 1228.14 83.1061 1229.77 84.2911C1231.31 85.3665 1233.04 86.14 1234.87 86.5707C1236.66 86.9481 1238.47 87.1481 1240.3 87.1677C1242.12 87.1456 1243.94 86.9457 1245.73 86.5707C1247.55 86.14 1249.29 85.3665 1250.83 84.2911C1252.43 83.0766 1253.76 81.5425 1254.74 79.7862C1255.88 77.5962 1256.56 75.1948 1256.74 72.7303C1256.74 72.079 1256.74 71.1563 1256.74 70.0165V63.0691C1256.85 61.9836 1256.8 61.0609 1256.74 60.084V60.3011Z" fill="#455A64"/>
<path d="M1313.68 76.3668C1313.56 78.8515 1314.37 81.2919 1315.96 83.2056C1317.12 84.1842 1318.47 84.9151 1319.93 85.3537C1321.39 85.7924 1322.92 85.9294 1324.43 85.7566H1332.84C1333.32 85.7485 1333.81 85.8407 1334.25 86.0275C1334.7 86.2142 1335.11 86.4916 1335.44 86.8421C1335.79 87.1802 1336.07 87.5855 1336.25 88.0333C1336.44 88.4811 1336.53 88.9622 1336.53 89.4473V98.5115C1336.54 99.0007 1336.45 99.4865 1336.26 99.9405C1336.08 100.395 1335.81 100.808 1335.47 101.156C1335.12 101.505 1334.72 101.782 1334.26 101.97C1333.81 102.159 1333.33 102.257 1332.84 102.256H1322.47C1315.29 102.73 1308.2 100.482 1302.61 95.9605C1300.13 93.4619 1298.22 90.454 1297.02 87.1456C1295.82 83.8372 1295.36 80.3074 1295.66 76.801V47.2749H1286.54C1285.56 47.247 1284.63 46.8418 1283.94 46.1439C1283.26 45.4461 1282.86 44.5095 1282.85 43.5298V34.4657C1282.86 33.486 1283.26 32.5495 1283.94 31.8516C1284.63 31.1538 1285.56 30.7486 1286.54 30.7207H1295.66V8.30467C1295.66 7.32582 1296.05 6.38706 1296.74 5.69491C1297.43 5.00275 1298.37 4.6139 1299.35 4.6139H1309.83C1310.31 4.60577 1310.79 4.69801 1311.24 4.8848C1311.69 5.07159 1312.09 5.34891 1312.43 5.69942C1312.78 6.03753 1313.05 6.44281 1313.24 6.89064C1313.43 7.33848 1313.52 7.81954 1313.52 8.30467V30.7207H1331.26C1332.25 30.7607 1333.17 31.1682 1333.87 31.862C1334.56 32.5558 1334.97 33.4853 1335.01 34.4657V43.8012C1334.97 44.7816 1334.56 45.7111 1333.87 46.4049C1333.17 47.0988 1332.25 47.5062 1331.26 47.5462H1313.52L1313.68 76.3668Z" fill="#455A64"/>
<path d="M1403.89 30.721H1422.99C1423.49 30.7189 1423.98 30.8189 1424.44 31.015C1424.9 31.211 1425.31 31.4989 1425.65 31.8608C1426 32.1989 1426.27 32.6042 1426.46 33.052C1426.65 33.4998 1426.74 33.9809 1426.74 34.466V43.8015C1426.74 44.2866 1426.65 44.7677 1426.46 45.2156C1426.27 45.6634 1426 46.0686 1425.65 46.4068C1425.31 46.7686 1424.9 47.0565 1424.44 47.2526C1423.98 47.4486 1423.49 47.5487 1422.99 47.5466H1403.89V98.8374C1403.89 99.3266 1403.8 99.8124 1403.62 100.266C1403.44 100.721 1403.17 101.134 1402.82 101.482C1402.48 101.831 1402.07 102.108 1401.62 102.296C1401.17 102.485 1400.68 102.583 1400.2 102.582H1389.72C1389.23 102.587 1388.75 102.494 1388.31 102.307C1387.86 102.12 1387.45 101.845 1387.11 101.497C1386.75 101.155 1386.46 100.743 1386.27 100.285C1386.07 99.8279 1385.97 99.3351 1385.97 98.8374V47.2752H1376.75C1376.26 47.2832 1375.77 47.1856 1375.32 46.989C1374.87 46.7923 1374.47 46.5012 1374.14 46.1354C1373.78 45.8056 1373.5 45.4019 1373.31 44.952C1373.13 44.5022 1373.04 44.0171 1373.06 43.5301V34.466C1373.04 33.9791 1373.13 33.4939 1373.31 33.0441C1373.5 32.5943 1373.78 32.1905 1374.14 31.8608C1374.47 31.495 1374.87 31.2039 1375.32 31.0072C1375.77 30.8105 1376.26 30.7129 1376.75 30.721H1385.81V24.5335C1385.71 20.7131 1386.37 16.9105 1387.77 13.3526C1388.9 10.4171 1390.77 7.8205 1393.19 5.80828C1395.75 3.83846 1398.69 2.43253 1401.82 1.68331C1405.49 0.84035 1409.24 0.439464 1413 0.489231H1424.19C1424.67 0.481108 1425.15 0.573321 1425.6 0.76011C1426.05 0.946899 1426.45 1.22424 1426.79 1.57476C1427.14 1.91287 1427.41 2.31812 1427.6 2.76596C1427.79 3.21379 1427.88 3.69487 1427.88 4.18V13.2441C1427.88 13.7333 1427.79 14.2191 1427.61 14.6732C1427.43 15.1272 1427.16 15.5405 1426.81 15.889C1426.47 16.2375 1426.06 16.5142 1425.61 16.7031C1425.16 16.892 1424.67 16.9892 1424.19 16.9892H1414.74C1411.96 16.7955 1409.18 17.4381 1406.76 18.8345C1405.74 19.6942 1404.96 20.7953 1404.47 22.0373C1403.99 23.2793 1403.83 24.6226 1403.99 25.9447L1403.89 30.721Z" fill="#455A64"/>
<path d="M1469.02 29.3637C1473.68 29.288 1478.32 30.0794 1482.7 31.6976C1486.53 33.2643 1490.05 35.5277 1493.06 38.3735C1496.04 41.116 1498.47 44.3934 1500.23 48.0347C1502.03 51.7346 1503.08 55.7567 1503.32 59.8669C1503.39 60.9151 1503.39 61.9666 1503.32 63.0149V70.6678C1503.39 71.698 1503.39 72.7313 1503.32 73.7615C1502.98 77.8609 1501.91 81.8672 1500.17 85.5937C1498.46 89.2193 1496.04 92.4669 1493.06 95.1463C1489.96 97.9209 1486.37 100.093 1482.48 101.551C1478.15 103.014 1473.59 103.676 1469.02 103.505C1464.34 103.58 1459.68 102.788 1455.29 101.171C1451.39 99.713 1447.8 97.541 1444.7 94.7664C1441.74 92.0849 1439.34 88.8369 1437.65 85.2138C1435.86 81.4995 1434.78 77.4887 1434.44 73.3816C1434.44 72.5675 1434.44 71.5362 1434.44 70.2879C1434.44 69.0395 1434.44 67.7912 1434.44 66.4885C1434.44 65.1859 1434.44 63.9376 1434.44 62.6349C1434.44 61.3323 1434.44 60.3011 1434.44 59.4869C1434.68 55.3768 1435.73 51.3547 1437.54 47.6547C1439.27 44.1666 1441.63 41.0221 1444.49 38.3735C1447.58 35.5826 1451.17 33.3924 1455.07 31.9147C1459.52 30.1965 1464.25 29.3311 1469.02 29.3637ZM1485.3 60.084C1485.13 57.6246 1484.47 55.2249 1483.35 53.0281C1482.38 51.2617 1481.03 49.7393 1479.38 48.5774C1477.89 47.4601 1476.17 46.6822 1474.34 46.2978C1472.56 45.8806 1470.74 45.6621 1468.91 45.6465C1467.08 45.6561 1465.26 45.8746 1463.48 46.2978C1461.64 46.6813 1459.9 47.459 1458.38 48.5774C1456.74 49.7276 1455.4 51.2537 1454.47 53.0281C1453.31 55.2109 1452.63 57.6161 1452.46 60.084C1452.46 60.8438 1452.46 61.7665 1452.46 62.852C1452.46 63.9376 1452.46 65.1316 1452.46 66.3257C1452.46 67.5198 1452.46 68.6596 1452.46 69.7994C1452.42 70.7034 1452.42 71.6092 1452.46 72.5132C1452.62 74.9822 1453.3 77.3888 1454.47 79.5691C1455.42 81.3483 1456.75 82.889 1458.38 84.074C1459.92 85.1494 1461.65 85.9229 1463.48 86.3536C1465.27 86.7346 1467.08 86.9346 1468.91 86.9506C1470.73 86.9285 1472.55 86.7286 1474.34 86.3536C1476.15 85.9215 1477.86 85.1478 1479.38 84.074C1481.02 82.8775 1482.37 81.3403 1483.35 79.5691C1484.47 77.375 1485.14 74.9738 1485.3 72.5132C1485.37 71.6099 1485.37 70.7026 1485.3 69.7994V63.0691C1485.38 62.0755 1485.38 61.0776 1485.3 60.084Z" fill="#455A64"/>
<path d="M1518.46 34.4659C1518.48 33.4862 1518.87 32.5496 1519.56 31.8518C1520.24 31.1539 1521.17 30.7488 1522.15 30.7209H1532.63C1533.61 30.7609 1534.54 31.1683 1535.23 31.8622C1535.93 32.556 1536.33 33.4855 1536.37 34.4659V69.4197C1536.14 74.0697 1537.35 78.6785 1539.85 82.6088C1541.2 84.3346 1542.96 85.6956 1544.97 86.5677C1546.98 87.4398 1549.17 87.7954 1551.35 87.6021C1553.47 87.7223 1555.59 87.3315 1557.53 86.4625C1559.46 85.5934 1561.16 84.2718 1562.48 82.6088C1565.23 78.7782 1566.59 74.1263 1566.33 69.4197V34.4659C1566.37 33.4855 1566.78 32.556 1567.47 31.8622C1568.17 31.1683 1569.1 30.7609 1570.08 30.7209H1580.5C1581 30.7187 1581.49 30.8188 1581.95 31.0148C1582.41 31.2109 1582.82 31.4988 1583.16 31.8607C1583.51 32.1988 1583.78 32.604 1583.97 33.0519C1584.16 33.4997 1584.25 33.9808 1584.24 34.4659V98.5659C1584.25 99.0597 1584.16 99.55 1583.97 100.008C1583.79 100.465 1583.51 100.881 1583.16 101.23C1582.81 101.58 1582.4 101.855 1581.94 102.041C1581.48 102.226 1580.99 102.318 1580.5 102.311H1570.08C1569.59 102.316 1569.11 102.222 1568.66 102.036C1568.22 101.849 1567.81 101.573 1567.47 101.225C1567.11 100.884 1566.82 100.471 1566.63 100.014C1566.43 99.5565 1566.33 99.0636 1566.33 98.5659V95.4179C1564 97.587 1561.37 99.4144 1558.52 100.846C1555.03 102.646 1551.15 103.524 1547.23 103.396C1542.46 103.556 1537.72 102.667 1533.33 100.791C1529.86 99.2298 1526.84 96.8224 1524.54 93.7896C1522.27 90.7392 1520.66 87.2441 1519.82 83.5314C1518.89 79.4909 1518.44 75.3563 1518.46 71.2108V34.4659Z" fill="#455A64"/>
<path d="M1670.38 98.5653C1670.39 99.0546 1670.3 99.5403 1670.11 99.9944C1669.93 100.448 1669.66 100.862 1669.32 101.21C1668.97 101.559 1668.57 101.835 1668.11 102.024C1667.66 102.213 1667.18 102.31 1666.69 102.31H1656.21C1655.73 102.315 1655.25 102.222 1654.8 102.035C1654.35 101.848 1653.95 101.573 1653.61 101.225C1653.25 100.883 1652.96 100.471 1652.76 100.013C1652.57 99.5559 1652.47 99.063 1652.47 98.5653V63.6116C1652.72 58.905 1651.36 54.2531 1648.62 50.4225C1647.18 48.7165 1645.36 47.3783 1643.3 46.5192C1641.24 45.6601 1639.01 45.305 1636.78 45.4834C1634.62 45.3783 1632.47 45.7687 1630.48 46.6248C1628.5 47.4809 1626.74 48.78 1625.33 50.4225C1622.37 54.1592 1620.86 58.8471 1621.1 63.6116V98.5653C1621.11 99.0595 1621.02 99.551 1620.83 100.009C1620.65 100.466 1620.37 100.88 1620.01 101.225C1619.67 101.57 1619.27 101.844 1618.82 102.031C1618.37 102.217 1617.89 102.312 1617.41 102.31H1606.93C1606.45 102.312 1605.97 102.217 1605.52 102.031C1605.07 101.844 1604.67 101.57 1604.33 101.225C1603.97 100.88 1603.69 100.466 1603.51 100.009C1603.32 99.551 1603.23 99.0595 1603.24 98.5653V34.4654C1603.22 33.9784 1603.31 33.4933 1603.5 33.0434C1603.68 32.5936 1603.97 32.1899 1604.33 31.8601C1604.66 31.4971 1605.06 31.2078 1605.51 31.0114C1605.96 30.815 1606.44 30.7158 1606.93 30.7203H1617.41C1617.9 30.7158 1618.38 30.815 1618.83 31.0114C1619.28 31.2078 1619.68 31.4971 1620.01 31.8601C1620.37 32.1899 1620.65 32.5936 1620.84 33.0434C1621.03 33.4933 1621.12 33.9784 1621.1 34.4654V37.6134C1623.56 35.1912 1626.4 33.1922 1629.51 31.6973C1633.08 30.0536 1636.98 29.255 1640.91 29.3634C1645.73 29.2046 1650.52 30.0935 1654.97 31.9687C1658.51 33.5402 1661.61 35.9419 1664.03 38.9703C1666.38 41.9951 1668.05 45.4954 1668.91 49.2284C1669.91 53.2599 1670.4 57.3977 1670.38 61.5491V98.5653Z" fill="#455A64"/>
<path d="M1716.19 29.3646C1718.76 29.3325 1721.33 29.6058 1723.84 30.1788C1725.88 30.6584 1727.86 31.3496 1729.76 32.2412C1731.31 32.974 1732.76 33.8848 1734.1 34.955C1735.14 35.7465 1736.11 36.6371 1736.98 37.6146V8.3055C1736.98 7.81622 1737.08 7.33182 1737.26 6.88046C1737.45 6.4291 1737.73 6.0198 1738.08 5.67636C1738.43 5.33292 1738.84 5.06221 1739.29 4.87995C1739.75 4.6977 1740.23 4.60753 1740.72 4.61473H1751.25C1751.74 4.59624 1752.22 4.68375 1752.67 4.87117C1753.12 5.0586 1753.53 5.34147 1753.86 5.70025C1754.22 6.0273 1754.51 6.42925 1754.71 6.87878C1754.91 7.32831 1755.01 7.81489 1755 8.3055V98.5665C1755 99.0642 1754.9 99.5571 1754.7 100.015C1754.51 100.472 1754.22 100.884 1753.86 101.226C1753.52 101.574 1753.11 101.85 1752.67 102.036C1752.22 102.223 1751.74 102.317 1751.25 102.312H1740.83C1740.34 102.319 1739.85 102.227 1739.39 102.041C1738.93 101.856 1738.52 101.58 1738.17 101.231C1737.82 100.882 1737.54 100.466 1737.36 100.008C1737.17 99.5507 1737.08 99.0604 1737.09 98.5665V95.4186C1736.22 96.396 1735.25 97.2866 1734.21 98.0781C1732.87 99.1483 1731.42 100.059 1729.87 100.792C1727.97 101.684 1725.99 102.375 1723.95 102.854C1721.44 103.427 1718.87 103.701 1716.3 103.668C1712.01 103.739 1707.76 102.829 1703.87 101.009C1700.24 99.3006 1697.01 96.8615 1694.37 93.8445C1691.72 90.7949 1689.63 87.3046 1688.18 83.5321C1686.66 79.6326 1685.79 75.5047 1685.63 71.32C1685.63 69.9631 1685.63 68.3348 1685.63 66.5437C1685.63 64.7526 1685.63 63.07 1685.63 61.7131C1685.79 57.5284 1686.66 53.4005 1688.18 49.501C1689.64 45.7343 1691.73 42.246 1694.37 39.1886C1697.01 36.1716 1700.24 33.7325 1703.87 32.0241C1707.72 30.2202 1711.94 29.311 1716.19 29.3646ZM1703.38 62.6901C1703.11 65.252 1703.11 67.8354 1703.38 70.3973C1703.44 75.2292 1705.39 79.8459 1708.81 83.2607C1712.01 85.8946 1716.06 87.2824 1720.21 87.1686C1724.37 87.2823 1728.43 85.8517 1731.6 83.1522C1733.22 81.7093 1734.54 79.9578 1735.47 78.0006C1736.4 76.0433 1736.93 73.9197 1737.03 71.7542C1737.23 69.9521 1737.32 68.1396 1737.3 66.3266C1737.32 64.5136 1737.23 62.7013 1737.03 60.899C1736.81 56.6663 1734.94 52.6881 1731.83 49.8097C1728.72 46.9313 1724.61 45.3797 1720.37 45.4846C1716.22 45.3708 1712.18 46.7586 1708.97 49.3925C1707.2 51.1219 1705.79 53.19 1704.83 55.4742C1703.87 57.7584 1703.38 60.2122 1703.38 62.6901Z" fill="#455A64"/>
<path d="M966.639 237.893C967.087 237.888 967.531 237.977 967.942 238.155C968.354 238.333 968.723 238.595 969.027 238.924C969.344 239.235 969.594 239.607 969.762 240.017C969.93 240.428 970.012 240.869 970.004 241.312V254.664C970.012 255.108 969.93 255.548 969.762 255.959C969.594 256.37 969.344 256.742 969.027 257.052C968.723 257.382 968.354 257.644 967.942 257.821C967.531 257.999 967.087 258.088 966.639 258.084H906.935C906.486 258.092 906.041 258.004 905.629 257.826C905.218 257.648 904.848 257.384 904.547 257.052C904.223 256.744 903.964 256.374 903.787 255.964C903.61 255.553 903.517 255.111 903.516 254.664V173.25C903.517 172.803 903.61 172.361 903.787 171.951C903.964 171.54 904.223 171.17 904.547 170.862C904.848 170.53 905.218 170.266 905.629 170.088C906.041 169.91 906.486 169.823 906.935 169.831H965.716C966.614 169.858 967.468 170.227 968.104 170.862C968.739 171.498 969.108 172.352 969.135 173.25V186.548C969.141 187.004 969.052 187.456 968.875 187.877C968.697 188.297 968.435 188.676 968.104 188.99C967.794 189.307 967.422 189.557 967.011 189.725C966.6 189.893 966.16 189.976 965.716 189.967H926.854V203.59H962.948C963.396 203.582 963.842 203.67 964.254 203.848C964.665 204.026 965.034 204.29 965.336 204.622C965.66 204.929 965.919 205.3 966.096 205.71C966.273 206.121 966.366 206.563 966.367 207.01V220.362C966.366 220.809 966.273 221.251 966.096 221.661C965.919 222.072 965.66 222.442 965.336 222.75C965.034 223.082 964.665 223.346 964.254 223.524C963.842 223.702 963.396 223.789 962.948 223.781H926.854V237.893H966.639Z" fill="#7694FF"/>
<path d="M1022.11 169.776C1027.12 169.709 1032.12 170.312 1036.98 171.568C1041.02 172.642 1044.82 174.485 1048.16 176.995C1051.23 179.381 1053.66 182.497 1055.22 186.059C1056.92 190.092 1057.75 194.438 1057.66 198.814C1057.87 204.325 1056.52 209.783 1053.75 214.554C1051.14 218.717 1047.37 222.021 1042.9 224.052L1058.53 254.067C1058.77 254.5 1058.9 254.984 1058.91 255.478C1058.91 256.212 1058.61 256.916 1058.1 257.436C1057.58 257.955 1056.87 258.246 1056.14 258.246H1038.99C1038.34 258.312 1037.69 258.244 1037.08 258.048C1036.46 257.852 1035.89 257.532 1035.4 257.107C1034.73 256.427 1034.14 255.66 1033.67 254.827L1019.66 227.689H1007.67V254.827C1007.68 255.271 1007.6 255.711 1007.43 256.122C1007.26 256.533 1007.01 256.905 1006.69 257.215C1006.39 257.544 1006.02 257.807 1005.61 257.984C1005.2 258.162 1004.75 258.251 1004.3 258.246H988.022C987.574 258.251 987.13 258.162 986.718 257.984C986.307 257.807 985.938 257.544 985.634 257.215C985.317 256.905 985.067 256.533 984.899 256.122C984.731 255.711 984.648 255.271 984.657 254.827V173.413C984.648 172.969 984.731 172.529 984.899 172.118C985.067 171.707 985.317 171.335 985.634 171.025C985.938 170.695 986.307 170.433 986.718 170.256C987.13 170.078 987.574 169.989 988.022 169.993L1022.11 169.776ZM1007.83 207.77H1022.11C1025.16 207.891 1028.2 207.198 1030.9 205.761C1032.09 204.972 1033.04 203.871 1033.64 202.578C1034.24 201.286 1034.48 199.852 1034.32 198.434C1034.48 197.024 1034.25 195.597 1033.64 194.313C1033.04 193.028 1032.09 191.937 1030.9 191.161C1028.2 189.724 1025.16 189.031 1022.11 189.153H1007.67L1007.83 207.77Z" fill="#7694FF"/>
<path d="M1109.76 169.776C1114.78 169.709 1119.78 170.312 1124.64 171.568C1128.68 172.642 1132.47 174.485 1135.82 176.995C1138.9 179.366 1141.33 182.486 1142.87 186.059C1144.58 190.092 1145.41 194.438 1145.32 198.814C1145.53 204.325 1144.17 209.783 1141.41 214.554C1138.8 218.717 1135.02 222.021 1130.55 224.052L1146.18 254.067C1146.42 254.5 1146.55 254.984 1146.56 255.478C1146.56 256.212 1146.27 256.916 1145.75 257.436C1145.23 257.955 1144.53 258.246 1143.8 258.246H1126.64C1126 258.312 1125.35 258.244 1124.73 258.048C1124.12 257.852 1123.55 257.532 1123.06 257.107C1122.38 256.427 1121.8 255.66 1121.33 254.827L1107.32 227.689H1095.76V254.827C1095.76 255.274 1095.67 255.716 1095.49 256.127C1095.31 256.537 1095.05 256.907 1094.73 257.215C1094.43 257.544 1094.06 257.807 1093.65 257.984C1093.23 258.162 1092.79 258.251 1092.34 258.246H1075.79C1075.34 258.251 1074.9 258.162 1074.48 257.984C1074.07 257.807 1073.7 257.544 1073.4 257.215C1073.08 256.905 1072.83 256.533 1072.66 256.122C1072.5 255.711 1072.41 255.271 1072.42 254.827V173.413C1072.41 172.969 1072.5 172.529 1072.66 172.118C1072.83 171.707 1073.08 171.335 1073.4 171.025C1073.7 170.695 1074.07 170.433 1074.48 170.256C1074.9 170.078 1075.34 169.989 1075.79 169.993L1109.76 169.776ZM1095.54 207.77H1109.76C1112.82 207.891 1115.86 207.198 1118.56 205.761C1119.75 204.972 1120.69 203.871 1121.3 202.578C1121.9 201.286 1122.13 199.852 1121.98 198.434C1122.14 197.024 1121.9 195.597 1121.3 194.313C1120.69 193.028 1119.75 191.937 1118.56 191.161C1115.86 189.724 1112.82 189.031 1109.76 189.153H1095.54V207.77Z" fill="#7694FF"/>
<path d="M1156.93 202.722C1157.17 198.141 1158.21 193.639 1160.02 189.424C1161.79 185.298 1164.42 181.597 1167.73 178.569C1171.24 175.349 1175.35 172.858 1179.83 171.242C1190.48 167.623 1202.02 167.623 1212.67 171.242C1217.15 172.871 1221.26 175.36 1224.77 178.569C1228.07 181.599 1230.68 185.3 1232.43 189.424C1234.29 193.622 1235.34 198.134 1235.52 202.722C1235.52 206.304 1235.79 210.103 1235.79 214.066C1235.79 218.028 1235.79 221.719 1235.52 224.921C1235.33 229.525 1234.28 234.054 1232.43 238.273C1230.64 242.371 1228.03 246.064 1224.77 249.128C1221.24 252.351 1217.08 254.825 1212.56 256.401C1201.9 259.948 1190.38 259.948 1179.73 256.401C1175.24 254.824 1171.12 252.349 1167.62 249.128C1164.35 246.066 1161.73 242.373 1159.91 238.273C1158.11 234.037 1157.06 229.518 1156.82 224.921C1156.82 221.501 1156.82 217.811 1156.82 214.066C1156.82 210.321 1156.77 206.304 1156.93 202.722ZM1212.29 224.432C1212.29 222.913 1212.29 221.23 1212.56 219.385C1212.83 217.539 1212.56 215.64 1212.56 213.686C1212.56 211.732 1212.56 209.886 1212.56 208.258C1212.56 206.63 1212.56 204.839 1212.29 203.373C1212.15 201.4 1211.71 199.46 1210.99 197.62C1210.31 195.888 1209.27 194.317 1207.95 193.006C1206.57 191.658 1204.92 190.605 1203.12 189.913C1200.93 189.113 1198.61 188.726 1196.28 188.773C1193.97 188.72 1191.66 189.107 1189.5 189.913C1187.67 190.591 1186 191.645 1184.61 193.006C1183.31 194.331 1182.27 195.898 1181.57 197.62C1180.85 199.46 1180.41 201.4 1180.27 203.373C1180.27 204.821 1180.16 206.449 1179.94 208.258C1179.94 210.049 1179.94 211.949 1179.94 213.686C1179.94 215.423 1179.94 217.539 1179.94 219.385C1179.94 221.23 1179.94 222.913 1180.27 224.432C1180.47 228.318 1182.01 232.016 1184.61 234.908C1186.16 236.378 1187.99 237.506 1190 238.217C1192.02 238.928 1194.15 239.206 1196.28 239.033C1198.4 239.212 1200.53 238.936 1202.53 238.225C1204.54 237.514 1206.36 236.383 1207.89 234.908C1210.45 232.023 1211.99 228.383 1212.29 224.541V224.432Z" fill="#7694FF"/>
<path d="M1288.01 169.776C1293.02 169.713 1298.02 170.315 1302.88 171.567C1306.9 172.637 1310.68 174.48 1314 176.995C1317.09 179.378 1319.54 182.493 1321.12 186.059C1322.82 190.091 1323.65 194.437 1323.56 198.814C1323.77 204.324 1322.42 209.782 1319.65 214.554C1316.98 218.764 1313.1 222.074 1308.52 224.052L1324.15 254.067C1324.41 254.497 1324.56 254.98 1324.59 255.478C1324.58 255.845 1324.5 256.208 1324.36 256.544C1324.21 256.88 1323.99 257.182 1323.72 257.432C1323.47 257.694 1323.16 257.901 1322.83 258.041C1322.49 258.182 1322.13 258.251 1321.77 258.246H1304.62C1303.97 258.311 1303.32 258.244 1302.71 258.048C1302.09 257.852 1301.52 257.531 1301.03 257.106C1300.37 256.428 1299.8 255.66 1299.35 254.826L1285.35 227.688H1273.62V254.826C1273.6 255.725 1273.23 256.579 1272.59 257.214C1271.96 257.85 1271.1 258.219 1270.2 258.246H1253.92C1253.02 258.219 1252.17 257.85 1251.53 257.214C1250.9 256.579 1250.53 255.725 1250.5 254.826V173.412C1250.53 172.514 1250.9 171.66 1251.53 171.025C1252.17 170.389 1253.02 170.02 1253.92 169.993L1288.01 169.776ZM1273.73 207.769H1288.01C1291.05 207.892 1294.06 207.198 1296.75 205.761C1297.95 204.987 1298.92 203.891 1299.53 202.595C1300.15 201.3 1300.38 199.858 1300.22 198.434C1300.38 197.018 1300.14 195.585 1299.53 194.299C1298.91 193.013 1297.95 191.925 1296.75 191.161C1294.06 189.723 1291.05 189.03 1288.01 189.152H1273.62L1273.73 207.769Z" fill="#7694FF"/>
<path d="M1406.44 258.083C1405.98 258.089 1405.53 258 1405.11 257.823C1404.69 257.645 1404.31 257.383 1403.99 257.052C1403.68 256.741 1403.43 256.369 1403.26 255.959C1403.09 255.548 1403.01 255.107 1403.02 254.664V241.8H1363.29C1362.84 241.809 1362.4 241.727 1361.99 241.559C1361.58 241.391 1361.21 241.14 1360.9 240.823C1360.57 240.509 1360.31 240.13 1360.13 239.71C1359.95 239.29 1359.86 238.837 1359.87 238.381V225.029C1359.8 223.09 1360.37 221.183 1361.5 219.602L1399.22 172.056C1399.78 171.318 1400.48 170.692 1401.28 170.21C1402.11 169.898 1403 169.75 1403.89 169.776H1422.94C1423.38 169.768 1423.83 169.856 1424.24 170.034C1424.65 170.211 1425.02 170.475 1425.32 170.807C1425.65 171.115 1425.91 171.485 1426.08 171.896C1426.26 172.306 1426.35 172.748 1426.36 173.195V221.61H1437.21C1438.11 221.625 1438.97 221.996 1439.6 222.641C1439.92 222.951 1440.17 223.323 1440.33 223.734C1440.5 224.145 1440.58 224.585 1440.58 225.029V238.381C1440.58 239.292 1440.23 240.169 1439.6 240.823C1439.28 241.135 1438.91 241.382 1438.5 241.55C1438.09 241.718 1437.65 241.803 1437.21 241.8H1426.36V254.664C1426.35 255.111 1426.26 255.553 1426.08 255.963C1425.91 256.374 1425.65 256.744 1425.32 257.052C1425.02 257.384 1424.65 257.648 1424.24 257.826C1423.83 258.004 1423.38 258.091 1422.94 258.083H1406.44ZM1403.89 221.61V198.434L1385.49 221.61H1403.89Z" fill="#7694FF"/>
<path d="M1488.01 168.636C1493.57 168.508 1499.1 169.448 1504.3 171.404C1508.54 173.065 1512.38 175.599 1515.59 178.84C1518.55 181.948 1520.83 185.647 1522.26 189.695C1523.74 193.912 1524.61 198.315 1524.87 202.775C1524.87 206.358 1524.87 210.157 1524.87 214.119C1524.87 218.081 1524.87 221.772 1524.87 224.974C1524.61 229.435 1523.74 233.838 1522.26 238.055C1520.85 242.114 1518.57 245.819 1515.59 248.91C1512.38 252.151 1508.54 254.684 1504.3 256.346C1493.75 260.036 1482.27 260.036 1471.73 256.346C1467.49 254.684 1463.64 252.151 1460.44 248.91C1457.46 245.819 1455.18 242.114 1453.77 238.055C1452.29 233.838 1451.41 229.435 1451.16 224.974C1451.16 221.555 1451.16 217.864 1451.16 214.119C1451.16 210.374 1451.16 206.358 1451.16 202.775C1451.41 198.315 1452.29 193.912 1453.77 189.695C1455.2 185.647 1457.48 181.948 1460.44 178.84C1463.64 175.599 1467.49 173.065 1471.73 171.404C1476.93 169.448 1482.46 168.508 1488.01 168.636ZM1501.58 224.54C1501.91 217.376 1501.91 210.32 1501.58 203.318C1501.44 201.373 1501.12 199.447 1500.61 197.565C1500.21 195.895 1499.47 194.324 1498.43 192.951C1497.34 191.611 1495.95 190.55 1494.36 189.858C1492.37 189.035 1490.22 188.647 1488.07 188.718C1485.91 188.652 1483.77 189.04 1481.77 189.858C1480.19 190.55 1478.79 191.611 1477.7 192.951C1476.67 194.333 1475.92 195.899 1475.48 197.565C1474.93 199.437 1474.62 201.37 1474.55 203.318C1474.17 210.387 1474.17 217.471 1474.55 224.54C1474.64 226.497 1474.91 228.442 1475.37 230.348C1475.82 232.021 1476.59 233.589 1477.65 234.961C1478.76 236.289 1480.17 237.331 1481.77 238C1483.77 238.818 1485.91 239.207 1488.07 239.14C1490.22 239.211 1492.37 238.823 1494.36 238C1495.96 237.331 1497.38 236.289 1498.49 234.961C1499.55 233.589 1500.32 232.021 1500.77 230.348C1501.22 228.442 1501.49 226.497 1501.58 224.54Z" fill="#7694FF"/>
<path d="M1581.86 258.083C1580.96 258.056 1580.11 257.687 1579.47 257.052C1578.83 256.416 1578.47 255.562 1578.44 254.664V241.801H1538.71C1538.26 241.809 1537.82 241.727 1537.41 241.559C1537 241.391 1536.63 241.141 1536.32 240.824C1535.67 240.175 1535.3 239.299 1535.29 238.381V225.029C1535.21 223.081 1535.81 221.165 1536.97 219.602L1574.64 172.056C1575.21 171.302 1575.93 170.674 1576.76 170.211C1577.57 169.892 1578.44 169.744 1579.31 169.776H1598.36C1599.26 169.804 1600.11 170.173 1600.75 170.808C1601.38 171.444 1601.75 172.297 1601.78 173.196V221.61H1612.63C1613.53 221.637 1614.38 222.006 1615.02 222.642C1615.66 223.277 1616.02 224.131 1616.05 225.029V238.381C1616.04 239.299 1615.67 240.175 1615.02 240.824C1614.71 241.141 1614.34 241.391 1613.93 241.559C1613.52 241.727 1613.08 241.809 1612.63 241.801H1601.78V254.664C1601.75 255.562 1601.38 256.416 1600.75 257.052C1600.11 257.687 1599.26 258.056 1598.36 258.083H1581.86ZM1579.09 221.61V198.434L1560.69 221.61H1579.09Z" fill="#7694FF"/>
</svg>
